<ttFont>
<head>
    <!-- Most of this table will be recalculated by the compiler -->
    <tableVersion value="1.0"/>
    <fontRevision value="1.0"/>
    <checkSumAdjustment value="0x11207542"/>
    <magicNumber value="0x5f0f3cf5"/>
    <flags value="00000000 00011011"/>
    <unitsPerEm value="1000"/>
    <created value="Tue Jan  8 12:46:00 2013"/>
    <modified value="Thu Nov  6 12:31:33 2014"/>
    <xMin value="-108"/>
    <yMin value="-276"/>
    <xMax value="1198"/>
    <yMax value="1081"/>
    <macStyle value="00000000 00000010"/>
    <lowestRecPPEM value="9"/>
    <fontDirectionHint value="2"/>
    <indexToLocFormat value="0"/>
    <glyphDataFormat value="0"/>
  </head>
    <TTGlyph name=".notdef" xMin="67" yMin="0" xMax="531" yMax="650">
      <contour>
        <pt x="67" y="650" on="1"/>
        <pt x="531" y="650" on="1"/>
        <pt x="531" y="0" on="1"/>
        <pt x="67" y="0" on="1"/>
      </contour>
      <contour>
        <pt x="457" y="604" on="1"/>
        <pt x="141" y="604" on="1"/>
        <pt x="300" y="367" on="1"/>
      </contour>
      <contour>
        <pt x="485" y="88" on="1"/>
        <pt x="485" y="562" on="1"/>
        <pt x="327" y="325" on="1"/>
      </contour>
      <contour>
        <pt x="457" y="47" on="1"/>
        <pt x="300" y="283" on="1"/>
        <pt x="141" y="47" on="1"/>
      </contour>
      <contour>
        <pt x="114" y="88" on="1"/>
        <pt x="271" y="325" on="1"/>
        <pt x="114" y="562" on="1"/>
      </contour>
    </TTGlyph>
    <TTGlyph name="A" xMin="-17" yMin="0" xMax="617" yMax="663">
      <contour>
        <pt x="467" y="150" on="1"/>
        <pt x="162" y="150" on="1"/>
        <pt x="95" y="11" on="1"/>
        <pt x="91" y="3" on="0"/>
        <pt x="84" y="0" on="0"/>
        <pt x="75" y="0" on="1"/>
        <pt x="-17" y="0" on="1"/>
        <pt x="312" y="663" on="1"/>
        <pt x="408" y="663" on="1"/>
        <pt x="416" y="663" on="0"/>
        <pt x="425" y="659" on="0"/>
        <pt x="427" y="650" on="1"/>
        <pt x="617" y="0" on="1"/>
        <pt x="524" y="0" on="1"/>
        <pt x="515" y="0" on="0"/>
        <pt x="508" y="4" on="0"/>
        <pt x="506" y="11" on="1"/>
      </contour>
      <contour>
        <pt x="442" y="236" on="1"/>
        <pt x="407" y="359" on="1"/>
        <pt x="388" y="425" on="0"/>
        <pt x="363" y="531" on="0"/>
        <pt x="358" y="563" on="1"/>
        <pt x="340" y="520" on="0"/>
        <pt x="291" y="414" on="0"/>
        <pt x="263" y="357" on="1"/>
        <pt x="205" y="236" on="1"/>
      </contour>
    </TTGlyph>
    <TTGlyph name="AE" xMin="-32" yMin="0" xMax="926" yMax="663">
      <contour>
        <pt x="196" y="150" on="1"/>
        <pt x="99" y="14" on="1"/>
        <pt x="92" y="5" on="0"/>
        <pt x="82" y="0" on="0"/>
        <pt x="69" y="0" on="1"/>
        <pt x="-32" y="0" on="1"/>
        <pt x="454" y="663" on="1"/>
        <pt x="926" y="663" on="1"/>
        <pt x="915" y="573" on="1"/>
        <pt x="586" y="573" on="1"/>
        <pt x="564" y="386" on="1"/>
        <pt x="865" y="386" on="1"/>
        <pt x="854" y="297" on="1"/>
        <pt x="554" y="297" on="1"/>
        <pt x="530" y="89" on="1"/>
        <pt x="869" y="89" on="1"/>
        <pt x="859" y="0" on="1"/>
        <pt x="416" y="0" on="1"/>
        <pt x="433" y="150" on="1"/>
      </contour>
      <contour>
        <pt x="481" y="554" on="1"/>
        <pt x="465" y="529" on="0"/>
        <pt x="424" y="470" on="0"/>
        <pt x="379" y="407" on="0"/>
        <pt x="335" y="345" on="0"/>
        <pt x="316" y="318" on="1"/>
        <pt x="259" y="236" on="1"/>
        <pt x="444" y="236" on="1"/>
      </contour>
    </TTGlyph>
    <TTGlyph name="AEacute" xMin="-32" yMin="0" xMax="926" yMax="913">
      <component glyphName="AE" x="0" y="0" flags="0x204"/>
      <component glyphName="acute.cap" x="399" y="0" flags="0x4"/>
    </TTGlyph>
    <TTGlyph name="Aacute" xMin="-17" yMin="0" xMax="617" yMax="913">
      <component glyphName="A" x="0" y="0" flags="0x204"/>
      <component glyphName="acute.cap" x="129" y="0" flags="0x4"/>
    </TTGlyph>
    <TTGlyph name="Abreve" xMin="-17" yMin="0" xMax="617" yMax="882">
      <component glyphName="A" x="0" y="0" flags="0x204"/>
      <component glyphName="breve.cap" x="119" y="0" flags="0x4"/>
    </TTGlyph>
    <TTGlyph name="Acaron" xMin="-16" yMin="0" xMax="618" yMax="907">
      <component glyphName="A" x="1" y="0" flags="0x4"/>
      <component glyphName="caron.cap" x="111" y="0" flags="0x4"/>
    </TTGlyph>
    <TTGlyph name="Acircumflex" xMin="-17" yMin="0" xMax="617" yMax="897">
      <component glyphName="A" x="0" y="0" flags="0x204"/>
      <component glyphName="circumflex.cap" x="124" y="0" flags="0x4"/>
    </TTGlyph>
    <TTGlyph name="Adieresis" xMin="-17" yMin="0" xMax="617" yMax="856">
      <component glyphName="A" x="0" y="0" flags="0x204"/>
      <component glyphName="dieresis.cap" x="126" y="0" flags="0x4"/>
    </TTGlyph>
    <TTGlyph name="Agrave" xMin="-17" yMin="0" xMax="617" yMax="918">
      <component glyphName="A" x="0" y="0" flags="0x204"/>
      <component glyphName="grave.cap" x="129" y="0" flags="0x4"/>
    </TTGlyph>
    <TTGlyph name="Amacron" xMin="-17" yMin="0" xMax="617" yMax="843">
      <component glyphName="A" x="0" y="0" flags="0x204"/>
      <component glyphName="macron.cap" x="118" y="0" flags="0x4"/>
    </TTGlyph>
    <TTGlyph name="Aogonek" xMin="-17" yMin="-211" xMax="617" yMax="663">
      <contour>
        <pt x="467" y="150" on="1"/>
        <pt x="162" y="150" on="1"/>
        <pt x="95" y="11" on="1"/>
        <pt x="91" y="3" on="0"/>
        <pt x="84" y="0" on="0"/>
        <pt x="75" y="0" on="1"/>
        <pt x="-17" y="0" on="1"/>
        <pt x="312" y="663" on="1"/>
        <pt x="408" y="663" on="1"/>
        <pt x="416" y="663" on="0"/>
        <pt x="425" y="659" on="0"/>
        <pt x="427" y="650" on="1"/>
        <pt x="617" y="0" on="1"/>
        <pt x="588" y="0" on="1"/>
        <pt x="564" y="0" on="0"/>
        <pt x="524" y="-21" on="0"/>
        <pt x="496" y="-51" on="0"/>
        <pt x="480" y="-86" on="0"/>
        <pt x="480" y="-101" on="1"/>
        <pt x="480" y="-119" on="0"/>
        <pt x="504" y="-140" on="0"/>
        <pt x="527" y="-140" on="1"/>
        <pt x="546" y="-140" on="0"/>
        <pt x="592" y="-132" on="1"/>
        <pt x="602" y="-185" on="1"/>
        <pt x="580" y="-197" on="0"/>
        <pt x="528" y="-211" on="0"/>
        <pt x="505" y="-211" on="1"/>
        <pt x="455" y="-211" on="0"/>
        <pt x="395" y="-158" on="0"/>
        <pt x="395" y="-120" on="1"/>
        <pt x="395" y="-96" on="0"/>
        <pt x="417" y="-51" on="0"/>
        <pt x="449" y="-13" on="0"/>
        <pt x="487" y="16" on="0"/>
        <pt x="502" y="24" on="1"/>
      </contour>
      <contour>
        <pt x="442" y="236" on="1"/>
        <pt x="407" y="359" on="1"/>
        <pt x="388" y="425" on="0"/>
        <pt x="363" y="531" on="0"/>
        <pt x="358" y="563" on="1"/>
        <pt x="340" y="520" on="0"/>
        <pt x="291" y="414" on="0"/>
        <pt x="263" y="357" on="1"/>
        <pt x="205" y="236" on="1"/>
      </contour>
    </TTGlyph>
    <TTGlyph name="Aring" xMin="-17" yMin="0" xMax="617" yMax="871">
      <contour>
        <pt x="617" y="0" on="1"/>
        <pt x="524" y="0" on="1"/>
        <pt x="515" y="0" on="0"/>
        <pt x="508" y="4" on="0"/>
        <pt x="506" y="11" on="1"/>
        <pt x="467" y="150" on="1"/>
        <pt x="162" y="150" on="1"/>
        <pt x="95" y="11" on="1"/>
        <pt x="91" y="3" on="0"/>
        <pt x="84" y="0" on="0"/>
        <pt x="75" y="0" on="1"/>
        <pt x="-17" y="0" on="1"/>
        <pt x="308" y="656" on="1"/>
        <pt x="286" y="670" on="0"/>
        <pt x="263" y="717" on="0"/>
        <pt x="263" y="746" on="1"/>
        <pt x="263" y="773" on="0"/>
        <pt x="282" y="818" on="0"/>
        <pt x="316" y="852" on="0"/>
        <pt x="361" y="871" on="0"/>
        <pt x="388" y="871" on="1"/>
        <pt x="439" y="871" on="0"/>
        <pt x="500" y="809" on="0"/>
        <pt x="500" y="763" on="1"/>
        <pt x="500" y="724" on="0"/>
        <pt x="460" y="663" on="0"/>
        <pt x="427" y="649" on="1"/>
      </contour>
      <contour>
        <pt x="378" y="700" on="1"/>
        <pt x="403" y="700" on="0"/>
        <pt x="436" y="730" on="0"/>
        <pt x="436" y="760" on="1"/>
        <pt x="436" y="780" on="0"/>
        <pt x="411" y="809" on="0"/>
        <pt x="385" y="809" on="1"/>
        <pt x="360" y="809" on="0"/>
        <pt x="327" y="779" on="0"/>
        <pt x="327" y="749" on="1"/>
        <pt x="327" y="729" on="0"/>
        <pt x="352" y="700" on="0"/>
      </contour>
      <contour>
        <pt x="442" y="236" on="1"/>
        <pt x="407" y="359" on="1"/>
        <pt x="388" y="425" on="0"/>
        <pt x="363" y="531" on="0"/>
        <pt x="358" y="563" on="1"/>
        <pt x="340" y="520" on="0"/>
        <pt x="291" y="414" on="0"/>
        <pt x="263" y="357" on="1"/>
        <pt x="205" y="236" on="1"/>
      </contour>
    </TTGlyph>
    <TTGlyph name="Aringacute" xMin="-17" yMin="0" xMax="617" yMax="1081">
      <component glyphName="Aring" x="0" y="0" flags="0x204"/>
      <component glyphName="acute.cap" x="144" y="168" flags="0x4"/>
    </TTGlyph>
    <TTGlyph name="Atilde" xMin="-17" yMin="0" xMax="617" yMax="863">
      <component glyphName="A" x="0" y="0" flags="0x204"/>
      <component glyphName="tilde.cap" x="118" y="0" flags="0x4"/>
    </TTGlyph>
    <TTGlyph name="B" xMin="49" yMin="0" xMax="572" yMax="663">
      <contour>
        <pt x="127" y="663" on="1"/>
        <pt x="353" y="663" on="1"/>
        <pt x="419" y="663" on="0"/>
        <pt x="500" y="639" on="0"/>
        <pt x="525" y="616" on="1"/>
        <pt x="545" y="597" on="0"/>
        <pt x="563" y="546" on="0"/>
        <pt x="563" y="517" on="1"/>
        <pt x="563" y="469" on="0"/>
        <pt x="517" y="386" on="0"/>
        <pt x="481" y="351" on="1"/>
        <pt x="481" y="350" on="1"/>
        <pt x="524" y="331" on="0"/>
        <pt x="572" y="262" on="0"/>
        <pt x="572" y="213" on="1"/>
        <pt x="572" y="171" on="0"/>
        <pt x="543" y="97" on="0"/>
        <pt x="515" y="69" on="1"/>
        <pt x="482" y="36" on="0"/>
        <pt x="380" y="0" on="0"/>
        <pt x="308" y="0" on="1"/>
        <pt x="49" y="0" on="1"/>
      </contour>
      <contour>
        <pt x="163" y="89" on="1"/>
        <pt x="306" y="89" on="1"/>
        <pt x="352" y="89" on="0"/>
        <pt x="415" y="110" on="0"/>
        <pt x="434" y="128" on="1"/>
        <pt x="467" y="161" on="0"/>
        <pt x="467" y="214" on="1"/>
        <pt x="467" y="251" on="0"/>
        <pt x="448" y="270" on="1"/>
        <pt x="436" y="281" on="0"/>
        <pt x="395" y="292" on="0"/>
        <pt x="362" y="292" on="1"/>
        <pt x="186" y="292" on="1"/>
      </contour>
      <contour>
        <pt x="197" y="377" on="1"/>
        <pt x="373" y="377" on="1"/>
        <pt x="396" y="377" on="0"/>
        <pt x="419" y="388" on="0"/>
        <pt x="430" y="402" on="1"/>
        <pt x="444" y="420" on="0"/>
        <pt x="461" y="473" on="0"/>
        <pt x="461" y="499" on="1"/>
        <pt x="461" y="539" on="0"/>
        <pt x="440" y="556" on="1"/>
        <pt x="418" y="574" on="0"/>
        <pt x="353" y="574" on="1"/>
        <pt x="219" y="574" on="1"/>
      </contour>
    </TTGlyph>
    <TTGlyph name="C" xMin="54" yMin="-10" xMax="638" yMax="673">
      <contour>
        <pt x="614" y="95" on="1"/>
        <pt x="555" y="50" on="0"/>
        <pt x="406" y="-10" on="0"/>
        <pt x="332" y="-10" on="1"/>
        <pt x="270" y="-10" on="0"/>
        <pt x="167" y="36" on="0"/>
        <pt x="94" y="117" on="0"/>
        <pt x="54" y="229" on="0"/>
        <pt x="54" y="295" on="1"/>
        <pt x="54" y="372" on="0"/>
        <pt x="106" y="509" on="0"/>
        <pt x="197" y="613" on="0"/>
        <pt x="320" y="673" on="0"/>
        <pt x="391" y="673" on="1"/>
        <pt x="437" y="673" on="0"/>
        <pt x="517" y="642" on="0"/>
        <pt x="580" y="590" on="0"/>
        <pt x="626" y="520" on="0"/>
        <pt x="638" y="480" on="1"/>
        <pt x="562" y="443" on="1"/>
        <pt x="510" y="498" on="1"/>
        <pt x="492" y="517" on="0"/>
        <pt x="461" y="545" on="0"/>
        <pt x="430" y="564" on="0"/>
        <pt x="396" y="574" on="0"/>
        <pt x="375" y="574" on="1"/>
        <pt x="332" y="574" on="0"/>
        <pt x="254" y="536" on="0"/>
        <pt x="194" y="466" on="0"/>
        <pt x="159" y="363" on="0"/>
        <pt x="159" y="299" on="1"/>
        <pt x="159" y="202" on="0"/>
        <pt x="254" y="89" on="0"/>
        <pt x="347" y="89" on="1"/>
        <pt x="379" y="89" on="0"/>
        <pt x="450" y="107" on="0"/>
        <pt x="495" y="123" on="1"/>
        <pt x="582" y="153" on="1"/>
      </contour>
    </TTGlyph>
    <TTGlyph name="Cacute" xMin="54" yMin="-10" xMax="638" yMax="913">
      <component glyphName="C" x="0" y="0" flags="0x204"/>
      <component glyphName="acute.cap" x="168" y="0" flags="0x4"/>
    </TTGlyph>
    <TTGlyph name="Ccaron" xMin="54" yMin="-10" xMax="638" yMax="907">
      <component glyphName="C" x="0" y="0" flags="0x204"/>
      <component glyphName="caron.cap" x="148" y="0" flags="0x4"/>
    </TTGlyph>
    <TTGlyph name="Ccedilla" xMin="54" yMin="-235" xMax="638" yMax="673">
      <contour>
        <pt x="614" y="94" on="1"/>
        <pt x="557" y="50" on="0"/>
        <pt x="414" y="-8" on="0"/>
        <pt x="342" y="-10" on="1"/>
        <pt x="337" y="-18" on="0"/>
        <pt x="329" y="-34" on="0"/>
        <pt x="329" y="-41" on="1"/>
        <pt x="329" y="-50" on="0"/>
        <pt x="359" y="-61" on="0"/>
        <pt x="394" y="-77" on="0"/>
        <pt x="424" y="-103" on="0"/>
        <pt x="424" y="-127" on="1"/>
        <pt x="424" y="-157" on="0"/>
        <pt x="388" y="-197" on="0"/>
        <pt x="334" y="-222" on="0"/>
        <pt x="269" y="-234" on="0"/>
        <pt x="240" y="-235" on="1"/>
        <pt x="236" y="-179" on="1"/>
        <pt x="296" y="-167" on="1"/>
        <pt x="319" y="-162" on="0"/>
        <pt x="337" y="-148" on="0"/>
        <pt x="337" y="-140" on="1"/>
        <pt x="337" y="-131" on="0"/>
        <pt x="309" y="-120" on="0"/>
        <pt x="276" y="-106" on="0"/>
        <pt x="248" y="-87" on="0"/>
        <pt x="248" y="-70" on="1"/>
        <pt x="248" y="-54" on="0"/>
        <pt x="270" y="-20" on="0"/>
        <pt x="284" y="-6" on="1"/>
        <pt x="232" y="2" on="0"/>
        <pt x="147" y="53" on="0"/>
        <pt x="87" y="133" on="0"/>
        <pt x="54" y="236" on="0"/>
        <pt x="54" y="295" on="1"/>
        <pt x="54" y="372" on="0"/>
        <pt x="106" y="509" on="0"/>
        <pt x="197" y="613" on="0"/>
        <pt x="320" y="673" on="0"/>
        <pt x="391" y="673" on="1"/>
        <pt x="437" y="673" on="0"/>
        <pt x="517" y="642" on="0"/>
        <pt x="580" y="590" on="0"/>
        <pt x="626" y="520" on="0"/>
        <pt x="638" y="480" on="1"/>
        <pt x="562" y="443" on="1"/>
        <pt x="510" y="498" on="1"/>
        <pt x="492" y="517" on="0"/>
        <pt x="461" y="545" on="0"/>
        <pt x="430" y="564" on="0"/>
        <pt x="396" y="573" on="0"/>
        <pt x="375" y="573" on="1"/>
        <pt x="332" y="573" on="0"/>
        <pt x="254" y="536" on="0"/>
        <pt x="194" y="465" on="0"/>
        <pt x="159" y="363" on="0"/>
        <pt x="159" y="299" on="1"/>
        <pt x="159" y="202" on="0"/>
        <pt x="254" y="90" on="0"/>
        <pt x="347" y="90" on="1"/>
        <pt x="379" y="90" on="0"/>
        <pt x="450" y="106" on="0"/>
        <pt x="495" y="122" on="1"/>
        <pt x="582" y="152" on="1"/>
      </contour>
    </TTGlyph>
    <TTGlyph name="Ccircumflex" xMin="54" yMin="-10" xMax="638" yMax="897">
      <component glyphName="C" x="0" y="0" flags="0x204"/>
      <component glyphName="circumflex.cap" x="152" y="0" flags="0x4"/>
    </TTGlyph>
    <TTGlyph name="Cdotaccent" xMin="54" yMin="-10" xMax="638" yMax="841">
      <component glyphName="C" x="0" y="0" flags="0x204"/>
      <component glyphName="dotaccent.cap" x="138" y="0" flags="0x4"/>
    </TTGlyph>
    <TTGlyph name="D" xMin="49" yMin="0" xMax="663" yMax="663">
      <contour>
        <pt x="127" y="663" on="1"/>
        <pt x="338" y="663" on="1"/>
        <pt x="423" y="663" on="0"/>
        <pt x="547" y="626" on="0"/>
        <pt x="589" y="585" on="1"/>
        <pt x="663" y="514" on="0"/>
        <pt x="663" y="384" on="1"/>
        <pt x="663" y="296" on="0"/>
        <pt x="601" y="151" on="0"/>
        <pt x="549" y="100" on="1"/>
        <pt x="498" y="50" on="0"/>
        <pt x="363" y="0" on="0"/>
        <pt x="275" y="0" on="1"/>
        <pt x="49" y="0" on="1"/>
      </contour>
      <contour>
        <pt x="163" y="91" on="1"/>
        <pt x="269" y="91" on="1"/>
        <pt x="341" y="91" on="0"/>
        <pt x="444" y="129" on="0"/>
        <pt x="479" y="164" on="1"/>
        <pt x="519" y="203" on="0"/>
        <pt x="559" y="317" on="0"/>
        <pt x="559" y="385" on="1"/>
        <pt x="559" y="477" on="0"/>
        <pt x="515" y="521" on="1"/>
        <pt x="487" y="550" on="0"/>
        <pt x="397" y="572" on="0"/>
        <pt x="337" y="572" on="1"/>
        <pt x="219" y="572" on="1"/>
      </contour>
    </TTGlyph>
    <TTGlyph name="Dcaron" xMin="49" yMin="0" xMax="663" yMax="907">
      <component glyphName="D" x="0" y="0" flags="0x204"/>
      <component glyphName="caron.cap" x="138" y="0" flags="0x4"/>
    </TTGlyph>
    <TTGlyph name="Dcroat" xMin="28" yMin="0" xMax="692" yMax="663">
      <contour>
        <pt x="113" y="298" on="1"/>
        <pt x="28" y="298" on="1"/>
        <pt x="38" y="380" on="1"/>
        <pt x="123" y="380" on="1"/>
        <pt x="156" y="663" on="1"/>
        <pt x="367" y="663" on="1"/>
        <pt x="452" y="663" on="0"/>
        <pt x="576" y="626" on="0"/>
        <pt x="618" y="585" on="1"/>
        <pt x="692" y="514" on="0"/>
        <pt x="692" y="384" on="1"/>
        <pt x="692" y="296" on="0"/>
        <pt x="630" y="151" on="0"/>
        <pt x="578" y="100" on="1"/>
        <pt x="527" y="50" on="0"/>
        <pt x="392" y="0" on="0"/>
        <pt x="304" y="0" on="1"/>
        <pt x="78" y="0" on="1"/>
      </contour>
      <contour>
        <pt x="226" y="380" on="1"/>
        <pt x="366" y="380" on="1"/>
        <pt x="356" y="298" on="1"/>
        <pt x="216" y="298" on="1"/>
        <pt x="192" y="91" on="1"/>
        <pt x="298" y="91" on="1"/>
        <pt x="370" y="91" on="0"/>
        <pt x="473" y="129" on="0"/>
        <pt x="508" y="164" on="1"/>
        <pt x="548" y="203" on="0"/>
        <pt x="588" y="317" on="0"/>
        <pt x="588" y="385" on="1"/>
        <pt x="588" y="477" on="0"/>
        <pt x="544" y="521" on="1"/>
        <pt x="516" y="550" on="0"/>
        <pt x="426" y="572" on="0"/>
        <pt x="366" y="572" on="1"/>
        <pt x="248" y="572" on="1"/>
      </contour>
    </TTGlyph>
    <TTGlyph name="Delta" xMin="14" yMin="0" xMax="591" yMax="663">
      <contour>
        <pt x="18" y="43" on="1"/>
        <pt x="19" y="59" on="0"/>
        <pt x="25" y="79" on="0"/>
        <pt x="34" y="98" on="1"/>
        <pt x="315" y="663" on="1"/>
        <pt x="412" y="663" on="1"/>
        <pt x="421" y="663" on="0"/>
        <pt x="429" y="657" on="0"/>
        <pt x="431" y="649" on="1"/>
        <pt x="585" y="108" on="1"/>
        <pt x="590" y="90" on="0"/>
        <pt x="591" y="66" on="0"/>
        <pt x="589" y="41" on="1"/>
        <pt x="585" y="0" on="1"/>
        <pt x="14" y="0" on="1"/>
      </contour>
      <contour>
        <pt x="128" y="90" on="1"/>
        <pt x="148" y="92" on="0"/>
        <pt x="206" y="93" on="0"/>
        <pt x="232" y="93" on="1"/>
        <pt x="364" y="93" on="1"/>
        <pt x="381" y="93" on="0"/>
        <pt x="419" y="92" on="0"/>
        <pt x="455" y="91" on="0"/>
        <pt x="484" y="90" on="0"/>
        <pt x="492" y="89" on="1"/>
        <pt x="485" y="109" on="0"/>
        <pt x="464" y="172" on="0"/>
        <pt x="456" y="201" on="1"/>
        <pt x="405" y="384" on="1"/>
        <pt x="389" y="440" on="0"/>
        <pt x="363" y="540" on="0"/>
        <pt x="358" y="566" on="1"/>
        <pt x="354" y="554" on="0"/>
        <pt x="336" y="511" on="0"/>
        <pt x="314" y="461" on="0"/>
        <pt x="290" y="410" on="0"/>
        <pt x="281" y="390" on="1"/>
        <pt x="186" y="191" on="1"/>
        <pt x="181" y="181" on="0"/>
        <pt x="167" y="154" on="0"/>
        <pt x="150" y="126" on="0"/>
        <pt x="134" y="99" on="0"/>
      </contour>
    </TTGlyph>
    <TTGlyph name="E" xMin="49" yMin="0" xMax="559" yMax="663">
      <contour>
        <pt x="559" y="663" on="1"/>
        <pt x="548" y="574" on="1"/>
        <pt x="219" y="574" on="1"/>
        <pt x="197" y="386" on="1"/>
        <pt x="498" y="386" on="1"/>
        <pt x="487" y="297" on="1"/>
        <pt x="187" y="297" on="1"/>
        <pt x="163" y="89" on="1"/>
        <pt x="502" y="89" on="1"/>
        <pt x="492" y="0" on="1"/>
        <pt x="49" y="0" on="1"/>
        <pt x="127" y="663" on="1"/>
      </contour>
    </TTGlyph>
    <TTGlyph name="Eacute" xMin="49" yMin="0" xMax="559" yMax="913">
      <component glyphName="E" x="0" y="0" flags="0x204"/>
      <component glyphName="acute.cap" x="111" y="0" flags="0x4"/>
    </TTGlyph>
    <TTGlyph name="Ebreve" xMin="49" yMin="0" xMax="559" yMax="882">
      <component glyphName="E" x="0" y="0" flags="0x204"/>
      <component glyphName="breve.cap" x="95" y="0" flags="0x4"/>
    </TTGlyph>
    <TTGlyph name="Ecaron" xMin="49" yMin="0" xMax="559" yMax="907">
      <component glyphName="E" x="0" y="0" flags="0x204"/>
      <component glyphName="caron.cap" x="88" y="0" flags="0x4"/>
    </TTGlyph>
    <TTGlyph name="Ecircumflex" xMin="49" yMin="0" xMax="559" yMax="897">
      <component glyphName="E" x="0" y="0" flags="0x204"/>
      <component glyphName="circumflex.cap" x="100" y="0" flags="0x4"/>
    </TTGlyph>
    <TTGlyph name="Edieresis" xMin="49" yMin="0" xMax="559" yMax="856">
      <component glyphName="E" x="0" y="0" flags="0x204"/>
      <component glyphName="dieresis.cap" x="98" y="0" flags="0x4"/>
    </TTGlyph>
    <TTGlyph name="Edotaccent" xMin="49" yMin="0" xMax="559" yMax="841">
      <component glyphName="E" x="0" y="0" flags="0x204"/>
      <component glyphName="dotaccent.cap" x="89" y="0" flags="0x4"/>
    </TTGlyph>
    <TTGlyph name="Egrave" xMin="49" yMin="0" xMax="559" yMax="918">
      <component glyphName="E" x="0" y="0" flags="0x204"/>
      <component glyphName="grave.cap" x="101" y="0" flags="0x4"/>
    </TTGlyph>
    <TTGlyph name="Emacron" xMin="49" yMin="0" xMax="559" yMax="843">
      <component glyphName="E" x="0" y="0" flags="0x204"/>
      <component glyphName="macron.cap" x="85" y="0" flags="0x4"/>
    </TTGlyph>
    <TTGlyph name="Eng" xMin="49" yMin="-228" xMax="687" yMax="663">
      <contour>
        <pt x="281" y="379" on="1"/>
        <pt x="258" y="414" on="0"/>
        <pt x="215" y="482" on="0"/>
        <pt x="204" y="503" on="1"/>
        <pt x="146" y="0" on="1"/>
        <pt x="49" y="0" on="1"/>
        <pt x="127" y="663" on="1"/>
        <pt x="194" y="663" on="1"/>
        <pt x="203" y="663" on="0"/>
        <pt x="211" y="659" on="0"/>
        <pt x="216" y="652" on="1"/>
        <pt x="454" y="284" on="1"/>
        <pt x="477" y="249" on="0"/>
        <pt x="520" y="183" on="0"/>
        <pt x="532" y="162" on="1"/>
        <pt x="590" y="663" on="1"/>
        <pt x="687" y="663" on="1"/>
        <pt x="609" y="-6" on="1"/>
        <pt x="603" y="-58" on="0"/>
        <pt x="578" y="-141" on="0"/>
        <pt x="534" y="-198" on="0"/>
        <pt x="467" y="-228" on="0"/>
        <pt x="420" y="-228" on="1"/>
        <pt x="389" y="-228" on="0"/>
        <pt x="318" y="-210" on="0"/>
        <pt x="294" y="-197" on="1"/>
        <pt x="314" y="-129" on="1"/>
        <pt x="322" y="-130" on="0"/>
        <pt x="347" y="-133" on="0"/>
        <pt x="373" y="-135" on="0"/>
        <pt x="397" y="-137" on="0"/>
        <pt x="406" y="-137" on="1"/>
        <pt x="459" y="-137" on="0"/>
        <pt x="502" y="-83" on="0"/>
        <pt x="508" y="-29" on="1"/>
        <pt x="513" y="21" on="1"/>
      </contour>
    </TTGlyph>
    <TTGlyph name="Eogonek" xMin="49" yMin="-211" xMax="559" yMax="663">
      <contour>
        <pt x="49" y="0" on="1"/>
        <pt x="127" y="663" on="1"/>
        <pt x="559" y="663" on="1"/>
        <pt x="548" y="573" on="1"/>
        <pt x="219" y="573" on="1"/>
        <pt x="197" y="386" on="1"/>
        <pt x="498" y="386" on="1"/>
        <pt x="487" y="297" on="1"/>
        <pt x="187" y="297" on="1"/>
        <pt x="163" y="89" on="1"/>
        <pt x="502" y="89" on="1"/>
        <pt x="492" y="0" on="1"/>
        <pt x="449" y="0" on="1"/>
        <pt x="425" y="0" on="0"/>
        <pt x="385" y="-21" on="0"/>
        <pt x="357" y="-51" on="0"/>
        <pt x="341" y="-86" on="0"/>
        <pt x="341" y="-101" on="1"/>
        <pt x="341" y="-119" on="0"/>
        <pt x="365" y="-140" on="0"/>
        <pt x="388" y="-140" on="1"/>
        <pt x="407" y="-140" on="0"/>
        <pt x="453" y="-132" on="1"/>
        <pt x="463" y="-185" on="1"/>
        <pt x="441" y="-197" on="0"/>
        <pt x="389" y="-211" on="0"/>
        <pt x="366" y="-211" on="1"/>
        <pt x="316" y="-211" on="0"/>
        <pt x="256" y="-158" on="0"/>
        <pt x="256" y="-120" on="1"/>
        <pt x="256" y="-98" on="0"/>
        <pt x="275" y="-58" on="0"/>
        <pt x="300" y="-27" on="0"/>
        <pt x="325" y="-5" on="0"/>
        <pt x="332" y="0" on="1"/>
      </contour>
    </TTGlyph>
    <TTGlyph name="Eth" xMin="28" yMin="0" xMax="692" yMax="663">
      <contour>
        <pt x="113" y="298" on="1"/>
        <pt x="28" y="298" on="1"/>
        <pt x="38" y="380" on="1"/>
        <pt x="123" y="380" on="1"/>
        <pt x="156" y="663" on="1"/>
        <pt x="367" y="663" on="1"/>
        <pt x="452" y="663" on="0"/>
        <pt x="576" y="626" on="0"/>
        <pt x="618" y="585" on="1"/>
        <pt x="692" y="514" on="0"/>
        <pt x="692" y="384" on="1"/>
        <pt x="692" y="296" on="0"/>
        <pt x="630" y="151" on="0"/>
        <pt x="578" y="100" on="1"/>
        <pt x="527" y="50" on="0"/>
        <pt x="392" y="0" on="0"/>
        <pt x="304" y="0" on="1"/>
        <pt x="78" y="0" on="1"/>
      </contour>
      <contour>
        <pt x="226" y="380" on="1"/>
        <pt x="366" y="380" on="1"/>
        <pt x="356" y="298" on="1"/>
        <pt x="216" y="298" on="1"/>
        <pt x="192" y="91" on="1"/>
        <pt x="298" y="91" on="1"/>
        <pt x="370" y="91" on="0"/>
        <pt x="473" y="129" on="0"/>
        <pt x="508" y="164" on="1"/>
        <pt x="548" y="203" on="0"/>
        <pt x="588" y="317" on="0"/>
        <pt x="588" y="385" on="1"/>
        <pt x="588" y="477" on="0"/>
        <pt x="544" y="521" on="1"/>
        <pt x="516" y="550" on="0"/>
        <pt x="426" y="572" on="0"/>
        <pt x="366" y="572" on="1"/>
        <pt x="248" y="572" on="1"/>
      </contour>
    </TTGlyph>
    <TTGlyph name="Euro" xMin="52" yMin="-10" xMax="612" yMax="673">
      <contour>
        <pt x="518" y="520" on="1"/>
        <pt x="497" y="537" on="0"/>
        <pt x="464" y="561" on="0"/>
        <pt x="437" y="576" on="0"/>
        <pt x="413" y="582" on="0"/>
        <pt x="400" y="582" on="1"/>
        <pt x="345" y="582" on="0"/>
        <pt x="262" y="495" on="0"/>
        <pt x="245" y="418" on="1"/>
        <pt x="444" y="418" on="1"/>
        <pt x="436" y="356" on="1"/>
        <pt x="233" y="356" on="1"/>
        <pt x="231" y="341" on="0"/>
        <pt x="229" y="312" on="0"/>
        <pt x="228" y="295" on="1"/>
        <pt x="428" y="295" on="1"/>
        <pt x="420" y="233" on="1"/>
        <pt x="226" y="233" on="1"/>
        <pt x="229" y="164" on="0"/>
        <pt x="299" y="82" on="0"/>
        <pt x="361" y="82" on="1"/>
        <pt x="389" y="82" on="0"/>
        <pt x="458" y="100" on="0"/>
        <pt x="504" y="118" on="1"/>
        <pt x="544" y="134" on="1"/>
        <pt x="575" y="86" on="1"/>
        <pt x="554" y="66" on="0"/>
        <pt x="499" y="31" on="0"/>
        <pt x="439" y="5" on="0"/>
        <pt x="377" y="-10" on="0"/>
        <pt x="348" y="-10" on="1"/>
        <pt x="298" y="-10" on="0"/>
        <pt x="217" y="25" on="0"/>
        <pt x="159" y="88" on="0"/>
        <pt x="125" y="178" on="0"/>
        <pt x="122" y="233" on="1"/>
        <pt x="52" y="233" on="1"/>
        <pt x="59" y="285" on="1"/>
        <pt x="124" y="294" on="1"/>
        <pt x="125" y="309" on="0"/>
        <pt x="127" y="340" on="0"/>
        <pt x="129" y="356" on="1"/>
        <pt x="67" y="356" on="1"/>
        <pt x="74" y="407" on="1"/>
        <pt x="142" y="416" on="1"/>
        <pt x="156" y="471" on="0"/>
        <pt x="208" y="565" on="0"/>
        <pt x="279" y="634" on="0"/>
        <pt x="365" y="673" on="0"/>
        <pt x="413" y="673" on="1"/>
        <pt x="447" y="673" on="0"/>
        <pt x="508" y="651" on="0"/>
        <pt x="559" y="613" on="0"/>
        <pt x="598" y="562" on="0"/>
        <pt x="612" y="533" on="1"/>
        <pt x="554" y="491" on="1"/>
      </contour>
    </TTGlyph>
    <TTGlyph name="Euro.lprop" xMin="44" yMin="-10" xMax="604" yMax="673">
      <component glyphName="Euro" x="-8" y="0" flags="0x4"/>
    </TTGlyph>
    <TTGlyph name="Euro.oprop" xMin="32" yMin="-8" xMax="538" yMax="496">
      <contour>
        <pt x="467" y="314" on="1"/>
        <pt x="433" y="349" on="1"/>
        <pt x="401" y="382" on="0"/>
        <pt x="361" y="406" on="0"/>
        <pt x="337" y="406" on="1"/>
        <pt x="295" y="406" on="0"/>
        <pt x="229" y="352" on="0"/>
        <pt x="215" y="308" on="1"/>
        <pt x="374" y="308" on="1"/>
        <pt x="367" y="256" on="1"/>
        <pt x="201" y="256" on="1"/>
        <pt x="200" y="248" on="0"/>
        <pt x="199" y="234" on="0"/>
        <pt x="199" y="226" on="1"/>
        <pt x="364" y="226" on="1"/>
        <pt x="357" y="175" on="1"/>
        <pt x="203" y="175" on="1"/>
        <pt x="213" y="130" on="0"/>
        <pt x="273" y="81" on="0"/>
        <pt x="323" y="81" on="1"/>
        <pt x="347" y="81" on="0"/>
        <pt x="404" y="94" on="0"/>
        <pt x="439" y="106" on="1"/>
        <pt x="496" y="126" on="1"/>
        <pt x="526" y="74" on="1"/>
        <pt x="506" y="57" on="0"/>
        <pt x="455" y="27" on="0"/>
        <pt x="399" y="5" on="0"/>
        <pt x="340" y="-8" on="0"/>
        <pt x="313" y="-8" on="1"/>
        <pt x="267" y="-8" on="0"/>
        <pt x="194" y="20" on="0"/>
        <pt x="141" y="69" on="0"/>
        <pt x="108" y="136" on="0"/>
        <pt x="103" y="175" on="1"/>
        <pt x="32" y="175" on="1"/>
        <pt x="36" y="215" on="1"/>
        <pt x="101" y="223" on="1"/>
        <pt x="101" y="239" on="0"/>
        <pt x="104" y="256" on="1"/>
        <pt x="42" y="256" on="1"/>
        <pt x="46" y="297" on="1"/>
        <pt x="114" y="306" on="1"/>
        <pt x="126" y="346" on="0"/>
        <pt x="172" y="416" on="0"/>
        <pt x="233" y="467" on="0"/>
        <pt x="310" y="496" on="0"/>
        <pt x="354" y="496" on="1"/>
        <pt x="421" y="496" on="0"/>
        <pt x="518" y="414" on="0"/>
        <pt x="538" y="345" on="1"/>
      </contour>
    </TTGlyph>
    <TTGlyph name="Euro.otab" xMin="46" yMin="-8" xMax="552" yMax="496">
      <contour>
        <pt x="481" y="314" on="1"/>
        <pt x="447" y="349" on="1"/>
        <pt x="415" y="382" on="0"/>
        <pt x="375" y="406" on="0"/>
        <pt x="351" y="406" on="1"/>
        <pt x="309" y="406" on="0"/>
        <pt x="243" y="352" on="0"/>
        <pt x="229" y="308" on="1"/>
        <pt x="388" y="308" on="1"/>
        <pt x="381" y="256" on="1"/>
        <pt x="215" y="256" on="1"/>
        <pt x="214" y="248" on="0"/>
        <pt x="213" y="234" on="0"/>
        <pt x="213" y="226" on="1"/>
        <pt x="378" y="226" on="1"/>
        <pt x="371" y="175" on="1"/>
        <pt x="217" y="175" on="1"/>
        <pt x="227" y="130" on="0"/>
        <pt x="287" y="81" on="0"/>
        <pt x="337" y="81" on="1"/>
        <pt x="361" y="81" on="0"/>
        <pt x="418" y="94" on="0"/>
        <pt x="453" y="106" on="1"/>
        <pt x="510" y="126" on="1"/>
        <pt x="540" y="74" on="1"/>
        <pt x="520" y="57" on="0"/>
        <pt x="469" y="27" on="0"/>
        <pt x="413" y="5" on="0"/>
        <pt x="354" y="-8" on="0"/>
        <pt x="327" y="-8" on="1"/>
        <pt x="281" y="-8" on="0"/>
        <pt x="208" y="20" on="0"/>
        <pt x="155" y="69" on="0"/>
        <pt x="122" y="136" on="0"/>
        <pt x="117" y="175" on="1"/>
        <pt x="46" y="175" on="1"/>
        <pt x="50" y="215" on="1"/>
        <pt x="115" y="223" on="1"/>
        <pt x="115" y="239" on="0"/>
        <pt x="118" y="256" on="1"/>
        <pt x="56" y="256" on="1"/>
        <pt x="60" y="297" on="1"/>
        <pt x="128" y="306" on="1"/>
        <pt x="140" y="346" on="0"/>
        <pt x="186" y="416" on="0"/>
        <pt x="247" y="467" on="0"/>
        <pt x="324" y="496" on="0"/>
        <pt x="368" y="496" on="1"/>
        <pt x="435" y="496" on="0"/>
        <pt x="532" y="414" on="0"/>
        <pt x="552" y="345" on="1"/>
      </contour>
    </TTGlyph>
    <TTGlyph name="F" xMin="49" yMin="0" xMax="557" yMax="663">
      <contour>
        <pt x="557" y="663" on="1"/>
        <pt x="546" y="574" on="1"/>
        <pt x="219" y="574" on="1"/>
        <pt x="197" y="386" on="1"/>
        <pt x="495" y="386" on="1"/>
        <pt x="484" y="297" on="1"/>
        <pt x="187" y="297" on="1"/>
        <pt x="152" y="0" on="1"/>
        <pt x="49" y="0" on="1"/>
        <pt x="127" y="663" on="1"/>
      </contour>
    </TTGlyph>
    <TTGlyph name="G" xMin="54" yMin="-10" xMax="664" yMax="673">
      <contour>
        <pt x="585" y="451" on="1"/>
        <pt x="531" y="505" on="1"/>
        <pt x="494" y="542" on="0"/>
        <pt x="429" y="575" on="0"/>
        <pt x="383" y="575" on="1"/>
        <pt x="337" y="575" on="0"/>
        <pt x="256" y="537" on="0"/>
        <pt x="195" y="465" on="0"/>
        <pt x="159" y="362" on="0"/>
        <pt x="159" y="297" on="1"/>
        <pt x="159" y="200" on="0"/>
        <pt x="257" y="88" on="0"/>
        <pt x="348" y="88" on="1"/>
        <pt x="368" y="88" on="0"/>
        <pt x="415" y="95" on="0"/>
        <pt x="462" y="107" on="0"/>
        <pt x="508" y="124" on="0"/>
        <pt x="527" y="133" on="1"/>
        <pt x="538" y="138" on="0"/>
        <pt x="541" y="146" on="0"/>
        <pt x="543" y="156" on="1"/>
        <pt x="555" y="259" on="1"/>
        <pt x="425" y="259" on="1"/>
        <pt x="435" y="342" on="1"/>
        <pt x="649" y="342" on="1"/>
        <pt x="664" y="342" on="0"/>
        <pt x="663" y="328" on="1"/>
        <pt x="624" y="0" on="1"/>
        <pt x="556" y="0" on="1"/>
        <pt x="540" y="58" on="1"/>
        <pt x="508" y="42" on="1"/>
        <pt x="452" y="14" on="0"/>
        <pt x="369" y="-10" on="0"/>
        <pt x="327" y="-10" on="1"/>
        <pt x="269" y="-10" on="0"/>
        <pt x="169" y="35" on="0"/>
        <pt x="96" y="115" on="0"/>
        <pt x="54" y="227" on="0"/>
        <pt x="54" y="295" on="1"/>
        <pt x="54" y="368" on="0"/>
        <pt x="105" y="504" on="0"/>
        <pt x="196" y="609" on="0"/>
        <pt x="323" y="673" on="0"/>
        <pt x="400" y="673" on="1"/>
        <pt x="445" y="673" on="0"/>
        <pt x="525" y="647" on="0"/>
        <pt x="591" y="599" on="0"/>
        <pt x="641" y="533" on="0"/>
        <pt x="657" y="494" on="1"/>
      </contour>
    </TTGlyph>
    <TTGlyph name="Gbreve" xMin="54" yMin="-10" xMax="664" yMax="882">
      <component glyphName="G" x="0" y="0" flags="0x204"/>
      <component glyphName="breve.cap" x="162" y="0" flags="0x4"/>
    </TTGlyph>
    <TTGlyph name="Gcircumflex" xMin="54" yMin="-10" xMax="664" yMax="897">
      <component glyphName="G" x="0" y="0" flags="0x204"/>
      <component glyphName="circumflex.cap" x="157" y="0" flags="0x4"/>
    </TTGlyph>
    <TTGlyph name="Gcommaaccent" xMin="54" yMin="-276" xMax="664" yMax="673">
      <component glyphName="G" x="0" y="0" flags="0x204"/>
      <component glyphName="commaaccent" x="159" y="0" flags="0x4"/>
    </TTGlyph>
    <TTGlyph name="Gdotaccent" xMin="54" yMin="-10" xMax="664" yMax="841">
      <component glyphName="G" x="0" y="0" flags="0x204"/>
      <component glyphName="dotaccent.cap" x="147" y="0" flags="0x4"/>
    </TTGlyph>
    <TTGlyph name="H" xMin="49" yMin="0" xMax="668" yMax="663">
      <contour>
        <pt x="522" y="297" on="1"/>
        <pt x="187" y="297" on="1"/>
        <pt x="152" y="0" on="1"/>
        <pt x="49" y="0" on="1"/>
        <pt x="127" y="663" on="1"/>
        <pt x="230" y="663" on="1"/>
        <pt x="198" y="389" on="1"/>
        <pt x="533" y="389" on="1"/>
        <pt x="565" y="663" on="1"/>
        <pt x="668" y="663" on="1"/>
        <pt x="590" y="0" on="1"/>
        <pt x="487" y="0" on="1"/>
      </contour>
    </TTGlyph>
    <TTGlyph name="Hbar" xMin="44" yMin="0" xMax="741" yMax="663">
      <contour>
        <pt x="532" y="297" on="1"/>
        <pt x="197" y="297" on="1"/>
        <pt x="162" y="0" on="1"/>
        <pt x="59" y="0" on="1"/>
        <pt x="117" y="492" on="1"/>
        <pt x="44" y="492" on="1"/>
        <pt x="54" y="569" on="1"/>
        <pt x="126" y="569" on="1"/>
        <pt x="137" y="663" on="1"/>
        <pt x="240" y="663" on="1"/>
        <pt x="229" y="569" on="1"/>
        <pt x="564" y="569" on="1"/>
        <pt x="575" y="663" on="1"/>
        <pt x="678" y="663" on="1"/>
        <pt x="667" y="569" on="1"/>
        <pt x="741" y="569" on="1"/>
        <pt x="732" y="492" on="1"/>
        <pt x="658" y="492" on="1"/>
        <pt x="600" y="0" on="1"/>
        <pt x="497" y="0" on="1"/>
      </contour>
      <contour>
        <pt x="543" y="389" on="1"/>
        <pt x="555" y="492" on="1"/>
        <pt x="220" y="492" on="1"/>
        <pt x="208" y="389" on="1"/>
      </contour>
    </TTGlyph>
    <TTGlyph name="Hcircumflex" xMin="49" yMin="0" xMax="668" yMax="897">
      <component glyphName="H" x="0" y="0" flags="0x204"/>
      <component glyphName="circumflex.cap" x="154" y="0" flags="0x4"/>
    </TTGlyph>
    <TTGlyph name="I" xMin="51" yMin="0" xMax="232" yMax="663">
      <contour>
        <pt x="129" y="663" on="1"/>
        <pt x="232" y="663" on="1"/>
        <pt x="154" y="0" on="1"/>
        <pt x="51" y="0" on="1"/>
      </contour>
    </TTGlyph>
    <TTGlyph name="IJ" xMin="51" yMin="-10" xMax="726" yMax="663">
      <component glyphName="I" x="0" y="0" flags="0x4"/>
      <component glyphName="J" x="262" y="0" flags="0x4"/>
    </TTGlyph>
    <TTGlyph name="Iacute" xMin="51" yMin="0" xMax="344" yMax="913">
      <component glyphName="I" x="0" y="0" flags="0x4"/>
      <component glyphName="acute.cap" x="-43" y="0" flags="0x4"/>
    </TTGlyph>
    <TTGlyph name="Ibreve" xMin="49" yMin="0" xMax="355" yMax="882">
      <component glyphName="I" x="0" y="0" flags="0x4"/>
      <component glyphName="breve.cap" x="-67" y="0" flags="0x4"/>
    </TTGlyph>
    <TTGlyph name="Icircumflex" xMin="32" yMin="0" xMax="360" yMax="897">
      <component glyphName="I" x="0" y="0" flags="0x4"/>
      <component glyphName="circumflex.cap" x="-59" y="0" flags="0x4"/>
    </TTGlyph>
    <TTGlyph name="Idieresis" xMin="51" yMin="0" xMax="351" yMax="856">
      <component glyphName="I" x="0" y="0" flags="0x4"/>
      <component glyphName="dieresis.cap" x="-56" y="0" flags="0x4"/>
    </TTGlyph>
    <TTGlyph name="Idotaccent" xMin="51" yMin="0" xMax="260" yMax="841">
      <component glyphName="I" x="0" y="0" flags="0x4"/>
      <component glyphName="dotaccent.cap" x="-73" y="0" flags="0x4"/>
    </TTGlyph>
    <TTGlyph name="Igrave" xMin="51" yMin="0" xMax="289" yMax="918">
      <component glyphName="I" x="0" y="0" flags="0x4"/>
      <component glyphName="grave.cap" x="-74" y="0" flags="0x4"/>
    </TTGlyph>
    <TTGlyph name="Imacron" xMin="49" yMin="0" xMax="353" yMax="843">
      <component glyphName="I" x="0" y="0" flags="0x4"/>
      <component glyphName="macron.cap" x="-63" y="0" flags="0x4"/>
    </TTGlyph>
    <TTGlyph name="Iogonek" xMin="-26" yMin="-211" xMax="234" yMax="663">
      <contour>
        <pt x="143" y="0" on="1"/>
        <pt x="127" y="0" on="0"/>
        <pt x="97" y="-21" on="0"/>
        <pt x="73" y="-53" on="0"/>
        <pt x="59" y="-88" on="0"/>
        <pt x="59" y="-101" on="1"/>
        <pt x="59" y="-119" on="0"/>
        <pt x="83" y="-140" on="0"/>
        <pt x="106" y="-140" on="1"/>
        <pt x="120" y="-140" on="0"/>
        <pt x="154" y="-135" on="0"/>
        <pt x="171" y="-132" on="1"/>
        <pt x="181" y="-185" on="1"/>
        <pt x="158" y="-197" on="0"/>
        <pt x="107" y="-211" on="0"/>
        <pt x="84" y="-211" on="1"/>
        <pt x="33" y="-211" on="0"/>
        <pt x="-26" y="-158" on="0"/>
        <pt x="-26" y="-120" on="1"/>
        <pt x="-26" y="-87" on="0"/>
        <pt x="14" y="-28" on="0"/>
        <pt x="49" y="0" on="1"/>
        <pt x="127" y="663" on="1"/>
        <pt x="234" y="663" on="1"/>
        <pt x="156" y="0" on="1"/>
      </contour>
    </TTGlyph>
    <TTGlyph name="Itilde" xMin="25" yMin="0" xMax="369" yMax="863">
      <component glyphName="I" x="0" y="0" flags="0x4"/>
      <component glyphName="tilde.cap" x="-67" y="0" flags="0x4"/>
    </TTGlyph>
    <TTGlyph name="J" xMin="2" yMin="-10" xMax="464" yMax="663">
      <contour>
        <pt x="23" y="104" on="1"/>
        <pt x="66" y="96" on="1"/>
        <pt x="102" y="89" on="0"/>
        <pt x="163" y="82" on="0"/>
        <pt x="188" y="82" on="1"/>
        <pt x="219" y="82" on="0"/>
        <pt x="260" y="98" on="0"/>
        <pt x="274" y="113" on="1"/>
        <pt x="288" y="127" on="0"/>
        <pt x="304" y="176" on="0"/>
        <pt x="308" y="208" on="1"/>
        <pt x="361" y="663" on="1"/>
        <pt x="464" y="663" on="1"/>
        <pt x="409" y="198" on="1"/>
        <pt x="402" y="143" on="0"/>
        <pt x="370" y="69" on="0"/>
        <pt x="343" y="43" on="1"/>
        <pt x="316" y="17" on="0"/>
        <pt x="244" y="-10" on="0"/>
        <pt x="196" y="-10" on="1"/>
        <pt x="145" y="-10" on="0"/>
        <pt x="42" y="22" on="0"/>
        <pt x="2" y="45" on="1"/>
      </contour>
    </TTGlyph>
    <TTGlyph name="Jcircumflex" xMin="2" yMin="-10" xMax="586" yMax="897">
      <component glyphName="J" x="0" y="0" flags="0x204"/>
      <component glyphName="circumflex.cap" x="167" y="0" flags="0x4"/>
    </TTGlyph>
    <TTGlyph name="K" xMin="49" yMin="0" xMax="638" yMax="669">
      <contour>
        <pt x="49" y="0" on="1"/>
        <pt x="127" y="663" on="1"/>
        <pt x="230" y="663" on="1"/>
        <pt x="194" y="353" on="1"/>
        <pt x="584" y="669" on="1"/>
        <pt x="638" y="605" on="1"/>
        <pt x="365" y="385" on="1"/>
        <pt x="588" y="0" on="1"/>
        <pt x="488" y="0" on="1"/>
        <pt x="479" y="0" on="0"/>
        <pt x="470" y="3" on="0"/>
        <pt x="466" y="10" on="1"/>
        <pt x="288" y="324" on="1"/>
        <pt x="277" y="316" on="0"/>
        <pt x="249" y="295" on="0"/>
        <pt x="220" y="276" on="0"/>
        <pt x="192" y="259" on="0"/>
        <pt x="182" y="254" on="1"/>
        <pt x="152" y="0" on="1"/>
      </contour>
    </TTGlyph>
    <TTGlyph name="Kcommaaccent" xMin="49" yMin="-276" xMax="638" yMax="669">
      <component glyphName="K" x="0" y="0" flags="0x204"/>
      <component glyphName="commaaccent" x="115" y="0" flags="0x4"/>
    </TTGlyph>
    <TTGlyph name="L" xMin="49" yMin="0" xMax="478" yMax="663">
      <contour>
        <pt x="163" y="89" on="1"/>
        <pt x="478" y="89" on="1"/>
        <pt x="468" y="0" on="1"/>
        <pt x="49" y="0" on="1"/>
        <pt x="127" y="663" on="1"/>
        <pt x="230" y="663" on="1"/>
      </contour>
    </TTGlyph>
    <TTGlyph name="Lacute" xMin="49" yMin="0" xMax="478" yMax="913">
      <component glyphName="L" x="0" y="0" flags="0x4"/>
      <component glyphName="acute.cap" x="-26" y="0" flags="0x4"/>
    </TTGlyph>
    <TTGlyph name="Lcaron" xMin="49" yMin="0" xMax="478" yMax="663">
      <component glyphName="L" x="0" y="0" flags="0x4"/>
      <component glyphName="commaaccent" x="219" y="721" flags="0x4"/>
    </TTGlyph>
    <TTGlyph name="Lcommaaccent" xMin="49" yMin="-276" xMax="478" yMax="663">
      <component glyphName="L" x="0" y="0" flags="0x4"/>
      <component glyphName="commaaccent" x="92" y="0" flags="0x4"/>
    </TTGlyph>
    <TTGlyph name="Ldot" xMin="49" yMin="0" xMax="481" yMax="663">
      <component glyphName="L" x="0" y="0" flags="0x4"/>
      <component glyphName="dotaccent" x="197" y="-254" flags="0x4"/>
    </TTGlyph>
    <TTGlyph name="Lslash" xMin="-1" yMin="0" xMax="520" yMax="663">
      <contour>
        <pt x="232" y="314" on="1"/>
        <pt x="205" y="89" on="1"/>
        <pt x="520" y="89" on="1"/>
        <pt x="510" y="0" on="1"/>
        <pt x="91" y="0" on="1"/>
        <pt x="121" y="252" on="1"/>
        <pt x="44" y="202" on="1"/>
        <pt x="-1" y="271" on="1"/>
        <pt x="133" y="355" on="1"/>
        <pt x="169" y="663" on="1"/>
        <pt x="272" y="663" on="1"/>
        <pt x="243" y="419" on="1"/>
        <pt x="400" y="517" on="1"/>
        <pt x="446" y="447" on="1"/>
      </contour>
    </TTGlyph>
    <TTGlyph name="M" xMin="49" yMin="0" xMax="794" yMax="663">
      <contour>
        <pt x="794" y="663" on="1"/>
        <pt x="716" y="0" on="1"/>
        <pt x="615" y="0" on="1"/>
        <pt x="674" y="501" on="1"/>
        <pt x="673" y="501" on="1"/>
        <pt x="438" y="230" on="1"/>
        <pt x="385" y="230" on="1"/>
        <pt x="377" y="230" on="0"/>
        <pt x="369" y="234" on="0"/>
        <pt x="364" y="241" on="1"/>
        <pt x="208" y="501" on="1"/>
        <pt x="207" y="501" on="1"/>
        <pt x="148" y="0" on="1"/>
        <pt x="49" y="0" on="1"/>
        <pt x="127" y="663" on="1"/>
        <pt x="204" y="663" on="1"/>
        <pt x="213" y="663" on="0"/>
        <pt x="222" y="658" on="0"/>
        <pt x="227" y="650" on="1"/>
        <pt x="415" y="340" on="1"/>
        <pt x="417" y="340" on="1"/>
        <pt x="689" y="650" on="1"/>
        <pt x="696" y="658" on="0"/>
        <pt x="706" y="663" on="0"/>
        <pt x="716" y="663" on="1"/>
      </contour>
    </TTGlyph>
    <TTGlyph name="N" xMin="49" yMin="0" xMax="691" yMax="663">
      <contour>
        <pt x="148" y="0" on="1"/>
        <pt x="49" y="0" on="1"/>
        <pt x="127" y="663" on="1"/>
        <pt x="196" y="663" on="1"/>
        <pt x="205" y="663" on="0"/>
        <pt x="213" y="659" on="0"/>
        <pt x="218" y="652" on="1"/>
        <pt x="446" y="298" on="1"/>
        <pt x="474" y="255" on="0"/>
        <pt x="520" y="179" on="0"/>
        <pt x="533" y="156" on="1"/>
        <pt x="592" y="663" on="1"/>
        <pt x="691" y="663" on="1"/>
        <pt x="613" y="0" on="1"/>
        <pt x="543" y="0" on="1"/>
        <pt x="534" y="0" on="0"/>
        <pt x="526" y="4" on="0"/>
        <pt x="521" y="11" on="1"/>
        <pt x="293" y="365" on="1"/>
        <pt x="266" y="407" on="0"/>
        <pt x="219" y="486" on="0"/>
        <pt x="207" y="510" on="1"/>
      </contour>
    </TTGlyph>
    <TTGlyph name="Nacute" xMin="47" yMin="0" xMax="689" yMax="913">
      <component glyphName="N" x="-2" y="0" flags="0x4"/>
      <component glyphName="acute.cap" x="182" y="0" flags="0x4"/>
    </TTGlyph>
    <TTGlyph name="Ncaron" xMin="47" yMin="0" xMax="689" yMax="907">
      <component glyphName="N" x="-2" y="0" flags="0x4"/>
      <component glyphName="caron.cap" x="149" y="0" flags="0x4"/>
    </TTGlyph>
    <TTGlyph name="Ncommaaccent" xMin="47" yMin="-276" xMax="689" yMax="663">
      <component glyphName="N" x="-2" y="0" flags="0x4"/>
      <component glyphName="commaaccent" x="156" y="0" flags="0x4"/>
    </TTGlyph>
    <TTGlyph name="Ntilde" xMin="47" yMin="0" xMax="689" yMax="863">
      <component glyphName="N" x="-2" y="0" flags="0x4"/>
      <component glyphName="tilde.cap" x="163" y="0" flags="0x4"/>
    </TTGlyph>
    <TTGlyph name="O" xMin="54" yMin="-10" xMax="688" yMax="673">
      <contour>
        <pt x="688" y="366" on="1"/>
        <pt x="688" y="291" on="0"/>
        <pt x="637" y="154" on="0"/>
        <pt x="545" y="51" on="0"/>
        <pt x="420" y="-10" on="0"/>
        <pt x="346" y="-10" on="1"/>
        <pt x="284" y="-10" on="0"/>
        <pt x="177" y="35" on="0"/>
        <pt x="99" y="116" on="0"/>
        <pt x="54" y="229" on="0"/>
        <pt x="54" y="296" on="1"/>
        <pt x="54" y="371" on="0"/>
        <pt x="105" y="508" on="0"/>
        <pt x="197" y="612" on="0"/>
        <pt x="322" y="673" on="0"/>
        <pt x="396" y="673" on="1"/>
        <pt x="458" y="673" on="0"/>
        <pt x="565" y="627" on="0"/>
        <pt x="643" y="546" on="0"/>
        <pt x="688" y="433" on="0"/>
      </contour>
      <contour>
        <pt x="583" y="357" on="1"/>
        <pt x="583" y="402" on="0"/>
        <pt x="558" y="481" on="0"/>
        <pt x="510" y="539" on="0"/>
        <pt x="438" y="573" on="0"/>
        <pt x="392" y="573" on="1"/>
        <pt x="340" y="573" on="0"/>
        <pt x="254" y="531" on="0"/>
        <pt x="193" y="459" on="0"/>
        <pt x="159" y="361" on="0"/>
        <pt x="159" y="305" on="1"/>
        <pt x="159" y="260" on="0"/>
        <pt x="184" y="182" on="0"/>
        <pt x="232" y="123" on="0"/>
        <pt x="303" y="90" on="0"/>
        <pt x="350" y="90" on="1"/>
        <pt x="402" y="90" on="0"/>
        <pt x="488" y="130" on="0"/>
        <pt x="549" y="202" on="0"/>
        <pt x="583" y="300" on="0"/>
      </contour>
    </TTGlyph>
    <TTGlyph name="OE" xMin="54" yMin="-10" xMax="1049" yMax="673">
      <contour>
        <pt x="617" y="663" on="1"/>
        <pt x="1049" y="663" on="1"/>
        <pt x="1038" y="573" on="1"/>
        <pt x="709" y="573" on="1"/>
        <pt x="687" y="386" on="1"/>
        <pt x="988" y="386" on="1"/>
        <pt x="977" y="297" on="1"/>
        <pt x="677" y="297" on="1"/>
        <pt x="653" y="89" on="1"/>
        <pt x="992" y="89" on="1"/>
        <pt x="982" y="0" on="1"/>
        <pt x="539" y="0" on="1"/>
        <pt x="549" y="83" on="1"/>
        <pt x="514" y="41" on="0"/>
        <pt x="407" y="-10" on="0"/>
        <pt x="347" y="-10" on="1"/>
        <pt x="286" y="-10" on="0"/>
        <pt x="179" y="36" on="0"/>
        <pt x="100" y="117" on="0"/>
        <pt x="54" y="229" on="0"/>
        <pt x="54" y="296" on="1"/>
        <pt x="54" y="377" on="0"/>
        <pt x="109" y="515" on="0"/>
        <pt x="202" y="616" on="0"/>
        <pt x="326" y="673" on="0"/>
        <pt x="395" y="673" on="1"/>
        <pt x="462" y="673" on="0"/>
        <pt x="573" y="609" on="0"/>
        <pt x="605" y="558" on="1"/>
      </contour>
      <contour>
        <pt x="583" y="357" on="1"/>
        <pt x="583" y="402" on="0"/>
        <pt x="557" y="481" on="0"/>
        <pt x="507" y="539" on="0"/>
        <pt x="436" y="572" on="0"/>
        <pt x="390" y="572" on="1"/>
        <pt x="338" y="572" on="0"/>
        <pt x="253" y="530" on="0"/>
        <pt x="192" y="458" on="0"/>
        <pt x="159" y="361" on="0"/>
        <pt x="159" y="305" on="1"/>
        <pt x="159" y="260" on="0"/>
        <pt x="185" y="181" on="0"/>
        <pt x="234" y="124" on="0"/>
        <pt x="306" y="91" on="0"/>
        <pt x="352" y="91" on="1"/>
        <pt x="404" y="91" on="0"/>
        <pt x="489" y="131" on="0"/>
        <pt x="550" y="203" on="0"/>
        <pt x="583" y="300" on="0"/>
      </contour>
    </TTGlyph>
    <TTGlyph name="Oacute" xMin="54" yMin="-10" xMax="688" yMax="913">
      <component glyphName="O" x="0" y="0" flags="0x204"/>
      <component glyphName="acute.cap" x="165" y="0" flags="0x4"/>
    </TTGlyph>
    <TTGlyph name="Obreve" xMin="54" yMin="-10" xMax="688" yMax="882">
      <component glyphName="O" x="0" y="0" flags="0x204"/>
      <component glyphName="breve.cap" x="157" y="0" flags="0x4"/>
    </TTGlyph>
    <TTGlyph name="Ocircumflex" xMin="54" yMin="-10" xMax="688" yMax="897">
      <component glyphName="O" x="0" y="0" flags="0x204"/>
      <component glyphName="circumflex.cap" x="163" y="0" flags="0x4"/>
    </TTGlyph>
    <TTGlyph name="Odieresis" xMin="54" yMin="-10" xMax="688" yMax="856">
      <component glyphName="O" x="0" y="0" flags="0x204"/>
      <component glyphName="dieresis.cap" x="164" y="0" flags="0x4"/>
    </TTGlyph>
    <TTGlyph name="Ograve" xMin="54" yMin="-10" xMax="688" yMax="918">
      <component glyphName="O" x="0" y="0" flags="0x204"/>
      <component glyphName="grave.cap" x="178" y="0" flags="0x4"/>
    </TTGlyph>
    <TTGlyph name="Ohungarumlaut" xMin="54" yMin="-10" xMax="688" yMax="946">
      <component glyphName="O" x="0" y="0" flags="0x204"/>
      <component glyphName="hungarumlaut.cap" x="179" y="0" flags="0x4"/>
    </TTGlyph>
    <TTGlyph name="Omacron" xMin="54" yMin="-10" xMax="688" yMax="843">
      <component glyphName="O" x="0" y="0" flags="0x204"/>
      <component glyphName="macron.cap" x="158" y="0" flags="0x4"/>
    </TTGlyph>
    <TTGlyph name="Omega" xMin="50" yMin="0" xMax="676" yMax="673">
      <contour>
        <pt x="284" y="0" on="1"/>
        <pt x="50" y="0" on="1"/>
        <pt x="60" y="84" on="1"/>
        <pt x="194" y="84" on="1"/>
        <pt x="171" y="116" on="1"/>
        <pt x="123" y="184" on="0"/>
        <pt x="66" y="307" on="0"/>
        <pt x="66" y="374" on="1"/>
        <pt x="66" y="439" on="0"/>
        <pt x="118" y="549" on="0"/>
        <pt x="205" y="628" on="0"/>
        <pt x="321" y="673" on="0"/>
        <pt x="385" y="673" on="1"/>
        <pt x="445" y="673" on="0"/>
        <pt x="551" y="634" on="0"/>
        <pt x="630" y="564" on="0"/>
        <pt x="676" y="467" on="0"/>
        <pt x="676" y="410" on="1"/>
        <pt x="676" y="336" on="0"/>
        <pt x="595" y="193" on="0"/>
        <pt x="521" y="117" on="1"/>
        <pt x="489" y="84" on="1"/>
        <pt x="619" y="84" on="1"/>
        <pt x="609" y="0" on="1"/>
        <pt x="375" y="0" on="1"/>
        <pt x="381" y="44" on="1"/>
        <pt x="383" y="55" on="0"/>
        <pt x="388" y="67" on="0"/>
        <pt x="396" y="78" on="1"/>
        <pt x="447" y="142" on="0"/>
        <pt x="515" y="232" on="0"/>
        <pt x="556" y="302" on="0"/>
        <pt x="572" y="363" on="0"/>
        <pt x="572" y="398" on="1"/>
        <pt x="572" y="439" on="0"/>
        <pt x="544" y="505" on="0"/>
        <pt x="493" y="550" on="0"/>
        <pt x="423" y="574" on="0"/>
        <pt x="381" y="574" on="1"/>
        <pt x="335" y="574" on="0"/>
        <pt x="257" y="546" on="0"/>
        <pt x="200" y="492" on="0"/>
        <pt x="167" y="414" on="0"/>
        <pt x="167" y="365" on="1"/>
        <pt x="167" y="332" on="0"/>
        <pt x="180" y="272" on="0"/>
        <pt x="207" y="207" on="0"/>
        <pt x="248" y="134" on="0"/>
        <pt x="276" y="88" on="1"/>
        <pt x="287" y="69" on="0"/>
        <pt x="292" y="54" on="0"/>
        <pt x="290" y="41" on="1"/>
      </contour>
    </TTGlyph>
    <TTGlyph name="Oslash" xMin="34" yMin="-47" xMax="711" yMax="713">
      <contour>
        <pt x="688" y="366" on="1"/>
        <pt x="688" y="291" on="0"/>
        <pt x="637" y="154" on="0"/>
        <pt x="547" y="51" on="0"/>
        <pt x="422" y="-10" on="0"/>
        <pt x="348" y="-10" on="1"/>
        <pt x="298" y="-10" on="0"/>
        <pt x="209" y="19" on="0"/>
        <pt x="173" y="46" on="1"/>
        <pt x="92" y="-47" on="1"/>
        <pt x="34" y="3" on="1"/>
        <pt x="118" y="100" on="1"/>
        <pt x="88" y="139" on="0"/>
        <pt x="54" y="238" on="0"/>
        <pt x="54" y="296" on="1"/>
        <pt x="54" y="371" on="0"/>
        <pt x="105" y="508" on="0"/>
        <pt x="195" y="612" on="0"/>
        <pt x="320" y="673" on="0"/>
        <pt x="394" y="673" on="1"/>
        <pt x="444" y="673" on="0"/>
        <pt x="532" y="643" on="0"/>
        <pt x="569" y="616" on="1"/>
        <pt x="653" y="713" on="1"/>
        <pt x="711" y="663" on="1"/>
        <pt x="623" y="562" on="1"/>
        <pt x="654" y="523" on="0"/>
        <pt x="688" y="424" on="0"/>
      </contour>
      <contour>
        <pt x="583" y="357" on="1"/>
        <pt x="583" y="391" on="0"/>
        <pt x="567" y="456" on="0"/>
        <pt x="552" y="482" on="1"/>
        <pt x="241" y="124" on="1"/>
        <pt x="263" y="109" on="0"/>
        <pt x="319" y="91" on="0"/>
        <pt x="352" y="91" on="1"/>
        <pt x="404" y="91" on="0"/>
        <pt x="489" y="131" on="0"/>
        <pt x="550" y="203" on="0"/>
        <pt x="583" y="300" on="0"/>
      </contour>
      <contour>
        <pt x="159" y="305" on="1"/>
        <pt x="159" y="271" on="0"/>
        <pt x="174" y="207" on="0"/>
        <pt x="189" y="181" on="1"/>
        <pt x="501" y="539" on="1"/>
        <pt x="479" y="555" on="0"/>
        <pt x="422" y="572" on="0"/>
        <pt x="390" y="572" on="1"/>
        <pt x="338" y="572" on="0"/>
        <pt x="253" y="530" on="0"/>
        <pt x="192" y="458" on="0"/>
        <pt x="159" y="361" on="0"/>
      </contour>
    </TTGlyph>
    <TTGlyph name="Oslashacute" xMin="34" yMin="-47" xMax="711" yMax="913">
      <component glyphName="Oslash" x="0" y="0" flags="0x204"/>
      <component glyphName="acute.cap" x="185" y="0" flags="0x4"/>
    </TTGlyph>
    <TTGlyph name="Otilde" xMin="54" yMin="-10" xMax="688" yMax="863">
      <component glyphName="O" x="0" y="0" flags="0x204"/>
      <component glyphName="tilde.cap" x="160" y="0" flags="0x4"/>
    </TTGlyph>
    <TTGlyph name="P" xMin="49" yMin="0" xMax="592" yMax="663">
      <contour>
        <pt x="152" y="0" on="1"/>
        <pt x="49" y="0" on="1"/>
        <pt x="127" y="663" on="1"/>
        <pt x="347" y="663" on="1"/>
        <pt x="413" y="663" on="0"/>
        <pt x="511" y="637" on="0"/>
        <pt x="543" y="608" on="1"/>
        <pt x="592" y="562" on="0"/>
        <pt x="592" y="474" on="1"/>
        <pt x="592" y="420" on="0"/>
        <pt x="548" y="311" on="0"/>
        <pt x="506" y="272" on="1"/>
        <pt x="476" y="244" on="0"/>
        <pt x="402" y="223" on="0"/>
        <pt x="340" y="223" on="1"/>
        <pt x="178" y="223" on="1"/>
      </contour>
      <contour>
        <pt x="189" y="311" on="1"/>
        <pt x="378" y="311" on="1"/>
        <pt x="405" y="311" on="0"/>
        <pt x="436" y="326" on="0"/>
        <pt x="448" y="342" on="1"/>
        <pt x="467" y="366" on="0"/>
        <pt x="487" y="437" on="0"/>
        <pt x="487" y="469" on="1"/>
        <pt x="487" y="523" on="0"/>
        <pt x="462" y="547" on="1"/>
        <pt x="447" y="561" on="0"/>
        <pt x="393" y="573" on="0"/>
        <pt x="350" y="573" on="1"/>
        <pt x="219" y="573" on="1"/>
      </contour>
    </TTGlyph>
    <TTGlyph name="Q" xMin="54" yMin="-189" xMax="688" yMax="673">
      <contour>
        <pt x="688" y="366" on="1"/>
        <pt x="688" y="313" on="0"/>
        <pt x="662" y="212" on="0"/>
        <pt x="614" y="125" on="0"/>
        <pt x="546" y="54" on="0"/>
        <pt x="504" y="30" on="1"/>
        <pt x="627" y="-133" on="1"/>
        <pt x="527" y="-189" on="1"/>
        <pt x="412" y="-3" on="1"/>
        <pt x="397" y="-6" on="0"/>
        <pt x="365" y="-10" on="0"/>
        <pt x="348" y="-10" on="1"/>
        <pt x="286" y="-10" on="0"/>
        <pt x="179" y="35" on="0"/>
        <pt x="99" y="116" on="0"/>
        <pt x="54" y="229" on="0"/>
        <pt x="54" y="296" on="1"/>
        <pt x="54" y="371" on="0"/>
        <pt x="105" y="508" on="0"/>
        <pt x="195" y="612" on="0"/>
        <pt x="320" y="673" on="0"/>
        <pt x="394" y="673" on="1"/>
        <pt x="456" y="673" on="0"/>
        <pt x="563" y="627" on="0"/>
        <pt x="643" y="546" on="0"/>
        <pt x="688" y="433" on="0"/>
      </contour>
      <contour>
        <pt x="583" y="357" on="1"/>
        <pt x="583" y="402" on="0"/>
        <pt x="557" y="481" on="0"/>
        <pt x="507" y="539" on="0"/>
        <pt x="436" y="572" on="0"/>
        <pt x="390" y="572" on="1"/>
        <pt x="338" y="572" on="0"/>
        <pt x="253" y="530" on="0"/>
        <pt x="192" y="458" on="0"/>
        <pt x="159" y="361" on="0"/>
        <pt x="159" y="305" on="1"/>
        <pt x="159" y="260" on="0"/>
        <pt x="185" y="181" on="0"/>
        <pt x="234" y="124" on="0"/>
        <pt x="306" y="91" on="0"/>
        <pt x="352" y="91" on="1"/>
        <pt x="404" y="91" on="0"/>
        <pt x="489" y="131" on="0"/>
        <pt x="550" y="203" on="0"/>
        <pt x="583" y="300" on="0"/>
      </contour>
    </TTGlyph>
    <TTGlyph name="R" xMin="49" yMin="0" xMax="595" yMax="663">
      <contour>
        <pt x="152" y="0" on="1"/>
        <pt x="49" y="0" on="1"/>
        <pt x="127" y="663" on="1"/>
        <pt x="351" y="663" on="1"/>
        <pt x="421" y="663" on="0"/>
        <pt x="519" y="636" on="0"/>
        <pt x="549" y="605" on="1"/>
        <pt x="572" y="582" on="0"/>
        <pt x="595" y="520" on="0"/>
        <pt x="595" y="478" on="1"/>
        <pt x="595" y="409" on="0"/>
        <pt x="526" y="293" on="0"/>
        <pt x="463" y="254" on="1"/>
        <pt x="578" y="0" on="1"/>
        <pt x="478" y="0" on="1"/>
        <pt x="464" y="0" on="0"/>
        <pt x="459" y="12" on="1"/>
        <pt x="367" y="224" on="1"/>
        <pt x="363" y="233" on="0"/>
        <pt x="355" y="237" on="0"/>
        <pt x="345" y="237" on="1"/>
        <pt x="179" y="237" on="1"/>
      </contour>
      <contour>
        <pt x="386" y="325" on="1"/>
        <pt x="411" y="325" on="0"/>
        <pt x="439" y="338" on="0"/>
        <pt x="451" y="353" on="1"/>
        <pt x="469" y="376" on="0"/>
        <pt x="490" y="439" on="0"/>
        <pt x="490" y="474" on="1"/>
        <pt x="490" y="528" on="0"/>
        <pt x="464" y="550" on="1"/>
        <pt x="447" y="564" on="0"/>
        <pt x="394" y="573" on="0"/>
        <pt x="354" y="573" on="1"/>
        <pt x="219" y="573" on="1"/>
        <pt x="189" y="325" on="1"/>
      </contour>
    </TTGlyph>
    <TTGlyph name="Racute" xMin="49" yMin="0" xMax="595" yMax="913">
      <component glyphName="R" x="0" y="0" flags="0x204"/>
      <component glyphName="acute.cap" x="131" y="0" flags="0x4"/>
    </TTGlyph>
    <TTGlyph name="Rcaron" xMin="49" yMin="0" xMax="595" yMax="907">
      <component glyphName="R" x="0" y="0" flags="0x204"/>
      <component glyphName="caron.cap" x="103" y="0" flags="0x4"/>
    </TTGlyph>
    <TTGlyph name="Rcommaaccent" xMin="49" yMin="-276" xMax="595" yMax="663">
      <component glyphName="R" x="0" y="0" flags="0x204"/>
      <component glyphName="commaaccent" x="128" y="0" flags="0x4"/>
    </TTGlyph>
    <TTGlyph name="S" xMin="18" yMin="-10" xMax="510" yMax="673">
      <contour>
        <pt x="496" y="573" on="1"/>
        <pt x="434" y="577" on="1"/>
        <pt x="401" y="579" on="0"/>
        <pt x="333" y="582" on="0"/>
        <pt x="310" y="582" on="1"/>
        <pt x="243" y="582" on="0"/>
        <pt x="166" y="549" on="0"/>
        <pt x="166" y="509" on="1"/>
        <pt x="166" y="493" on="0"/>
        <pt x="180" y="469" on="0"/>
        <pt x="208" y="448" on="0"/>
        <pt x="253" y="426" on="0"/>
        <pt x="283" y="412" on="1"/>
        <pt x="318" y="396" on="1"/>
        <pt x="367" y="374" on="0"/>
        <pt x="438" y="334" on="0"/>
        <pt x="484" y="290" on="0"/>
        <pt x="506" y="236" on="0"/>
        <pt x="506" y="200" on="1"/>
        <pt x="506" y="153" on="0"/>
        <pt x="471" y="75" on="0"/>
        <pt x="407" y="20" on="0"/>
        <pt x="316" y="-10" on="0"/>
        <pt x="260" y="-10" on="1"/>
        <pt x="231" y="-10" on="0"/>
        <pt x="167" y="-1" on="0"/>
        <pt x="103" y="14" on="0"/>
        <pt x="43" y="36" on="0"/>
        <pt x="18" y="48" on="1"/>
        <pt x="43" y="112" on="1"/>
        <pt x="106" y="100" on="1"/>
        <pt x="160" y="89" on="0"/>
        <pt x="237" y="81" on="0"/>
        <pt x="262" y="81" on="1"/>
        <pt x="333" y="81" on="0"/>
        <pt x="407" y="143" on="0"/>
        <pt x="407" y="193" on="1"/>
        <pt x="407" y="214" on="0"/>
        <pt x="394" y="243" on="0"/>
        <pt x="365" y="268" on="0"/>
        <pt x="322" y="290" on="0"/>
        <pt x="292" y="304" on="1"/>
        <pt x="250" y="323" on="1"/>
        <pt x="209" y="342" on="0"/>
        <pt x="142" y="378" on="0"/>
        <pt x="94" y="420" on="0"/>
        <pt x="68" y="472" on="0"/>
        <pt x="68" y="507" on="1"/>
        <pt x="68" y="544" on="0"/>
        <pt x="102" y="606" on="0"/>
        <pt x="166" y="649" on="0"/>
        <pt x="256" y="673" on="0"/>
        <pt x="313" y="673" on="1"/>
        <pt x="357" y="673" on="0"/>
        <pt x="462" y="656" on="0"/>
        <pt x="510" y="639" on="1"/>
      </contour>
    </TTGlyph>
    <TTGlyph name="Sacute" xMin="18" yMin="-10" xMax="510" yMax="913">
      <component glyphName="S" x="0" y="0" flags="0x204"/>
      <component glyphName="acute.cap" x="82" y="0" flags="0x4"/>
    </TTGlyph>
    <TTGlyph name="Scaron" xMin="18" yMin="-10" xMax="510" yMax="907">
      <component glyphName="S" x="0" y="0" flags="0x204"/>
      <component glyphName="caron.cap" x="66" y="0" flags="0x4"/>
    </TTGlyph>
    <TTGlyph name="Scedilla" xMin="18" yMin="-235" xMax="510" yMax="673">
      <contour>
        <pt x="496" y="573" on="1"/>
        <pt x="434" y="577" on="1"/>
        <pt x="401" y="579" on="0"/>
        <pt x="333" y="582" on="0"/>
        <pt x="310" y="582" on="1"/>
        <pt x="243" y="582" on="0"/>
        <pt x="166" y="549" on="0"/>
        <pt x="166" y="509" on="1"/>
        <pt x="166" y="493" on="0"/>
        <pt x="180" y="469" on="0"/>
        <pt x="208" y="448" on="0"/>
        <pt x="253" y="426" on="0"/>
        <pt x="283" y="412" on="1"/>
        <pt x="318" y="396" on="1"/>
        <pt x="367" y="374" on="0"/>
        <pt x="438" y="334" on="0"/>
        <pt x="484" y="290" on="0"/>
        <pt x="506" y="236" on="0"/>
        <pt x="506" y="200" on="1"/>
        <pt x="506" y="154" on="0"/>
        <pt x="473" y="79" on="0"/>
        <pt x="412" y="24" on="0"/>
        <pt x="326" y="-8" on="0"/>
        <pt x="273" y="-10" on="1"/>
        <pt x="261" y="-27" on="0"/>
        <pt x="261" y="-41" on="1"/>
        <pt x="261" y="-50" on="0"/>
        <pt x="291" y="-61" on="0"/>
        <pt x="326" y="-77" on="0"/>
        <pt x="356" y="-103" on="0"/>
        <pt x="356" y="-127" on="1"/>
        <pt x="356" y="-157" on="0"/>
        <pt x="320" y="-197" on="0"/>
        <pt x="266" y="-222" on="0"/>
        <pt x="201" y="-234" on="0"/>
        <pt x="172" y="-235" on="1"/>
        <pt x="168" y="-179" on="1"/>
        <pt x="228" y="-167" on="1"/>
        <pt x="251" y="-162" on="0"/>
        <pt x="269" y="-148" on="0"/>
        <pt x="269" y="-140" on="1"/>
        <pt x="269" y="-131" on="0"/>
        <pt x="241" y="-120" on="0"/>
        <pt x="208" y="-106" on="0"/>
        <pt x="180" y="-87" on="0"/>
        <pt x="180" y="-70" on="1"/>
        <pt x="180" y="-55" on="0"/>
        <pt x="200" y="-21" on="0"/>
        <pt x="214" y="-7" on="1"/>
        <pt x="163" y="-2" on="0"/>
        <pt x="58" y="28" on="0"/>
        <pt x="18" y="48" on="1"/>
        <pt x="43" y="112" on="1"/>
        <pt x="106" y="100" on="1"/>
        <pt x="160" y="89" on="0"/>
        <pt x="237" y="81" on="0"/>
        <pt x="262" y="81" on="1"/>
        <pt x="333" y="81" on="0"/>
        <pt x="407" y="143" on="0"/>
        <pt x="407" y="193" on="1"/>
        <pt x="407" y="214" on="0"/>
        <pt x="394" y="243" on="0"/>
        <pt x="365" y="268" on="0"/>
        <pt x="322" y="290" on="0"/>
        <pt x="292" y="304" on="1"/>
        <pt x="250" y="323" on="1"/>
        <pt x="209" y="342" on="0"/>
        <pt x="142" y="378" on="0"/>
        <pt x="94" y="420" on="0"/>
        <pt x="68" y="472" on="0"/>
        <pt x="68" y="507" on="1"/>
        <pt x="68" y="544" on="0"/>
        <pt x="102" y="606" on="0"/>
        <pt x="166" y="649" on="0"/>
        <pt x="256" y="673" on="0"/>
        <pt x="313" y="673" on="1"/>
        <pt x="357" y="673" on="0"/>
        <pt x="462" y="656" on="0"/>
        <pt x="510" y="639" on="1"/>
      </contour>
    </TTGlyph>
    <TTGlyph name="Scircumflex" xMin="18" yMin="-10" xMax="510" yMax="897">
      <component glyphName="S" x="0" y="0" flags="0x204"/>
      <component glyphName="circumflex.cap" x="81" y="0" flags="0x4"/>
    </TTGlyph>
    <TTGlyph name="Scommaaccent" xMin="18" yMin="-276" xMax="510" yMax="673">
      <component glyphName="S" x="0" y="0" flags="0x204"/>
      <component glyphName="commaaccent" x="72" y="0" flags="0x4"/>
    </TTGlyph>
    <TTGlyph name="T" xMin="61" yMin="0" xMax="602" yMax="663">
      <contour>
        <pt x="310" y="0" on="1"/>
        <pt x="207" y="0" on="1"/>
        <pt x="275" y="574" on="1"/>
        <pt x="61" y="574" on="1"/>
        <pt x="72" y="663" on="1"/>
        <pt x="602" y="663" on="1"/>
        <pt x="591" y="574" on="1"/>
        <pt x="378" y="574" on="1"/>
      </contour>
    </TTGlyph>
    <TTGlyph name="Tbar" xMin="64" yMin="0" xMax="605" yMax="663">
      <contour>
        <pt x="357" y="372" on="1"/>
        <pt x="495" y="372" on="1"/>
        <pt x="486" y="292" on="1"/>
        <pt x="348" y="292" on="1"/>
        <pt x="313" y="0" on="1"/>
        <pt x="210" y="0" on="1"/>
        <pt x="245" y="292" on="1"/>
        <pt x="109" y="292" on="1"/>
        <pt x="118" y="372" on="1"/>
        <pt x="254" y="372" on="1"/>
        <pt x="278" y="573" on="1"/>
        <pt x="64" y="573" on="1"/>
        <pt x="75" y="663" on="1"/>
        <pt x="605" y="663" on="1"/>
        <pt x="594" y="573" on="1"/>
        <pt x="381" y="573" on="1"/>
      </contour>
    </TTGlyph>
    <TTGlyph name="Tcaron" xMin="61" yMin="0" xMax="602" yMax="907">
      <component glyphName="T" x="0" y="0" flags="0x204"/>
      <component glyphName="caron.cap" x="79" y="0" flags="0x4"/>
    </TTGlyph>
    <TTGlyph name="Tcommaaccent" xMin="61" yMin="-276" xMax="602" yMax="663">
      <component glyphName="T" x="0" y="0" flags="0x204"/>
      <component glyphName="commaaccent" x="77" y="0" flags="0x4"/>
    </TTGlyph>
    <TTGlyph name="Thorn" xMin="49" yMin="0" xMax="579" yMax="663">
      <contour>
        <pt x="152" y="0" on="1"/>
        <pt x="49" y="0" on="1"/>
        <pt x="127" y="663" on="1"/>
        <pt x="230" y="663" on="1"/>
        <pt x="217" y="554" on="1"/>
        <pt x="334" y="554" on="1"/>
        <pt x="400" y="554" on="0"/>
        <pt x="498" y="528" on="0"/>
        <pt x="530" y="499" on="1"/>
        <pt x="579" y="453" on="0"/>
        <pt x="579" y="365" on="1"/>
        <pt x="579" y="311" on="0"/>
        <pt x="535" y="202" on="0"/>
        <pt x="493" y="163" on="1"/>
        <pt x="463" y="135" on="0"/>
        <pt x="389" y="114" on="0"/>
        <pt x="327" y="114" on="1"/>
        <pt x="165" y="114" on="1"/>
      </contour>
      <contour>
        <pt x="176" y="204" on="1"/>
        <pt x="365" y="204" on="1"/>
        <pt x="392" y="204" on="0"/>
        <pt x="423" y="219" on="0"/>
        <pt x="435" y="235" on="1"/>
        <pt x="454" y="259" on="0"/>
        <pt x="474" y="327" on="0"/>
        <pt x="474" y="359" on="1"/>
        <pt x="474" y="413" on="0"/>
        <pt x="449" y="437" on="1"/>
        <pt x="434" y="451" on="0"/>
        <pt x="380" y="463" on="0"/>
        <pt x="337" y="463" on="1"/>
        <pt x="206" y="463" on="1"/>
      </contour>
    </TTGlyph>
    <TTGlyph name="U" xMin="66" yMin="-10" xMax="653" yMax="663">
      <contour>
        <pt x="216" y="663" on="1"/>
        <pt x="177" y="332" on="1"/>
        <pt x="173" y="300" on="0"/>
        <pt x="169" y="253" on="0"/>
        <pt x="169" y="236" on="1"/>
        <pt x="169" y="161" on="0"/>
        <pt x="247" y="91" on="0"/>
        <pt x="321" y="91" on="1"/>
        <pt x="402" y="91" on="0"/>
        <pt x="447" y="135" on="1"/>
        <pt x="475" y="161" on="0"/>
        <pt x="502" y="241" on="0"/>
        <pt x="510" y="304" on="1"/>
        <pt x="553" y="663" on="1"/>
        <pt x="653" y="663" on="1"/>
        <pt x="608" y="286" on="1"/>
        <pt x="599" y="209" on="0"/>
        <pt x="554" y="106" on="0"/>
        <pt x="517" y="68" on="1"/>
        <pt x="479" y="30" on="0"/>
        <pt x="377" y="-10" on="0"/>
        <pt x="311" y="-10" on="1"/>
        <pt x="254" y="-10" on="0"/>
        <pt x="163" y="26" on="0"/>
        <pt x="100" y="89" on="0"/>
        <pt x="66" y="175" on="0"/>
        <pt x="66" y="225" on="1"/>
        <pt x="66" y="242" on="0"/>
        <pt x="69" y="296" on="0"/>
        <pt x="74" y="333" on="1"/>
        <pt x="113" y="663" on="1"/>
      </contour>
    </TTGlyph>
    <TTGlyph name="Uacute" xMin="66" yMin="-10" xMax="653" yMax="913">
      <component glyphName="U" x="0" y="0" flags="0x204"/>
      <component glyphName="acute.cap" x="171" y="0" flags="0x4"/>
    </TTGlyph>
    <TTGlyph name="Ubreve" xMin="66" yMin="-10" xMax="653" yMax="882">
      <component glyphName="U" x="0" y="0" flags="0x204"/>
      <component glyphName="breve.cap" x="136" y="0" flags="0x4"/>
    </TTGlyph>
    <TTGlyph name="Ucircumflex" xMin="66" yMin="-10" xMax="653" yMax="897">
      <component glyphName="U" x="0" y="0" flags="0x204"/>
      <component glyphName="circumflex.cap" x="143" y="0" flags="0x4"/>
    </TTGlyph>
    <TTGlyph name="Udieresis" xMin="66" yMin="-10" xMax="653" yMax="856">
      <component glyphName="U" x="0" y="0" flags="0x204"/>
      <component glyphName="dieresis.cap" x="140" y="0" flags="0x4"/>
    </TTGlyph>
    <TTGlyph name="Ugrave" xMin="66" yMin="-10" xMax="653" yMax="918">
      <component glyphName="U" x="0" y="0" flags="0x204"/>
      <component glyphName="grave.cap" x="129" y="0" flags="0x4"/>
    </TTGlyph>
    <TTGlyph name="Uhungarumlaut" xMin="66" yMin="-10" xMax="653" yMax="946">
      <component glyphName="U" x="0" y="0" flags="0x204"/>
      <component glyphName="hungarumlaut.cap" x="160" y="0" flags="0x4"/>
    </TTGlyph>
    <TTGlyph name="Umacron" xMin="66" yMin="-10" xMax="653" yMax="843">
      <component glyphName="U" x="0" y="0" flags="0x204"/>
      <component glyphName="macron.cap" x="134" y="0" flags="0x4"/>
    </TTGlyph>
    <TTGlyph name="Uogonek" xMin="71" yMin="-211" xMax="658" yMax="663">
      <contour>
        <pt x="658" y="663" on="1"/>
        <pt x="613" y="286" on="1"/>
        <pt x="604" y="209" on="0"/>
        <pt x="559" y="107" on="0"/>
        <pt x="522" y="68" on="1"/>
        <pt x="494" y="39" on="0"/>
        <pt x="422" y="2" on="0"/>
        <pt x="357" y="-32" on="0"/>
        <pt x="313" y="-71" on="0"/>
        <pt x="313" y="-101" on="1"/>
        <pt x="313" y="-119" on="0"/>
        <pt x="337" y="-140" on="0"/>
        <pt x="360" y="-140" on="1"/>
        <pt x="379" y="-140" on="0"/>
        <pt x="425" y="-132" on="1"/>
        <pt x="435" y="-185" on="1"/>
        <pt x="413" y="-197" on="0"/>
        <pt x="361" y="-211" on="0"/>
        <pt x="338" y="-211" on="1"/>
        <pt x="288" y="-211" on="0"/>
        <pt x="228" y="-158" on="0"/>
        <pt x="228" y="-120" on="1"/>
        <pt x="228" y="-85" on="0"/>
        <pt x="272" y="-24" on="0"/>
        <pt x="300" y="-9" on="1"/>
        <pt x="248" y="-7" on="0"/>
        <pt x="164" y="29" on="0"/>
        <pt x="104" y="90" on="0"/>
        <pt x="71" y="175" on="0"/>
        <pt x="71" y="225" on="1"/>
        <pt x="71" y="242" on="0"/>
        <pt x="74" y="296" on="0"/>
        <pt x="79" y="333" on="1"/>
        <pt x="118" y="663" on="1"/>
        <pt x="221" y="663" on="1"/>
        <pt x="182" y="332" on="1"/>
        <pt x="178" y="300" on="0"/>
        <pt x="174" y="253" on="0"/>
        <pt x="174" y="236" on="1"/>
        <pt x="174" y="161" on="0"/>
        <pt x="252" y="91" on="0"/>
        <pt x="326" y="91" on="1"/>
        <pt x="407" y="91" on="0"/>
        <pt x="452" y="135" on="1"/>
        <pt x="480" y="161" on="0"/>
        <pt x="507" y="241" on="0"/>
        <pt x="515" y="304" on="1"/>
        <pt x="558" y="663" on="1"/>
      </contour>
    </TTGlyph>
    <TTGlyph name="Uring" xMin="66" yMin="-10" xMax="653" yMax="955">
      <component glyphName="U" x="0" y="0" flags="0x204"/>
      <component glyphName="ring.cap" x="133" y="0" flags="0x4"/>
    </TTGlyph>
    <TTGlyph name="Utilde" xMin="66" yMin="-10" xMax="653" yMax="863">
      <component glyphName="U" x="0" y="0" flags="0x204"/>
      <component glyphName="tilde.cap" x="139" y="0" flags="0x4"/>
    </TTGlyph>
    <TTGlyph name="V" xMin="58" yMin="0" xMax="667" yMax="663">
      <contour>
        <pt x="667" y="663" on="1"/>
        <pt x="350" y="0" on="1"/>
        <pt x="242" y="0" on="1"/>
        <pt x="233" y="0" on="0"/>
        <pt x="227" y="6" on="0"/>
        <pt x="225" y="12" on="1"/>
        <pt x="58" y="663" on="1"/>
        <pt x="152" y="663" on="1"/>
        <pt x="165" y="663" on="0"/>
        <pt x="168" y="651" on="1"/>
        <pt x="259" y="281" on="1"/>
        <pt x="273" y="227" on="0"/>
        <pt x="295" y="126" on="0"/>
        <pt x="300" y="94" on="1"/>
        <pt x="311" y="123" on="0"/>
        <pt x="353" y="223" on="0"/>
        <pt x="378" y="276" on="1"/>
        <pt x="553" y="650" on="1"/>
        <pt x="557" y="658" on="0"/>
        <pt x="563" y="663" on="0"/>
        <pt x="572" y="663" on="1"/>
      </contour>
    </TTGlyph>
    <TTGlyph name="W" xMin="72" yMin="0" xMax="1003" yMax="663">
      <contour>
        <pt x="619" y="0" on="1"/>
        <pt x="609" y="0" on="0"/>
        <pt x="604" y="5" on="0"/>
        <pt x="602" y="12" on="1"/>
        <pt x="546" y="309" on="1"/>
        <pt x="535" y="368" on="0"/>
        <pt x="519" y="479" on="0"/>
        <pt x="516" y="514" on="1"/>
        <pt x="510" y="496" on="0"/>
        <pt x="491" y="443" on="0"/>
        <pt x="470" y="386" on="0"/>
        <pt x="450" y="332" on="0"/>
        <pt x="443" y="314" on="1"/>
        <pt x="318" y="0" on="1"/>
        <pt x="212" y="0" on="1"/>
        <pt x="202" y="0" on="0"/>
        <pt x="197" y="5" on="0"/>
        <pt x="195" y="12" on="1"/>
        <pt x="72" y="663" on="1"/>
        <pt x="164" y="663" on="1"/>
        <pt x="171" y="663" on="0"/>
        <pt x="176" y="660" on="0"/>
        <pt x="178" y="653" on="1"/>
        <pt x="238" y="327" on="1"/>
        <pt x="244" y="296" on="0"/>
        <pt x="254" y="233" on="0"/>
        <pt x="263" y="175" on="0"/>
        <pt x="270" y="125" on="0"/>
        <pt x="272" y="108" on="1"/>
        <pt x="277" y="127" on="0"/>
        <pt x="294" y="178" on="0"/>
        <pt x="313" y="235" on="0"/>
        <pt x="335" y="293" on="0"/>
        <pt x="346" y="320" on="1"/>
        <pt x="483" y="663" on="1"/>
        <pt x="570" y="663" on="1"/>
        <pt x="583" y="663" on="0"/>
        <pt x="585" y="652" on="1"/>
        <pt x="642" y="335" on="1"/>
        <pt x="653" y="273" on="0"/>
        <pt x="670" y="156" on="0"/>
        <pt x="675" y="108" on="1"/>
        <pt x="690" y="155" on="0"/>
        <pt x="736" y="276" on="0"/>
        <pt x="762" y="337" on="1"/>
        <pt x="892" y="651" on="1"/>
        <pt x="895" y="658" on="0"/>
        <pt x="902" y="663" on="0"/>
        <pt x="910" y="663" on="1"/>
        <pt x="1003" y="663" on="1"/>
        <pt x="726" y="0" on="1"/>
      </contour>
    </TTGlyph>
    <TTGlyph name="Wacute" xMin="72" yMin="0" xMax="1003" yMax="913">
      <component glyphName="W" x="0" y="0" flags="0x204"/>
      <component glyphName="acute.cap" x="292" y="0" flags="0x4"/>
    </TTGlyph>
    <TTGlyph name="Wcircumflex" xMin="72" yMin="0" xMax="1003" yMax="897">
      <component glyphName="W" x="0" y="0" flags="0x204"/>
      <component glyphName="circumflex.cap" x="295" y="0" flags="0x4"/>
    </TTGlyph>
    <TTGlyph name="Wdieresis" xMin="72" yMin="0" xMax="1003" yMax="856">
      <component glyphName="W" x="0" y="0" flags="0x204"/>
      <component glyphName="dieresis.cap" x="291" y="0" flags="0x4"/>
    </TTGlyph>
    <TTGlyph name="Wgrave" xMin="72" yMin="0" xMax="1003" yMax="918">
      <component glyphName="W" x="0" y="0" flags="0x204"/>
      <component glyphName="grave.cap" x="300" y="0" flags="0x4"/>
    </TTGlyph>
    <TTGlyph name="X" xMin="-22" yMin="0" xMax="624" yMax="663">
      <contour>
        <pt x="-22" y="0" on="1"/>
        <pt x="254" y="352" on="1"/>
        <pt x="63" y="663" on="1"/>
        <pt x="162" y="663" on="1"/>
        <pt x="171" y="663" on="0"/>
        <pt x="178" y="659" on="0"/>
        <pt x="182" y="653" on="1"/>
        <pt x="321" y="422" on="1"/>
        <pt x="503" y="654" on="1"/>
        <pt x="508" y="659" on="0"/>
        <pt x="515" y="663" on="0"/>
        <pt x="524" y="663" on="1"/>
        <pt x="624" y="663" on="1"/>
        <pt x="373" y="346" on="1"/>
        <pt x="588" y="0" on="1"/>
        <pt x="489" y="0" on="1"/>
        <pt x="474" y="0" on="0"/>
        <pt x="468" y="10" on="1"/>
        <pt x="306" y="275" on="1"/>
        <pt x="99" y="9" on="1"/>
        <pt x="94" y="4" on="0"/>
        <pt x="86" y="0" on="0"/>
        <pt x="76" y="0" on="1"/>
      </contour>
    </TTGlyph>
    <TTGlyph name="Y" xMin="47" yMin="0" xMax="655" yMax="663">
      <contour>
        <pt x="352" y="217" on="1"/>
        <pt x="326" y="0" on="1"/>
        <pt x="223" y="0" on="1"/>
        <pt x="249" y="217" on="1"/>
        <pt x="47" y="663" on="1"/>
        <pt x="145" y="663" on="1"/>
        <pt x="153" y="663" on="0"/>
        <pt x="160" y="659" on="0"/>
        <pt x="163" y="652" on="1"/>
        <pt x="238" y="480" on="1"/>
        <pt x="248" y="456" on="0"/>
        <pt x="269" y="406" on="0"/>
        <pt x="288" y="359" on="0"/>
        <pt x="304" y="317" on="0"/>
        <pt x="309" y="301" on="1"/>
        <pt x="310" y="301" on="1"/>
        <pt x="319" y="317" on="0"/>
        <pt x="345" y="360" on="0"/>
        <pt x="375" y="408" on="0"/>
        <pt x="408" y="458" on="0"/>
        <pt x="424" y="482" on="1"/>
        <pt x="538" y="653" on="1"/>
        <pt x="543" y="659" on="0"/>
        <pt x="550" y="663" on="0"/>
        <pt x="560" y="663" on="1"/>
        <pt x="655" y="663" on="1"/>
      </contour>
    </TTGlyph>
    <TTGlyph name="Yacute" xMin="47" yMin="0" xMax="655" yMax="913">
      <component glyphName="Y" x="0" y="0" flags="0x204"/>
      <component glyphName="acute.cap" x="127" y="0" flags="0x4"/>
    </TTGlyph>
    <TTGlyph name="Ycircumflex" xMin="47" yMin="0" xMax="655" yMax="897">
      <component glyphName="Y" x="0" y="0" flags="0x204"/>
      <component glyphName="circumflex.cap" x="107" y="0" flags="0x4"/>
    </TTGlyph>
    <TTGlyph name="Ydieresis" xMin="47" yMin="0" xMax="655" yMax="856">
      <component glyphName="Y" x="0" y="0" flags="0x204"/>
      <component glyphName="dieresis.cap" x="110" y="0" flags="0x4"/>
    </TTGlyph>
    <TTGlyph name="Ygrave" xMin="47" yMin="0" xMax="655" yMax="918">
      <component glyphName="Y" x="0" y="0" flags="0x204"/>
      <component glyphName="grave.cap" x="64" y="0" flags="0x4"/>
    </TTGlyph>
    <TTGlyph name="Z" xMin="15" yMin="0" xMax="561" yMax="663">
      <contour>
        <pt x="76" y="574" on="1"/>
        <pt x="87" y="663" on="1"/>
        <pt x="561" y="663" on="1"/>
        <pt x="554" y="605" on="1"/>
        <pt x="552" y="594" on="0"/>
        <pt x="548" y="582" on="0"/>
        <pt x="539" y="571" on="1"/>
        <pt x="279" y="245" on="1"/>
        <pt x="238" y="194" on="0"/>
        <pt x="171" y="114" on="0"/>
        <pt x="148" y="89" on="1"/>
        <pt x="499" y="89" on="1"/>
        <pt x="489" y="0" on="1"/>
        <pt x="15" y="0" on="1"/>
        <pt x="22" y="58" on="1"/>
        <pt x="24" y="69" on="0"/>
        <pt x="29" y="81" on="0"/>
        <pt x="38" y="92" on="1"/>
        <pt x="297" y="418" on="1"/>
        <pt x="337" y="469" on="0"/>
        <pt x="403" y="550" on="0"/>
        <pt x="425" y="574" on="1"/>
      </contour>
    </TTGlyph>
    <TTGlyph name="Zacute" xMin="15" yMin="0" xMax="561" yMax="913">
      <component glyphName="Z" x="0" y="0" flags="0x204"/>
      <component glyphName="acute.cap" x="90" y="0" flags="0x4"/>
    </TTGlyph>
    <TTGlyph name="Zcaron" xMin="15" yMin="0" xMax="561" yMax="907">
      <component glyphName="Z" x="0" y="0" flags="0x204"/>
      <component glyphName="caron.cap" x="70" y="0" flags="0x4"/>
    </TTGlyph>
    <TTGlyph name="Zdotaccent" xMin="15" yMin="0" xMax="561" yMax="841">
      <component glyphName="Z" x="0" y="0" flags="0x204"/>
      <component glyphName="dotaccent.cap" x="67" y="0" flags="0x4"/>
    </TTGlyph>
    <TTGlyph name="a" xMin="31" yMin="-8" xMax="518" yMax="496">
      <contour>
        <pt x="335" y="35" on="1"/>
        <pt x="296" y="12" on="0"/>
        <pt x="236" y="-8" on="0"/>
        <pt x="208" y="-8" on="1"/>
        <pt x="169" y="-8" on="0"/>
        <pt x="104" y="26" on="0"/>
        <pt x="57" y="84" on="0"/>
        <pt x="31" y="164" on="0"/>
        <pt x="31" y="210" on="1"/>
        <pt x="31" y="272" on="0"/>
        <pt x="73" y="377" on="0"/>
        <pt x="140" y="453" on="0"/>
        <pt x="225" y="496" on="0"/>
        <pt x="269" y="496" on="1"/>
        <pt x="297" y="496" on="0"/>
        <pt x="347" y="479" on="0"/>
        <pt x="375" y="461" on="1"/>
        <pt x="403" y="443" on="1"/>
        <pt x="425" y="488" on="1"/>
        <pt x="493" y="482" on="1"/>
        <pt x="447" y="83" on="1"/>
        <pt x="518" y="67" on="1"/>
        <pt x="512" y="18" on="1"/>
        <pt x="495" y="10" on="0"/>
        <pt x="451" y="-2" on="0"/>
        <pt x="432" y="-2" on="1"/>
        <pt x="401" y="-2" on="0"/>
        <pt x="365" y="28" on="0"/>
        <pt x="357" y="48" on="1"/>
      </contour>
      <contour>
        <pt x="381" y="359" on="1"/>
        <pt x="382" y="368" on="0"/>
        <pt x="378" y="377" on="0"/>
        <pt x="369" y="382" on="1"/>
        <pt x="351" y="392" on="0"/>
        <pt x="303" y="405" on="0"/>
        <pt x="279" y="405" on="1"/>
        <pt x="248" y="405" on="0"/>
        <pt x="194" y="379" on="0"/>
        <pt x="153" y="330" on="0"/>
        <pt x="130" y="257" on="0"/>
        <pt x="130" y="210" on="1"/>
        <pt x="130" y="147" on="0"/>
        <pt x="183" y="81" on="0"/>
        <pt x="231" y="81" on="1"/>
        <pt x="258" y="81" on="0"/>
        <pt x="318" y="100" on="0"/>
        <pt x="338" y="113" on="1"/>
        <pt x="348" y="119" on="0"/>
        <pt x="353" y="131" on="0"/>
        <pt x="355" y="143" on="1"/>
      </contour>
    </TTGlyph>
    <TTGlyph name="aacute" xMin="31" yMin="-8" xMax="518" yMax="731">
      <component glyphName="a" x="0" y="0" flags="0x204"/>
      <component glyphName="acute" x="88" y="0" flags="0x4"/>
    </TTGlyph>
    <TTGlyph name="abreve" xMin="31" yMin="-8" xMax="518" yMax="704">
      <component glyphName="a" x="0" y="0" flags="0x204"/>
      <component glyphName="breve" x="64" y="0" flags="0x4"/>
    </TTGlyph>
    <TTGlyph name="acaron" xMin="31" yMin="-8" xMax="518" yMax="727">
      <component glyphName="a" x="0" y="0" flags="0x204"/>
      <component glyphName="caron" x="66" y="0" flags="0x4"/>
    </TTGlyph>
    <TTGlyph name="acircumflex" xMin="31" yMin="-8" xMax="518" yMax="719">
      <component glyphName="a" x="0" y="0" flags="0x204"/>
      <component glyphName="circumflex" x="75" y="0" flags="0x4"/>
    </TTGlyph>
    <TTGlyph name="acute" xMin="114" yMin="539" xMax="366" yMax="731">
      <contour>
        <pt x="142" y="539" on="1"/>
        <pt x="114" y="587" on="1"/>
        <pt x="308" y="725" on="1"/>
        <pt x="316" y="731" on="0"/>
        <pt x="325" y="730" on="0"/>
        <pt x="330" y="722" on="1"/>
        <pt x="366" y="657" on="1"/>
      </contour>
    </TTGlyph>
    <TTGlyph name="acute.cap" xMin="135" yMin="721" xMax="387" yMax="913">
      <contour>
        <pt x="163" y="721" on="1"/>
        <pt x="135" y="769" on="1"/>
        <pt x="329" y="907" on="1"/>
        <pt x="337" y="913" on="0"/>
        <pt x="346" y="912" on="0"/>
        <pt x="351" y="904" on="1"/>
        <pt x="387" y="839" on="1"/>
      </contour>
    </TTGlyph>
    <TTGlyph name="adieresis" xMin="31" yMin="-8" xMax="518" yMax="676">
      <component glyphName="a" x="0" y="0" flags="0x204"/>
      <component glyphName="dieresis" x="68" y="0" flags="0x4"/>
    </TTGlyph>
    <TTGlyph name="ae" xMin="27" yMin="-8" xMax="801" yMax="496">
      <contour>
        <pt x="367" y="121" on="1"/>
        <pt x="359" y="142" on="0"/>
        <pt x="349" y="188" on="0"/>
        <pt x="349" y="213" on="1"/>
        <pt x="236" y="213" on="1"/>
        <pt x="208" y="213" on="0"/>
        <pt x="167" y="209" on="0"/>
        <pt x="139" y="196" on="0"/>
        <pt x="125" y="171" on="0"/>
        <pt x="125" y="149" on="1"/>
        <pt x="125" y="117" on="0"/>
        <pt x="171" y="79" on="0"/>
        <pt x="213" y="79" on="1"/>
        <pt x="240" y="79" on="0"/>
        <pt x="301" y="95" on="0"/>
        <pt x="334" y="108" on="1"/>
      </contour>
      <contour>
        <pt x="568" y="-8" on="1"/>
        <pt x="515" y="-8" on="0"/>
        <pt x="431" y="29" on="0"/>
        <pt x="402" y="64" on="1"/>
        <pt x="356" y="38" on="0"/>
        <pt x="255" y="-8" on="0"/>
        <pt x="199" y="-8" on="1"/>
        <pt x="159" y="-8" on="0"/>
        <pt x="96" y="16" on="0"/>
        <pt x="51" y="58" on="0"/>
        <pt x="27" y="113" on="0"/>
        <pt x="27" y="145" on="1"/>
        <pt x="27" y="212" on="0"/>
        <pt x="124" y="291" on="0"/>
        <pt x="218" y="291" on="1"/>
        <pt x="262" y="291" on="0"/>
        <pt x="336" y="286" on="0"/>
        <pt x="356" y="284" on="1"/>
        <pt x="358" y="297" on="0"/>
        <pt x="362" y="324" on="0"/>
        <pt x="362" y="332" on="1"/>
        <pt x="362" y="371" on="0"/>
        <pt x="315" y="406" on="0"/>
        <pt x="268" y="406" on="1"/>
        <pt x="242" y="406" on="0"/>
        <pt x="185" y="394" on="0"/>
        <pt x="154" y="384" on="1"/>
        <pt x="102" y="367" on="1"/>
        <pt x="77" y="422" on="1"/>
        <pt x="133" y="458" on="0"/>
        <pt x="236" y="496" on="0"/>
        <pt x="285" y="496" on="1"/>
        <pt x="331" y="496" on="0"/>
        <pt x="413" y="461" on="0"/>
        <pt x="433" y="426" on="1"/>
        <pt x="467" y="458" on="0"/>
        <pt x="552" y="496" on="0"/>
        <pt x="600" y="496" on="1"/>
        <pt x="644" y="496" on="0"/>
        <pt x="718" y="464" on="0"/>
        <pt x="771" y="406" on="0"/>
        <pt x="801" y="327" on="0"/>
        <pt x="801" y="280" on="1"/>
        <pt x="801" y="240" on="0"/>
        <pt x="783" y="214" on="0"/>
        <pt x="767" y="214" on="1"/>
        <pt x="447" y="214" on="1"/>
        <pt x="447" y="156" on="0"/>
        <pt x="514" y="82" on="0"/>
        <pt x="580" y="82" on="1"/>
        <pt x="603" y="82" on="0"/>
        <pt x="657" y="92" on="0"/>
        <pt x="681" y="99" on="1"/>
        <pt x="748" y="118" on="1"/>
        <pt x="774" y="64" on="1"/>
        <pt x="754" y="49" on="0"/>
        <pt x="705" y="23" on="0"/>
        <pt x="651" y="4" on="0"/>
        <pt x="595" y="-8" on="0"/>
        <pt x="569" y="-8" on="1"/>
      </contour>
      <contour>
        <pt x="707" y="289" on="1"/>
        <pt x="705" y="338" on="0"/>
        <pt x="650" y="406" on="0"/>
        <pt x="595" y="406" on="1"/>
        <pt x="544" y="406" on="0"/>
        <pt x="471" y="343" on="0"/>
        <pt x="457" y="289" on="1"/>
      </contour>
    </TTGlyph>
    <TTGlyph name="aeacute" xMin="27" yMin="-8" xMax="801" yMax="731">
      <component glyphName="ae" x="0" y="0" flags="0x204"/>
      <component glyphName="acute" x="264" y="0" flags="0x4"/>
    </TTGlyph>
    <TTGlyph name="agrave" xMin="31" yMin="-8" xMax="518" yMax="737">
      <component glyphName="a" x="0" y="0" flags="0x204"/>
      <component glyphName="grave" x="64" y="0" flags="0x4"/>
    </TTGlyph>
    <TTGlyph name="amacron" xMin="31" yMin="-8" xMax="518" yMax="664">
      <component glyphName="a" x="0" y="0" flags="0x204"/>
      <component glyphName="macron" x="61" y="0" flags="0x4"/>
    </TTGlyph>
    <TTGlyph name="ampersand" xMin="38" yMin="-10" xMax="686" yMax="673">
      <contour>
        <pt x="686" y="382" on="1"/>
        <pt x="658" y="317" on="0"/>
        <pt x="582" y="188" on="0"/>
        <pt x="537" y="134" on="1"/>
        <pt x="585" y="79" on="1"/>
        <pt x="667" y="69" on="1"/>
        <pt x="663" y="21" on="1"/>
        <pt x="646" y="12" on="0"/>
        <pt x="598" y="-3" on="0"/>
        <pt x="579" y="-3" on="1"/>
        <pt x="548" y="-3" on="0"/>
        <pt x="501" y="27" on="0"/>
        <pt x="473" y="65" on="1"/>
        <pt x="428" y="30" on="0"/>
        <pt x="329" y="-10" on="0"/>
        <pt x="274" y="-10" on="1"/>
        <pt x="220" y="-10" on="0"/>
        <pt x="132" y="22" on="0"/>
        <pt x="71" y="78" on="0"/>
        <pt x="38" y="153" on="0"/>
        <pt x="38" y="195" on="1"/>
        <pt x="38" y="229" on="0"/>
        <pt x="62" y="288" on="0"/>
        <pt x="104" y="337" on="0"/>
        <pt x="162" y="378" on="0"/>
        <pt x="196" y="396" on="1"/>
        <pt x="183" y="418" on="0"/>
        <pt x="168" y="465" on="0"/>
        <pt x="168" y="492" on="1"/>
        <pt x="168" y="531" on="0"/>
        <pt x="199" y="597" on="0"/>
        <pt x="251" y="645" on="0"/>
        <pt x="322" y="673" on="0"/>
        <pt x="363" y="673" on="1"/>
        <pt x="397" y="673" on="0"/>
        <pt x="456" y="651" on="0"/>
        <pt x="500" y="611" on="0"/>
        <pt x="525" y="556" on="0"/>
        <pt x="525" y="524" on="1"/>
        <pt x="525" y="466" on="0"/>
        <pt x="464" y="383" on="0"/>
        <pt x="413" y="349" on="1"/>
        <pt x="374" y="323" on="1"/>
        <pt x="487" y="193" on="1"/>
        <pt x="517" y="230" on="0"/>
        <pt x="589" y="345" on="0"/>
        <pt x="626" y="408" on="1"/>
      </contour>
      <contour>
        <pt x="204" y="320" on="1"/>
        <pt x="172" y="293" on="0"/>
        <pt x="137" y="239" on="0"/>
        <pt x="137" y="204" on="1"/>
        <pt x="137" y="178" on="0"/>
        <pt x="158" y="134" on="0"/>
        <pt x="197" y="100" on="0"/>
        <pt x="250" y="81" on="0"/>
        <pt x="283" y="81" on="1"/>
        <pt x="319" y="81" on="0"/>
        <pt x="387" y="106" on="0"/>
        <pt x="417" y="128" on="1"/>
        <pt x="231" y="343" on="1"/>
      </contour>
      <contour>
        <pt x="333" y="370" on="1"/>
        <pt x="380" y="408" on="0"/>
        <pt x="437" y="478" on="0"/>
        <pt x="437" y="517" on="1"/>
        <pt x="437" y="549" on="0"/>
        <pt x="392" y="591" on="0"/>
        <pt x="358" y="591" on="1"/>
        <pt x="335" y="591" on="0"/>
        <pt x="298" y="576" on="0"/>
        <pt x="272" y="551" on="0"/>
        <pt x="259" y="519" on="0"/>
        <pt x="259" y="501" on="1"/>
        <pt x="259" y="486" on="0"/>
        <pt x="267" y="458" on="0"/>
        <pt x="284" y="428" on="0"/>
        <pt x="312" y="393" on="0"/>
      </contour>
    </TTGlyph>
    <TTGlyph name="aogonek" xMin="31" yMin="-211" xMax="518" yMax="496">
      <contour>
        <pt x="512" y="18" on="1"/>
        <pt x="432" y="-12" on="0"/>
        <pt x="368" y="-72" on="0"/>
        <pt x="368" y="-101" on="1"/>
        <pt x="368" y="-119" on="0"/>
        <pt x="392" y="-140" on="0"/>
        <pt x="415" y="-140" on="1"/>
        <pt x="434" y="-140" on="0"/>
        <pt x="480" y="-132" on="1"/>
        <pt x="490" y="-185" on="1"/>
        <pt x="468" y="-197" on="0"/>
        <pt x="416" y="-211" on="0"/>
        <pt x="393" y="-211" on="1"/>
        <pt x="343" y="-211" on="0"/>
        <pt x="283" y="-158" on="0"/>
        <pt x="283" y="-120" on="1"/>
        <pt x="283" y="-96" on="0"/>
        <pt x="304" y="-54" on="0"/>
        <pt x="336" y="-20" on="0"/>
        <pt x="373" y="4" on="0"/>
        <pt x="389" y="10" on="1"/>
        <pt x="381" y="15" on="0"/>
        <pt x="361" y="35" on="0"/>
        <pt x="357" y="48" on="1"/>
        <pt x="335" y="35" on="1"/>
        <pt x="296" y="12" on="0"/>
        <pt x="236" y="-8" on="0"/>
        <pt x="208" y="-8" on="1"/>
        <pt x="169" y="-8" on="0"/>
        <pt x="104" y="26" on="0"/>
        <pt x="57" y="84" on="0"/>
        <pt x="31" y="164" on="0"/>
        <pt x="31" y="210" on="1"/>
        <pt x="31" y="272" on="0"/>
        <pt x="73" y="377" on="0"/>
        <pt x="140" y="453" on="0"/>
        <pt x="225" y="496" on="0"/>
        <pt x="269" y="496" on="1"/>
        <pt x="297" y="496" on="0"/>
        <pt x="347" y="479" on="0"/>
        <pt x="375" y="461" on="1"/>
        <pt x="403" y="443" on="1"/>
        <pt x="425" y="488" on="1"/>
        <pt x="493" y="482" on="1"/>
        <pt x="447" y="83" on="1"/>
        <pt x="518" y="67" on="1"/>
      </contour>
      <contour>
        <pt x="381" y="359" on="1"/>
        <pt x="382" y="368" on="0"/>
        <pt x="378" y="377" on="0"/>
        <pt x="369" y="382" on="1"/>
        <pt x="351" y="392" on="0"/>
        <pt x="303" y="405" on="0"/>
        <pt x="279" y="405" on="1"/>
        <pt x="248" y="405" on="0"/>
        <pt x="194" y="379" on="0"/>
        <pt x="153" y="330" on="0"/>
        <pt x="130" y="257" on="0"/>
        <pt x="130" y="210" on="1"/>
        <pt x="130" y="147" on="0"/>
        <pt x="183" y="81" on="0"/>
        <pt x="231" y="81" on="1"/>
        <pt x="258" y="81" on="0"/>
        <pt x="318" y="100" on="0"/>
        <pt x="338" y="113" on="1"/>
        <pt x="348" y="119" on="0"/>
        <pt x="353" y="131" on="0"/>
        <pt x="355" y="143" on="1"/>
      </contour>
    </TTGlyph>
    <TTGlyph name="apple" xMin="78" yMin="0" xMax="466" yMax="650">
      <contour>
        <pt x="208" y="357" on="1"/>
        <pt x="208" y="370" on="0"/>
        <pt x="227" y="388" on="0"/>
        <pt x="239" y="388" on="1"/>
        <pt x="252" y="388" on="0"/>
        <pt x="269" y="370" on="0"/>
        <pt x="269" y="357" on="1"/>
        <pt x="269" y="344" on="0"/>
        <pt x="252" y="327" on="0"/>
        <pt x="239" y="327" on="1"/>
        <pt x="227" y="327" on="0"/>
        <pt x="208" y="344" on="0"/>
      </contour>
      <contour>
        <pt x="405" y="357" on="1"/>
        <pt x="405" y="370" on="0"/>
        <pt x="424" y="388" on="0"/>
        <pt x="436" y="388" on="1"/>
        <pt x="449" y="388" on="0"/>
        <pt x="466" y="370" on="0"/>
        <pt x="466" y="357" on="1"/>
        <pt x="466" y="344" on="0"/>
        <pt x="449" y="327" on="0"/>
        <pt x="436" y="327" on="1"/>
        <pt x="424" y="327" on="0"/>
        <pt x="405" y="344" on="0"/>
      </contour>
      <contour>
        <pt x="78" y="161" on="1"/>
        <pt x="78" y="174" on="0"/>
        <pt x="95" y="191" on="0"/>
        <pt x="108" y="191" on="1"/>
        <pt x="120" y="191" on="0"/>
        <pt x="139" y="174" on="0"/>
        <pt x="139" y="161" on="1"/>
        <pt x="139" y="148" on="0"/>
        <pt x="120" y="130" on="0"/>
        <pt x="108" y="130" on="1"/>
        <pt x="95" y="130" on="0"/>
        <pt x="78" y="148" on="0"/>
      </contour>
      <contour>
        <pt x="78" y="357" on="1"/>
        <pt x="78" y="370" on="0"/>
        <pt x="95" y="388" on="0"/>
        <pt x="108" y="388" on="1"/>
        <pt x="120" y="388" on="0"/>
        <pt x="139" y="370" on="0"/>
        <pt x="139" y="357" on="1"/>
        <pt x="139" y="344" on="0"/>
        <pt x="120" y="327" on="0"/>
        <pt x="108" y="327" on="1"/>
        <pt x="95" y="327" on="0"/>
        <pt x="78" y="344" on="0"/>
      </contour>
      <contour>
        <pt x="275" y="357" on="1"/>
        <pt x="275" y="370" on="0"/>
        <pt x="292" y="388" on="0"/>
        <pt x="305" y="388" on="1"/>
        <pt x="317" y="388" on="0"/>
        <pt x="336" y="370" on="0"/>
        <pt x="336" y="357" on="1"/>
        <pt x="336" y="344" on="0"/>
        <pt x="317" y="327" on="0"/>
        <pt x="305" y="327" on="1"/>
        <pt x="292" y="327" on="0"/>
        <pt x="275" y="344" on="0"/>
      </contour>
      <contour>
        <pt x="340" y="620" on="1"/>
        <pt x="340" y="632" on="0"/>
        <pt x="357" y="650" on="0"/>
        <pt x="371" y="650" on="1"/>
        <pt x="382" y="650" on="0"/>
        <pt x="401" y="632" on="0"/>
        <pt x="401" y="620" on="1"/>
        <pt x="401" y="606" on="0"/>
        <pt x="382" y="589" on="0"/>
        <pt x="371" y="589" on="1"/>
        <pt x="357" y="589" on="0"/>
        <pt x="340" y="606" on="0"/>
      </contour>
      <contour>
        <pt x="78" y="620" on="1"/>
        <pt x="78" y="632" on="0"/>
        <pt x="95" y="650" on="0"/>
        <pt x="108" y="650" on="1"/>
        <pt x="120" y="650" on="0"/>
        <pt x="139" y="632" on="0"/>
        <pt x="139" y="620" on="1"/>
        <pt x="139" y="606" on="0"/>
        <pt x="120" y="589" on="0"/>
        <pt x="108" y="589" on="1"/>
        <pt x="95" y="589" on="0"/>
        <pt x="78" y="606" on="0"/>
      </contour>
      <contour>
        <pt x="275" y="620" on="1"/>
        <pt x="275" y="632" on="0"/>
        <pt x="292" y="650" on="0"/>
        <pt x="305" y="650" on="1"/>
        <pt x="317" y="650" on="0"/>
        <pt x="336" y="632" on="0"/>
        <pt x="336" y="620" on="1"/>
        <pt x="336" y="606" on="0"/>
        <pt x="317" y="589" on="0"/>
        <pt x="305" y="589" on="1"/>
        <pt x="292" y="589" on="0"/>
        <pt x="275" y="606" on="0"/>
      </contour>
      <contour>
        <pt x="405" y="620" on="1"/>
        <pt x="405" y="632" on="0"/>
        <pt x="424" y="650" on="0"/>
        <pt x="436" y="650" on="1"/>
        <pt x="449" y="650" on="0"/>
        <pt x="466" y="632" on="0"/>
        <pt x="466" y="620" on="1"/>
        <pt x="466" y="606" on="0"/>
        <pt x="449" y="589" on="0"/>
        <pt x="436" y="589" on="1"/>
        <pt x="424" y="589" on="0"/>
        <pt x="405" y="606" on="0"/>
      </contour>
      <contour>
        <pt x="208" y="620" on="1"/>
        <pt x="208" y="632" on="0"/>
        <pt x="227" y="650" on="0"/>
        <pt x="239" y="650" on="1"/>
        <pt x="252" y="650" on="0"/>
        <pt x="269" y="632" on="0"/>
        <pt x="269" y="620" on="1"/>
        <pt x="269" y="606" on="0"/>
        <pt x="252" y="589" on="0"/>
        <pt x="239" y="589" on="1"/>
        <pt x="227" y="589" on="0"/>
        <pt x="208" y="606" on="0"/>
      </contour>
      <contour>
        <pt x="340" y="357" on="1"/>
        <pt x="340" y="370" on="0"/>
        <pt x="357" y="388" on="0"/>
        <pt x="371" y="388" on="1"/>
        <pt x="382" y="388" on="0"/>
        <pt x="401" y="370" on="0"/>
        <pt x="401" y="357" on="1"/>
        <pt x="401" y="344" on="0"/>
        <pt x="382" y="327" on="0"/>
        <pt x="371" y="327" on="1"/>
        <pt x="357" y="327" on="0"/>
        <pt x="340" y="344" on="0"/>
      </contour>
      <contour>
        <pt x="208" y="30" on="1"/>
        <pt x="208" y="42" on="0"/>
        <pt x="227" y="61" on="0"/>
        <pt x="239" y="61" on="1"/>
        <pt x="252" y="61" on="0"/>
        <pt x="269" y="42" on="0"/>
        <pt x="269" y="30" on="1"/>
        <pt x="269" y="17" on="0"/>
        <pt x="252" y="0" on="0"/>
        <pt x="239" y="0" on="1"/>
        <pt x="227" y="0" on="0"/>
        <pt x="208" y="17" on="0"/>
      </contour>
      <contour>
        <pt x="78" y="30" on="1"/>
        <pt x="78" y="42" on="0"/>
        <pt x="95" y="61" on="0"/>
        <pt x="108" y="61" on="1"/>
        <pt x="120" y="61" on="0"/>
        <pt x="139" y="42" on="0"/>
        <pt x="139" y="30" on="1"/>
        <pt x="139" y="17" on="0"/>
        <pt x="120" y="0" on="0"/>
        <pt x="108" y="0" on="1"/>
        <pt x="95" y="0" on="0"/>
        <pt x="78" y="17" on="0"/>
      </contour>
      <contour>
        <pt x="208" y="95" on="1"/>
        <pt x="208" y="109" on="0"/>
        <pt x="227" y="125" on="0"/>
        <pt x="239" y="125" on="1"/>
        <pt x="252" y="125" on="0"/>
        <pt x="269" y="109" on="0"/>
        <pt x="269" y="95" on="1"/>
        <pt x="269" y="82" on="0"/>
        <pt x="252" y="65" on="0"/>
        <pt x="239" y="65" on="1"/>
        <pt x="227" y="65" on="0"/>
        <pt x="208" y="82" on="0"/>
      </contour>
      <contour>
        <pt x="78" y="95" on="1"/>
        <pt x="78" y="109" on="0"/>
        <pt x="95" y="125" on="0"/>
        <pt x="108" y="125" on="1"/>
        <pt x="120" y="125" on="0"/>
        <pt x="139" y="109" on="0"/>
        <pt x="139" y="95" on="1"/>
        <pt x="139" y="82" on="0"/>
        <pt x="120" y="65" on="0"/>
        <pt x="108" y="65" on="1"/>
        <pt x="95" y="65" on="0"/>
        <pt x="78" y="82" on="0"/>
      </contour>
      <contour>
        <pt x="144" y="620" on="1"/>
        <pt x="144" y="632" on="0"/>
        <pt x="162" y="650" on="0"/>
        <pt x="174" y="650" on="1"/>
        <pt x="187" y="650" on="0"/>
        <pt x="204" y="632" on="0"/>
        <pt x="204" y="620" on="1"/>
        <pt x="204" y="606" on="0"/>
        <pt x="187" y="589" on="0"/>
        <pt x="174" y="589" on="1"/>
        <pt x="162" y="589" on="0"/>
        <pt x="144" y="606" on="0"/>
      </contour>
      <contour>
        <pt x="78" y="489" on="1"/>
        <pt x="78" y="501" on="0"/>
        <pt x="95" y="518" on="0"/>
        <pt x="108" y="518" on="1"/>
        <pt x="120" y="518" on="0"/>
        <pt x="139" y="501" on="0"/>
        <pt x="139" y="489" on="1"/>
        <pt x="139" y="476" on="0"/>
        <pt x="120" y="458" on="0"/>
        <pt x="108" y="458" on="1"/>
        <pt x="95" y="458" on="0"/>
        <pt x="78" y="476" on="0"/>
      </contour>
      <contour>
        <pt x="275" y="489" on="1"/>
        <pt x="275" y="501" on="0"/>
        <pt x="292" y="518" on="0"/>
        <pt x="305" y="518" on="1"/>
        <pt x="317" y="518" on="0"/>
        <pt x="336" y="501" on="0"/>
        <pt x="336" y="489" on="1"/>
        <pt x="336" y="476" on="0"/>
        <pt x="317" y="458" on="0"/>
        <pt x="305" y="458" on="1"/>
        <pt x="292" y="458" on="0"/>
        <pt x="275" y="476" on="0"/>
      </contour>
      <contour>
        <pt x="208" y="489" on="1"/>
        <pt x="208" y="501" on="0"/>
        <pt x="227" y="518" on="0"/>
        <pt x="239" y="518" on="1"/>
        <pt x="252" y="518" on="0"/>
        <pt x="269" y="501" on="0"/>
        <pt x="269" y="489" on="1"/>
        <pt x="269" y="476" on="0"/>
        <pt x="252" y="458" on="0"/>
        <pt x="239" y="458" on="1"/>
        <pt x="227" y="458" on="0"/>
        <pt x="208" y="476" on="0"/>
      </contour>
      <contour>
        <pt x="405" y="489" on="1"/>
        <pt x="405" y="501" on="0"/>
        <pt x="424" y="518" on="0"/>
        <pt x="436" y="518" on="1"/>
        <pt x="449" y="518" on="0"/>
        <pt x="466" y="501" on="0"/>
        <pt x="466" y="489" on="1"/>
        <pt x="466" y="476" on="0"/>
        <pt x="449" y="458" on="0"/>
        <pt x="436" y="458" on="1"/>
        <pt x="424" y="458" on="0"/>
        <pt x="405" y="476" on="0"/>
      </contour>
      <contour>
        <pt x="340" y="489" on="1"/>
        <pt x="340" y="501" on="0"/>
        <pt x="357" y="518" on="0"/>
        <pt x="371" y="518" on="1"/>
        <pt x="382" y="518" on="0"/>
        <pt x="401" y="501" on="0"/>
        <pt x="401" y="489" on="1"/>
        <pt x="401" y="476" on="0"/>
        <pt x="382" y="458" on="0"/>
        <pt x="371" y="458" on="1"/>
        <pt x="357" y="458" on="0"/>
        <pt x="340" y="476" on="0"/>
      </contour>
      <contour>
        <pt x="144" y="30" on="1"/>
        <pt x="144" y="42" on="0"/>
        <pt x="162" y="61" on="0"/>
        <pt x="174" y="61" on="1"/>
        <pt x="187" y="61" on="0"/>
        <pt x="204" y="42" on="0"/>
        <pt x="204" y="30" on="1"/>
        <pt x="204" y="17" on="0"/>
        <pt x="187" y="0" on="0"/>
        <pt x="174" y="0" on="1"/>
        <pt x="162" y="0" on="0"/>
        <pt x="144" y="17" on="0"/>
      </contour>
      <contour>
        <pt x="78" y="292" on="1"/>
        <pt x="78" y="304" on="0"/>
        <pt x="95" y="322" on="0"/>
        <pt x="108" y="322" on="1"/>
        <pt x="120" y="322" on="0"/>
        <pt x="139" y="304" on="0"/>
        <pt x="139" y="292" on="1"/>
        <pt x="139" y="279" on="0"/>
        <pt x="120" y="262" on="0"/>
        <pt x="108" y="262" on="1"/>
        <pt x="95" y="262" on="0"/>
        <pt x="78" y="279" on="0"/>
      </contour>
      <contour>
        <pt x="78" y="554" on="1"/>
        <pt x="78" y="566" on="0"/>
        <pt x="95" y="584" on="0"/>
        <pt x="108" y="584" on="1"/>
        <pt x="120" y="584" on="0"/>
        <pt x="139" y="566" on="0"/>
        <pt x="139" y="554" on="1"/>
        <pt x="139" y="541" on="0"/>
        <pt x="120" y="524" on="0"/>
        <pt x="108" y="524" on="1"/>
        <pt x="95" y="524" on="0"/>
        <pt x="78" y="541" on="0"/>
      </contour>
      <contour>
        <pt x="405" y="292" on="1"/>
        <pt x="405" y="304" on="0"/>
        <pt x="424" y="322" on="0"/>
        <pt x="436" y="322" on="1"/>
        <pt x="449" y="322" on="0"/>
        <pt x="466" y="304" on="0"/>
        <pt x="466" y="292" on="1"/>
        <pt x="466" y="279" on="0"/>
        <pt x="449" y="262" on="0"/>
        <pt x="436" y="262" on="1"/>
        <pt x="424" y="262" on="0"/>
        <pt x="405" y="279" on="0"/>
      </contour>
      <contour>
        <pt x="78" y="423" on="1"/>
        <pt x="78" y="436" on="0"/>
        <pt x="95" y="453" on="0"/>
        <pt x="108" y="453" on="1"/>
        <pt x="120" y="453" on="0"/>
        <pt x="139" y="436" on="0"/>
        <pt x="139" y="423" on="1"/>
        <pt x="139" y="410" on="0"/>
        <pt x="120" y="394" on="0"/>
        <pt x="108" y="394" on="1"/>
        <pt x="95" y="394" on="0"/>
        <pt x="78" y="410" on="0"/>
      </contour>
      <contour>
        <pt x="208" y="423" on="1"/>
        <pt x="208" y="436" on="0"/>
        <pt x="227" y="453" on="0"/>
        <pt x="239" y="453" on="1"/>
        <pt x="252" y="453" on="0"/>
        <pt x="269" y="436" on="0"/>
        <pt x="269" y="423" on="1"/>
        <pt x="269" y="410" on="0"/>
        <pt x="252" y="394" on="0"/>
        <pt x="239" y="394" on="1"/>
        <pt x="227" y="394" on="0"/>
        <pt x="208" y="410" on="0"/>
      </contour>
      <contour>
        <pt x="208" y="227" on="1"/>
        <pt x="208" y="239" on="0"/>
        <pt x="227" y="256" on="0"/>
        <pt x="239" y="256" on="1"/>
        <pt x="252" y="256" on="0"/>
        <pt x="269" y="239" on="0"/>
        <pt x="269" y="227" on="1"/>
        <pt x="269" y="214" on="0"/>
        <pt x="252" y="197" on="0"/>
        <pt x="239" y="197" on="1"/>
        <pt x="227" y="197" on="0"/>
        <pt x="208" y="214" on="0"/>
      </contour>
      <contour>
        <pt x="405" y="227" on="1"/>
        <pt x="405" y="239" on="0"/>
        <pt x="424" y="256" on="0"/>
        <pt x="436" y="256" on="1"/>
        <pt x="449" y="256" on="0"/>
        <pt x="466" y="239" on="0"/>
        <pt x="466" y="227" on="1"/>
        <pt x="466" y="214" on="0"/>
        <pt x="449" y="197" on="0"/>
        <pt x="436" y="197" on="1"/>
        <pt x="424" y="197" on="0"/>
        <pt x="405" y="214" on="0"/>
      </contour>
      <contour>
        <pt x="78" y="227" on="1"/>
        <pt x="78" y="239" on="0"/>
        <pt x="95" y="256" on="0"/>
        <pt x="108" y="256" on="1"/>
        <pt x="120" y="256" on="0"/>
        <pt x="139" y="239" on="0"/>
        <pt x="139" y="227" on="1"/>
        <pt x="139" y="214" on="0"/>
        <pt x="120" y="197" on="0"/>
        <pt x="108" y="197" on="1"/>
        <pt x="95" y="197" on="0"/>
        <pt x="78" y="214" on="0"/>
      </contour>
      <contour>
        <pt x="275" y="227" on="1"/>
        <pt x="275" y="239" on="0"/>
        <pt x="292" y="256" on="0"/>
        <pt x="305" y="256" on="1"/>
        <pt x="317" y="256" on="0"/>
        <pt x="336" y="239" on="0"/>
        <pt x="336" y="227" on="1"/>
        <pt x="336" y="214" on="0"/>
        <pt x="317" y="197" on="0"/>
        <pt x="305" y="197" on="1"/>
        <pt x="292" y="197" on="0"/>
        <pt x="275" y="214" on="0"/>
      </contour>
      <contour>
        <pt x="340" y="227" on="1"/>
        <pt x="340" y="239" on="0"/>
        <pt x="357" y="256" on="0"/>
        <pt x="371" y="256" on="1"/>
        <pt x="382" y="256" on="0"/>
        <pt x="401" y="239" on="0"/>
        <pt x="401" y="227" on="1"/>
        <pt x="401" y="214" on="0"/>
        <pt x="382" y="197" on="0"/>
        <pt x="371" y="197" on="1"/>
        <pt x="357" y="197" on="0"/>
        <pt x="340" y="214" on="0"/>
      </contour>
    </TTGlyph>
    <TTGlyph name="approxequal" xMin="44" yMin="77" xMax="482" yMax="414">
      <contour>
        <pt x="342" y="281" on="1"/>
        <pt x="320" y="281" on="0"/>
        <pt x="281" y="295" on="0"/>
        <pt x="245" y="312" on="0"/>
        <pt x="212" y="326" on="0"/>
        <pt x="196" y="326" on="1"/>
        <pt x="173" y="326" on="0"/>
        <pt x="139" y="302" on="0"/>
        <pt x="122" y="277" on="1"/>
        <pt x="68" y="297" on="1"/>
        <pt x="85" y="346" on="0"/>
        <pt x="162" y="411" on="0"/>
        <pt x="207" y="411" on="1"/>
        <pt x="229" y="411" on="0"/>
        <pt x="268" y="397" on="0"/>
        <pt x="304" y="380" on="0"/>
        <pt x="337" y="366" on="0"/>
        <pt x="354" y="366" on="1"/>
        <pt x="375" y="366" on="0"/>
        <pt x="410" y="389" on="0"/>
        <pt x="428" y="414" on="1"/>
        <pt x="482" y="394" on="1"/>
        <pt x="473" y="370" on="0"/>
        <pt x="444" y="328" on="0"/>
        <pt x="407" y="298" on="0"/>
        <pt x="364" y="281" on="0"/>
      </contour>
      <contour>
        <pt x="319" y="81" on="1"/>
        <pt x="297" y="81" on="0"/>
        <pt x="258" y="95" on="0"/>
        <pt x="222" y="112" on="0"/>
        <pt x="188" y="126" on="0"/>
        <pt x="172" y="126" on="1"/>
        <pt x="149" y="126" on="0"/>
        <pt x="116" y="102" on="0"/>
        <pt x="98" y="77" on="1"/>
        <pt x="44" y="97" on="1"/>
        <pt x="53" y="121" on="0"/>
        <pt x="82" y="163" on="0"/>
        <pt x="119" y="194" on="0"/>
        <pt x="162" y="211" on="0"/>
        <pt x="184" y="211" on="1"/>
        <pt x="206" y="211" on="0"/>
        <pt x="245" y="197" on="0"/>
        <pt x="281" y="180" on="0"/>
        <pt x="314" y="166" on="0"/>
        <pt x="330" y="166" on="1"/>
        <pt x="371" y="166" on="0"/>
        <pt x="404" y="214" on="1"/>
        <pt x="458" y="194" on="1"/>
        <pt x="441" y="145" on="0"/>
        <pt x="364" y="81" on="0"/>
      </contour>
    </TTGlyph>
    <TTGlyph name="aring" xMin="31" yMin="-8" xMax="518" yMax="775">
      <component glyphName="a" x="0" y="0" flags="0x204"/>
      <component glyphName="ring" x="73" y="0" flags="0x4"/>
    </TTGlyph>
    <TTGlyph name="aringacute" xMin="31" yMin="-8" xMax="518" yMax="962">
      <component glyphName="a" x="0" y="0" flags="0x204"/>
      <component glyphName="ring" x="69" y="-17" flags="0x4"/>
      <component glyphName="acute" x="99" y="231" flags="0x4"/>
    </TTGlyph>
    <TTGlyph name="arrowdown" xMin="161" yMin="-85" xMax="621" yMax="573">
      <contour>
        <pt x="356" y="-77" on="1"/>
        <pt x="161" y="118" on="1"/>
        <pt x="205" y="161" on="1"/>
        <pt x="347" y="34" on="1"/>
        <pt x="347" y="573" on="1"/>
        <pt x="432" y="573" on="1"/>
        <pt x="432" y="32" on="1"/>
        <pt x="578" y="161" on="1"/>
        <pt x="621" y="118" on="1"/>
        <pt x="419" y="-85" on="1"/>
        <pt x="376" y="-85" on="1"/>
        <pt x="369" y="-85" on="0"/>
        <pt x="361" y="-82" on="0"/>
      </contour>
    </TTGlyph>
    <TTGlyph name="arrowdown.cap" xMin="161" yMin="1" xMax="621" yMax="659">
      <contour>
        <pt x="356" y="9" on="1"/>
        <pt x="161" y="204" on="1"/>
        <pt x="205" y="247" on="1"/>
        <pt x="347" y="120" on="1"/>
        <pt x="347" y="659" on="1"/>
        <pt x="432" y="659" on="1"/>
        <pt x="432" y="118" on="1"/>
        <pt x="578" y="247" on="1"/>
        <pt x="621" y="204" on="1"/>
        <pt x="419" y="1" on="1"/>
        <pt x="376" y="1" on="1"/>
        <pt x="369" y="1" on="0"/>
        <pt x="361" y="4" on="0"/>
      </contour>
    </TTGlyph>
    <TTGlyph name="arrowleft" xMin="62" yMin="14" xMax="720" yMax="473">
      <contour>
        <pt x="265" y="473" on="1"/>
        <pt x="308" y="430" on="1"/>
        <pt x="181" y="285" on="1"/>
        <pt x="720" y="285" on="1"/>
        <pt x="720" y="205" on="1"/>
        <pt x="180" y="205" on="1"/>
        <pt x="308" y="57" on="1"/>
        <pt x="265" y="14" on="1"/>
        <pt x="62" y="216" on="1"/>
        <pt x="62" y="259" on="1"/>
        <pt x="62" y="267" on="0"/>
        <pt x="65" y="274" on="0"/>
        <pt x="70" y="279" on="1"/>
      </contour>
    </TTGlyph>
    <TTGlyph name="arrowleft.cap" xMin="62" yMin="100" xMax="720" yMax="559">
      <contour>
        <pt x="265" y="559" on="1"/>
        <pt x="308" y="516" on="1"/>
        <pt x="181" y="371" on="1"/>
        <pt x="720" y="371" on="1"/>
        <pt x="720" y="291" on="1"/>
        <pt x="180" y="291" on="1"/>
        <pt x="308" y="143" on="1"/>
        <pt x="265" y="100" on="1"/>
        <pt x="62" y="302" on="1"/>
        <pt x="62" y="345" on="1"/>
        <pt x="62" y="353" on="0"/>
        <pt x="65" y="360" on="0"/>
        <pt x="70" y="365" on="1"/>
      </contour>
    </TTGlyph>
    <TTGlyph name="arrowright" xMin="62" yMin="17" xMax="720" yMax="476">
      <contour>
        <pt x="517" y="17" on="1"/>
        <pt x="474" y="60" on="1"/>
        <pt x="601" y="205" on="1"/>
        <pt x="62" y="205" on="1"/>
        <pt x="62" y="285" on="1"/>
        <pt x="602" y="285" on="1"/>
        <pt x="474" y="433" on="1"/>
        <pt x="517" y="476" on="1"/>
        <pt x="720" y="274" on="1"/>
        <pt x="720" y="231" on="1"/>
        <pt x="720" y="223" on="0"/>
        <pt x="717" y="216" on="0"/>
        <pt x="712" y="211" on="1"/>
      </contour>
    </TTGlyph>
    <TTGlyph name="arrowright.cap" xMin="62" yMin="103" xMax="720" yMax="562">
      <contour>
        <pt x="517" y="103" on="1"/>
        <pt x="474" y="146" on="1"/>
        <pt x="601" y="291" on="1"/>
        <pt x="62" y="291" on="1"/>
        <pt x="62" y="371" on="1"/>
        <pt x="602" y="371" on="1"/>
        <pt x="474" y="519" on="1"/>
        <pt x="517" y="562" on="1"/>
        <pt x="720" y="360" on="1"/>
        <pt x="720" y="317" on="1"/>
        <pt x="720" y="309" on="0"/>
        <pt x="717" y="302" on="0"/>
        <pt x="712" y="297" on="1"/>
      </contour>
    </TTGlyph>
    <TTGlyph name="arrowup" xMin="161" yMin="-85" xMax="621" yMax="573">
      <contour>
        <pt x="427" y="565" on="1"/>
        <pt x="621" y="370" on="1"/>
        <pt x="578" y="326" on="1"/>
        <pt x="436" y="454" on="1"/>
        <pt x="436" y="-85" on="1"/>
        <pt x="350" y="-85" on="1"/>
        <pt x="350" y="455" on="1"/>
        <pt x="205" y="326" on="1"/>
        <pt x="161" y="369" on="1"/>
        <pt x="364" y="573" on="1"/>
        <pt x="406" y="573" on="1"/>
        <pt x="414" y="573" on="0"/>
        <pt x="422" y="570" on="0"/>
      </contour>
    </TTGlyph>
    <TTGlyph name="arrowup.cap" xMin="161" yMin="1" xMax="621" yMax="659">
      <contour>
        <pt x="427" y="651" on="1"/>
        <pt x="621" y="456" on="1"/>
        <pt x="578" y="412" on="1"/>
        <pt x="436" y="540" on="1"/>
        <pt x="436" y="1" on="1"/>
        <pt x="350" y="1" on="1"/>
        <pt x="350" y="541" on="1"/>
        <pt x="205" y="412" on="1"/>
        <pt x="161" y="455" on="1"/>
        <pt x="364" y="659" on="1"/>
        <pt x="406" y="659" on="1"/>
        <pt x="414" y="659" on="0"/>
        <pt x="422" y="656" on="0"/>
      </contour>
    </TTGlyph>
    <TTGlyph name="asciicircum" xMin="87" yMin="403" xMax="481" yMax="673">
      <contour>
        <pt x="345" y="673" on="1"/>
        <pt x="481" y="450" on="1"/>
        <pt x="406" y="403" on="1"/>
        <pt x="298" y="576" on="1"/>
        <pt x="150" y="403" on="1"/>
        <pt x="87" y="451" on="1"/>
        <pt x="275" y="673" on="1"/>
      </contour>
    </TTGlyph>
    <TTGlyph name="asciitilde" xMin="69" yMin="281" xMax="483" yMax="418">
      <contour>
        <pt x="344" y="285" on="1"/>
        <pt x="322" y="285" on="0"/>
        <pt x="283" y="299" on="0"/>
        <pt x="247" y="316" on="0"/>
        <pt x="213" y="330" on="0"/>
        <pt x="197" y="330" on="1"/>
        <pt x="174" y="330" on="0"/>
        <pt x="141" y="306" on="0"/>
        <pt x="123" y="281" on="1"/>
        <pt x="69" y="301" on="1"/>
        <pt x="78" y="325" on="0"/>
        <pt x="107" y="367" on="0"/>
        <pt x="144" y="398" on="0"/>
        <pt x="187" y="415" on="0"/>
        <pt x="209" y="415" on="1"/>
        <pt x="231" y="415" on="0"/>
        <pt x="270" y="401" on="0"/>
        <pt x="306" y="384" on="0"/>
        <pt x="339" y="370" on="0"/>
        <pt x="355" y="370" on="1"/>
        <pt x="396" y="370" on="0"/>
        <pt x="429" y="418" on="1"/>
        <pt x="483" y="398" on="1"/>
        <pt x="466" y="349" on="0"/>
        <pt x="389" y="285" on="0"/>
      </contour>
    </TTGlyph>
    <TTGlyph name="asterisk" xMin="66" yMin="304" xMax="416" yMax="663">
      <contour>
        <pt x="307" y="312" on="1"/>
        <pt x="294" y="305" on="0"/>
        <pt x="288" y="317" on="1"/>
        <pt x="233" y="435" on="1"/>
        <pt x="140" y="304" on="1"/>
        <pt x="86" y="344" on="1"/>
        <pt x="79" y="349" on="0"/>
        <pt x="81" y="359" on="0"/>
        <pt x="89" y="367" on="1"/>
        <pt x="195" y="471" on="1"/>
        <pt x="66" y="507" on="1"/>
        <pt x="95" y="566" on="1"/>
        <pt x="100" y="576" on="0"/>
        <pt x="110" y="580" on="0"/>
        <pt x="120" y="574" on="1"/>
        <pt x="216" y="516" on="1"/>
        <pt x="217" y="663" on="1"/>
        <pt x="289" y="663" on="1"/>
        <pt x="302" y="663" on="0"/>
        <pt x="299" y="649" on="1"/>
        <pt x="269" y="516" on="1"/>
        <pt x="396" y="582" on="1"/>
        <pt x="413" y="522" on="1"/>
        <pt x="416" y="512" on="0"/>
        <pt x="408" y="504" on="0"/>
        <pt x="399" y="502" on="1"/>
        <pt x="280" y="471" on="1"/>
        <pt x="370" y="351" on="1"/>
      </contour>
    </TTGlyph>
    <TTGlyph name="at" xMin="38" yMin="-100" xMax="708" yMax="583">
      <contour>
        <pt x="444" y="117" on="1"/>
        <pt x="412" y="94" on="0"/>
        <pt x="366" y="75" on="0"/>
        <pt x="343" y="75" on="1"/>
        <pt x="317" y="75" on="0"/>
        <pt x="272" y="96" on="0"/>
        <pt x="238" y="135" on="0"/>
        <pt x="218" y="189" on="0"/>
        <pt x="218" y="222" on="1"/>
        <pt x="218" y="264" on="0"/>
        <pt x="245" y="333" on="0"/>
        <pt x="289" y="384" on="0"/>
        <pt x="345" y="412" on="0"/>
        <pt x="373" y="412" on="1"/>
        <pt x="393" y="412" on="0"/>
        <pt x="428" y="399" on="0"/>
        <pt x="447" y="386" on="1"/>
        <pt x="466" y="373" on="1"/>
        <pt x="482" y="406" on="1"/>
        <pt x="530" y="401" on="1"/>
        <pt x="504" y="197" on="1"/>
        <pt x="503" y="190" on="0"/>
        <pt x="502" y="177" on="0"/>
        <pt x="502" y="172" on="1"/>
        <pt x="502" y="158" on="0"/>
        <pt x="520" y="139" on="0"/>
        <pt x="540" y="139" on="1"/>
        <pt x="562" y="139" on="0"/>
        <pt x="597" y="162" on="0"/>
        <pt x="621" y="204" on="0"/>
        <pt x="633" y="261" on="0"/>
        <pt x="633" y="295" on="1"/>
        <pt x="633" y="345" on="0"/>
        <pt x="598" y="424" on="0"/>
        <pt x="537" y="478" on="0"/>
        <pt x="455" y="507" on="0"/>
        <pt x="407" y="507" on="1"/>
        <pt x="343" y="507" on="0"/>
        <pt x="239" y="462" on="0"/>
        <pt x="165" y="383" on="0"/>
        <pt x="125" y="275" on="0"/>
        <pt x="125" y="212" on="1"/>
        <pt x="125" y="156" on="0"/>
        <pt x="160" y="68" on="0"/>
        <pt x="224" y="7" on="0"/>
        <pt x="314" y="-25" on="0"/>
        <pt x="370" y="-25" on="1"/>
        <pt x="418" y="-25" on="0"/>
        <pt x="541" y="10" on="0"/>
        <pt x="616" y="41" on="1"/>
        <pt x="640" y="-3" on="1"/>
        <pt x="577" y="-47" on="0"/>
        <pt x="429" y="-100" on="0"/>
        <pt x="348" y="-100" on="1"/>
        <pt x="279" y="-100" on="0"/>
        <pt x="165" y="-53" on="0"/>
        <pt x="83" y="30" on="0"/>
        <pt x="38" y="142" on="0"/>
        <pt x="38" y="208" on="1"/>
        <pt x="38" y="284" on="0"/>
        <pt x="94" y="420" on="0"/>
        <pt x="194" y="523" on="0"/>
        <pt x="331" y="583" on="0"/>
        <pt x="411" y="583" on="1"/>
        <pt x="472" y="583" on="0"/>
        <pt x="581" y="542" on="0"/>
        <pt x="661" y="467" on="0"/>
        <pt x="708" y="364" on="0"/>
        <pt x="708" y="303" on="1"/>
        <pt x="708" y="258" on="0"/>
        <pt x="683" y="176" on="0"/>
        <pt x="636" y="115" on="0"/>
        <pt x="572" y="78" on="0"/>
        <pt x="533" y="78" on="1"/>
        <pt x="501" y="78" on="0"/>
        <pt x="458" y="100" on="0"/>
      </contour>
      <contour>
        <pt x="445" y="310" on="1"/>
        <pt x="446" y="315" on="0"/>
        <pt x="443" y="323" on="0"/>
        <pt x="436" y="327" on="1"/>
        <pt x="425" y="334" on="0"/>
        <pt x="395" y="341" on="0"/>
        <pt x="382" y="341" on="1"/>
        <pt x="338" y="341" on="0"/>
        <pt x="295" y="274" on="0"/>
        <pt x="295" y="225" on="1"/>
        <pt x="295" y="188" on="0"/>
        <pt x="328" y="148" on="0"/>
        <pt x="360" y="148" on="1"/>
        <pt x="376" y="148" on="0"/>
        <pt x="406" y="157" on="0"/>
        <pt x="417" y="164" on="1"/>
        <pt x="423" y="169" on="0"/>
        <pt x="427" y="175" on="0"/>
        <pt x="428" y="182" on="1"/>
      </contour>
    </TTGlyph>
    <TTGlyph name="at.cap" xMin="51" yMin="-10" xMax="721" yMax="673">
      <component glyphName="at" x="13" y="90" flags="0x204"/>
    </TTGlyph>
    <TTGlyph name="atilde" xMin="31" yMin="-8" xMax="518" yMax="685">
      <component glyphName="a" x="0" y="0" flags="0x204"/>
      <component glyphName="tilde" x="74" y="0" flags="0x4"/>
    </TTGlyph>
    <TTGlyph name="b" xMin="37" yMin="-8" xMax="507" yMax="709">
      <contour>
        <pt x="187" y="446" on="1"/>
        <pt x="210" y="459" on="1"/>
        <pt x="243" y="478" on="0"/>
        <pt x="298" y="496" on="0"/>
        <pt x="328" y="496" on="1"/>
        <pt x="365" y="496" on="0"/>
        <pt x="430" y="464" on="0"/>
        <pt x="479" y="405" on="0"/>
        <pt x="507" y="325" on="0"/>
        <pt x="507" y="277" on="1"/>
        <pt x="507" y="215" on="0"/>
        <pt x="469" y="111" on="0"/>
        <pt x="406" y="35" on="0"/>
        <pt x="323" y="-8" on="0"/>
        <pt x="277" y="-8" on="1"/>
        <pt x="245" y="-8" on="0"/>
        <pt x="181" y="13" on="0"/>
        <pt x="149" y="32" on="1"/>
        <pt x="127" y="45" on="1"/>
        <pt x="105" y="-2" on="1"/>
        <pt x="37" y="4" on="1"/>
        <pt x="120" y="709" on="1"/>
        <pt x="218" y="709" on="1"/>
      </contour>
      <contour>
        <pt x="149" y="129" on="1"/>
        <pt x="148" y="120" on="0"/>
        <pt x="152" y="111" on="0"/>
        <pt x="161" y="106" on="1"/>
        <pt x="178" y="97" on="0"/>
        <pt x="238" y="81" on="0"/>
        <pt x="262" y="81" on="1"/>
        <pt x="328" y="81" on="0"/>
        <pt x="408" y="183" on="0"/>
        <pt x="408" y="277" on="1"/>
        <pt x="408" y="340" on="0"/>
        <pt x="354" y="406" on="0"/>
        <pt x="303" y="406" on="1"/>
        <pt x="276" y="406" on="0"/>
        <pt x="217" y="388" on="0"/>
        <pt x="192" y="373" on="1"/>
        <pt x="182" y="367" on="0"/>
        <pt x="177" y="355" on="0"/>
        <pt x="175" y="343" on="1"/>
      </contour>
    </TTGlyph>
    <TTGlyph name="backslash" xMin="58" yMin="0" xMax="403" yMax="663">
      <contour>
        <pt x="301" y="0" on="1"/>
        <pt x="58" y="663" on="1"/>
        <pt x="159" y="663" on="1"/>
        <pt x="403" y="0" on="1"/>
      </contour>
    </TTGlyph>
    <TTGlyph name="bar" xMin="23" yMin="-229" xMax="226" yMax="709">
      <contour>
        <pt x="134" y="709" on="1"/>
        <pt x="226" y="709" on="1"/>
        <pt x="115" y="-229" on="1"/>
        <pt x="23" y="-229" on="1"/>
      </contour>
    </TTGlyph>
    <TTGlyph name="braceleft" xMin="42" yMin="-238" xMax="393" yMax="673">
      <contour>
        <pt x="50" y="250" on="1"/>
        <pt x="86" y="259" on="0"/>
        <pt x="132" y="280" on="0"/>
        <pt x="157" y="309" on="0"/>
        <pt x="167" y="349" on="0"/>
        <pt x="167" y="378" on="1"/>
        <pt x="167" y="391" on="0"/>
        <pt x="165" y="428" on="0"/>
        <pt x="162" y="468" on="0"/>
        <pt x="160" y="507" on="0"/>
        <pt x="160" y="522" on="1"/>
        <pt x="160" y="596" on="0"/>
        <pt x="237" y="673" on="0"/>
        <pt x="303" y="673" on="1"/>
        <pt x="326" y="673" on="0"/>
        <pt x="373" y="664" on="0"/>
        <pt x="393" y="658" on="1"/>
        <pt x="386" y="602" on="1"/>
        <pt x="295" y="585" on="1"/>
        <pt x="272" y="580" on="0"/>
        <pt x="254" y="560" on="0"/>
        <pt x="254" y="537" on="1"/>
        <pt x="254" y="525" on="0"/>
        <pt x="256" y="486" on="0"/>
        <pt x="259" y="445" on="0"/>
        <pt x="261" y="405" on="0"/>
        <pt x="261" y="391" on="1"/>
        <pt x="261" y="352" on="0"/>
        <pt x="245" y="297" on="0"/>
        <pt x="214" y="257" on="0"/>
        <pt x="167" y="229" on="0"/>
        <pt x="136" y="217" on="1"/>
        <pt x="183" y="198" on="0"/>
        <pt x="228" y="145" on="0"/>
        <pt x="228" y="100" on="1"/>
        <pt x="228" y="75" on="0"/>
        <pt x="213" y="11" on="0"/>
        <pt x="194" y="-51" on="0"/>
        <pt x="179" y="-104" on="0"/>
        <pt x="179" y="-119" on="1"/>
        <pt x="179" y="-133" on="0"/>
        <pt x="194" y="-148" on="0"/>
        <pt x="212" y="-152" on="1"/>
        <pt x="296" y="-168" on="1"/>
        <pt x="289" y="-223" on="1"/>
        <pt x="269" y="-229" on="0"/>
        <pt x="218" y="-238" on="0"/>
        <pt x="198" y="-238" on="1"/>
        <pt x="142" y="-238" on="0"/>
        <pt x="84" y="-176" on="0"/>
        <pt x="84" y="-130" on="1"/>
        <pt x="84" y="-105" on="0"/>
        <pt x="99" y="-40" on="0"/>
        <pt x="118" y="25" on="0"/>
        <pt x="133" y="85" on="0"/>
        <pt x="133" y="106" on="1"/>
        <pt x="133" y="138" on="0"/>
        <pt x="90" y="173" on="0"/>
        <pt x="42" y="182" on="1"/>
      </contour>
    </TTGlyph>
    <TTGlyph name="braceleft.cap" xMin="56" yMin="-124" xMax="407" yMax="787">
      <component glyphName="braceleft" x="14" y="114" flags="0x204"/>
    </TTGlyph>
    <TTGlyph name="braceright" xMin="-53" yMin="-238" xMax="298" yMax="673">
      <contour>
        <pt x="290" y="185" on="1"/>
        <pt x="254" y="176" on="0"/>
        <pt x="208" y="155" on="0"/>
        <pt x="183" y="126" on="0"/>
        <pt x="173" y="85" on="0"/>
        <pt x="173" y="57" on="1"/>
        <pt x="173" y="44" on="0"/>
        <pt x="175" y="7" on="0"/>
        <pt x="178" y="-33" on="0"/>
        <pt x="180" y="-72" on="0"/>
        <pt x="180" y="-87" on="1"/>
        <pt x="180" y="-161" on="0"/>
        <pt x="103" y="-238" on="0"/>
        <pt x="37" y="-238" on="1"/>
        <pt x="14" y="-238" on="0"/>
        <pt x="-33" y="-229" on="0"/>
        <pt x="-53" y="-223" on="1"/>
        <pt x="-46" y="-167" on="1"/>
        <pt x="45" y="-150" on="1"/>
        <pt x="68" y="-145" on="0"/>
        <pt x="86" y="-125" on="0"/>
        <pt x="86" y="-102" on="1"/>
        <pt x="86" y="-90" on="0"/>
        <pt x="84" y="-51" on="0"/>
        <pt x="81" y="-10" on="0"/>
        <pt x="79" y="30" on="0"/>
        <pt x="79" y="44" on="1"/>
        <pt x="79" y="83" on="0"/>
        <pt x="95" y="138" on="0"/>
        <pt x="126" y="178" on="0"/>
        <pt x="173" y="206" on="0"/>
        <pt x="204" y="218" on="1"/>
        <pt x="157" y="237" on="0"/>
        <pt x="112" y="290" on="0"/>
        <pt x="112" y="335" on="1"/>
        <pt x="112" y="360" on="0"/>
        <pt x="127" y="424" on="0"/>
        <pt x="146" y="486" on="0"/>
        <pt x="161" y="539" on="0"/>
        <pt x="161" y="554" on="1"/>
        <pt x="161" y="568" on="0"/>
        <pt x="146" y="583" on="0"/>
        <pt x="128" y="587" on="1"/>
        <pt x="44" y="603" on="1"/>
        <pt x="51" y="658" on="1"/>
        <pt x="71" y="664" on="0"/>
        <pt x="122" y="673" on="0"/>
        <pt x="142" y="673" on="1"/>
        <pt x="198" y="673" on="0"/>
        <pt x="256" y="611" on="0"/>
        <pt x="256" y="565" on="1"/>
        <pt x="256" y="539" on="0"/>
        <pt x="241" y="475" on="0"/>
        <pt x="222" y="410" on="0"/>
        <pt x="207" y="350" on="0"/>
        <pt x="207" y="329" on="1"/>
        <pt x="207" y="297" on="0"/>
        <pt x="250" y="262" on="0"/>
        <pt x="298" y="253" on="1"/>
      </contour>
    </TTGlyph>
    <TTGlyph name="braceright.cap" xMin="-36" yMin="-124" xMax="315" yMax="787">
      <component glyphName="braceright" x="17" y="114" flags="0x204"/>
    </TTGlyph>
    <TTGlyph name="bracketleft" xMin="26" yMin="-229" xMax="356" yMax="663">
      <contour>
        <pt x="131" y="663" on="1"/>
        <pt x="356" y="663" on="1"/>
        <pt x="345" y="574" on="1"/>
        <pt x="216" y="574" on="1"/>
        <pt x="133" y="-140" on="1"/>
        <pt x="262" y="-140" on="1"/>
        <pt x="251" y="-229" on="1"/>
        <pt x="26" y="-229" on="1"/>
      </contour>
    </TTGlyph>
    <TTGlyph name="bracketleft.cap" xMin="38" yMin="-114" xMax="368" yMax="778">
      <component glyphName="bracketleft" x="12" y="115" flags="0x4"/>
    </TTGlyph>
    <TTGlyph name="bracketright" xMin="-41" yMin="-229" xMax="289" yMax="663">
      <contour>
        <pt x="184" y="-229" on="1"/>
        <pt x="-41" y="-229" on="1"/>
        <pt x="-30" y="-140" on="1"/>
        <pt x="99" y="-140" on="1"/>
        <pt x="182" y="574" on="1"/>
        <pt x="53" y="574" on="1"/>
        <pt x="64" y="663" on="1"/>
        <pt x="289" y="663" on="1"/>
      </contour>
    </TTGlyph>
    <TTGlyph name="bracketright.cap" xMin="-28" yMin="-114" xMax="302" yMax="778">
      <component glyphName="bracketright" x="13" y="115" flags="0x4"/>
    </TTGlyph>
    <TTGlyph name="breve" xMin="94" yMin="553" xMax="400" yMax="704">
      <contour>
        <pt x="235" y="553" on="1"/>
        <pt x="167" y="553" on="0"/>
        <pt x="96" y="632" on="0"/>
        <pt x="94" y="693" on="1"/>
        <pt x="156" y="704" on="1"/>
        <pt x="164" y="669" on="0"/>
        <pt x="204" y="630" on="0"/>
        <pt x="239" y="630" on="1"/>
        <pt x="275" y="630" on="0"/>
        <pt x="323" y="669" on="0"/>
        <pt x="340" y="704" on="1"/>
        <pt x="400" y="693" on="1"/>
        <pt x="383" y="630" on="0"/>
        <pt x="296" y="553" on="0"/>
      </contour>
    </TTGlyph>
    <TTGlyph name="breve.cap" xMin="116" yMin="731" xMax="422" yMax="882">
      <contour>
        <pt x="257" y="731" on="1"/>
        <pt x="189" y="731" on="0"/>
        <pt x="118" y="810" on="0"/>
        <pt x="116" y="871" on="1"/>
        <pt x="178" y="882" on="1"/>
        <pt x="186" y="847" on="0"/>
        <pt x="226" y="808" on="0"/>
        <pt x="261" y="808" on="1"/>
        <pt x="297" y="808" on="0"/>
        <pt x="345" y="847" on="0"/>
        <pt x="362" y="882" on="1"/>
        <pt x="422" y="871" on="1"/>
        <pt x="405" y="808" on="0"/>
        <pt x="318" y="731" on="0"/>
      </contour>
    </TTGlyph>
    <TTGlyph name="brokenbar" xMin="23" yMin="-229" xMax="226" yMax="709">
      <contour>
        <pt x="134" y="709" on="1"/>
        <pt x="226" y="709" on="1"/>
        <pt x="177" y="291" on="1"/>
        <pt x="85" y="291" on="1"/>
      </contour>
      <contour>
        <pt x="72" y="189" on="1"/>
        <pt x="164" y="189" on="1"/>
        <pt x="115" y="-229" on="1"/>
        <pt x="23" y="-229" on="1"/>
      </contour>
    </TTGlyph>
    <TTGlyph name="bullet" xMin="56" yMin="180" xMax="284" yMax="382">
      <contour>
        <pt x="259" y="180" on="1"/>
        <pt x="56" y="180" on="1"/>
        <pt x="79" y="382" on="1"/>
        <pt x="261" y="382" on="1"/>
        <pt x="284" y="382" on="0"/>
        <pt x="281" y="362" on="1"/>
      </contour>
    </TTGlyph>
    <TTGlyph name="bullet.cap" xMin="68" yMin="230" xMax="296" yMax="432">
      <component glyphName="bullet" x="12" y="50" flags="0x204"/>
    </TTGlyph>
    <TTGlyph name="c" xMin="31" yMin="-8" xMax="468" yMax="496">
      <contour>
        <pt x="397" y="313" on="1"/>
        <pt x="363" y="348" on="1"/>
        <pt x="331" y="381" on="0"/>
        <pt x="291" y="405" on="0"/>
        <pt x="267" y="405" on="1"/>
        <pt x="238" y="405" on="0"/>
        <pt x="188" y="376" on="0"/>
        <pt x="151" y="325" on="0"/>
        <pt x="130" y="257" on="0"/>
        <pt x="130" y="219" on="1"/>
        <pt x="130" y="153" on="0"/>
        <pt x="193" y="82" on="0"/>
        <pt x="253" y="82" on="1"/>
        <pt x="277" y="82" on="0"/>
        <pt x="331" y="93" on="0"/>
        <pt x="369" y="107" on="1"/>
        <pt x="426" y="127" on="1"/>
        <pt x="456" y="74" on="1"/>
        <pt x="436" y="57" on="0"/>
        <pt x="385" y="27" on="0"/>
        <pt x="329" y="5" on="0"/>
        <pt x="270" y="-8" on="0"/>
        <pt x="243" y="-8" on="1"/>
        <pt x="192" y="-8" on="0"/>
        <pt x="113" y="26" on="0"/>
        <pt x="59" y="86" on="0"/>
        <pt x="31" y="167" on="0"/>
        <pt x="31" y="213" on="1"/>
        <pt x="31" y="270" on="0"/>
        <pt x="68" y="372" on="0"/>
        <pt x="136" y="450" on="0"/>
        <pt x="228" y="496" on="0"/>
        <pt x="284" y="496" on="1"/>
        <pt x="351" y="496" on="0"/>
        <pt x="448" y="414" on="0"/>
        <pt x="468" y="345" on="1"/>
      </contour>
    </TTGlyph>
    <TTGlyph name="cacute" xMin="31" yMin="-8" xMax="468" yMax="731">
      <component glyphName="c" x="0" y="0" flags="0x204"/>
      <component glyphName="acute" x="70" y="0" flags="0x4"/>
    </TTGlyph>
    <TTGlyph name="caron" xMin="78" yMin="549" xMax="406" yMax="727">
      <contour>
        <pt x="124" y="727" on="1"/>
        <pt x="234" y="629" on="1"/>
        <pt x="237" y="629" on="1"/>
        <pt x="371" y="727" on="1"/>
        <pt x="406" y="687" on="1"/>
        <pt x="270" y="561" on="1"/>
        <pt x="262" y="554" on="0"/>
        <pt x="251" y="549" on="0"/>
        <pt x="240" y="549" on="1"/>
        <pt x="212" y="549" on="1"/>
        <pt x="201" y="549" on="0"/>
        <pt x="193" y="552" on="0"/>
        <pt x="186" y="560" on="1"/>
        <pt x="78" y="687" on="1"/>
      </contour>
    </TTGlyph>
    <TTGlyph name="caron.cap" xMin="114" yMin="729" xMax="442" yMax="907">
      <contour>
        <pt x="160" y="907" on="1"/>
        <pt x="270" y="809" on="1"/>
        <pt x="273" y="809" on="1"/>
        <pt x="407" y="907" on="1"/>
        <pt x="442" y="867" on="1"/>
        <pt x="306" y="741" on="1"/>
        <pt x="298" y="734" on="0"/>
        <pt x="287" y="729" on="0"/>
        <pt x="276" y="729" on="1"/>
        <pt x="248" y="729" on="1"/>
        <pt x="237" y="729" on="0"/>
        <pt x="229" y="732" on="0"/>
        <pt x="222" y="740" on="1"/>
        <pt x="114" y="867" on="1"/>
      </contour>
    </TTGlyph>
    <TTGlyph name="ccaron" xMin="31" yMin="-8" xMax="473" yMax="727">
      <component glyphName="c" x="0" y="0" flags="0x204"/>
      <component glyphName="caron" x="67" y="0" flags="0x4"/>
    </TTGlyph>
    <TTGlyph name="ccedilla" xMin="31" yMin="-235" xMax="468" yMax="496">
      <contour>
        <pt x="397" y="313" on="1"/>
        <pt x="363" y="348" on="1"/>
        <pt x="331" y="381" on="0"/>
        <pt x="291" y="405" on="0"/>
        <pt x="267" y="405" on="1"/>
        <pt x="238" y="405" on="0"/>
        <pt x="188" y="376" on="0"/>
        <pt x="151" y="325" on="0"/>
        <pt x="130" y="257" on="0"/>
        <pt x="130" y="219" on="1"/>
        <pt x="130" y="153" on="0"/>
        <pt x="193" y="82" on="0"/>
        <pt x="253" y="82" on="1"/>
        <pt x="277" y="82" on="0"/>
        <pt x="331" y="93" on="0"/>
        <pt x="369" y="107" on="1"/>
        <pt x="426" y="127" on="1"/>
        <pt x="456" y="74" on="1"/>
        <pt x="419" y="42" on="0"/>
        <pt x="311" y="-3" on="0"/>
        <pt x="259" y="-7" on="1"/>
        <pt x="253" y="-15" on="0"/>
        <pt x="245" y="-33" on="0"/>
        <pt x="245" y="-41" on="1"/>
        <pt x="245" y="-50" on="0"/>
        <pt x="275" y="-61" on="0"/>
        <pt x="310" y="-77" on="0"/>
        <pt x="340" y="-103" on="0"/>
        <pt x="340" y="-127" on="1"/>
        <pt x="340" y="-157" on="0"/>
        <pt x="304" y="-197" on="0"/>
        <pt x="250" y="-222" on="0"/>
        <pt x="185" y="-234" on="0"/>
        <pt x="156" y="-235" on="1"/>
        <pt x="152" y="-179" on="1"/>
        <pt x="212" y="-167" on="1"/>
        <pt x="235" y="-162" on="0"/>
        <pt x="253" y="-148" on="0"/>
        <pt x="253" y="-140" on="1"/>
        <pt x="253" y="-131" on="0"/>
        <pt x="225" y="-120" on="0"/>
        <pt x="192" y="-106" on="0"/>
        <pt x="164" y="-87" on="0"/>
        <pt x="164" y="-70" on="1"/>
        <pt x="164" y="-54" on="0"/>
        <pt x="186" y="-18" on="0"/>
        <pt x="201" y="-4" on="1"/>
        <pt x="160" y="2" on="0"/>
        <pt x="96" y="41" on="0"/>
        <pt x="53" y="98" on="0"/>
        <pt x="31" y="172" on="0"/>
        <pt x="31" y="213" on="1"/>
        <pt x="31" y="270" on="0"/>
        <pt x="68" y="372" on="0"/>
        <pt x="136" y="450" on="0"/>
        <pt x="228" y="496" on="0"/>
        <pt x="284" y="496" on="1"/>
        <pt x="351" y="496" on="0"/>
        <pt x="448" y="414" on="0"/>
        <pt x="468" y="345" on="1"/>
      </contour>
    </TTGlyph>
    <TTGlyph name="ccircumflex" xMin="31" yMin="-8" xMax="468" yMax="719">
      <component glyphName="c" x="0" y="0" flags="0x204"/>
      <component glyphName="circumflex" x="73" y="0" flags="0x4"/>
    </TTGlyph>
    <TTGlyph name="cdotaccent" xMin="31" yMin="-8" xMax="468" yMax="663">
      <component glyphName="c" x="0" y="0" flags="0x204"/>
      <component glyphName="dotaccent" x="82" y="0" flags="0x4"/>
    </TTGlyph>
    <TTGlyph name="cedilla" xMin="97" yMin="-235" xMax="285" yMax="12">
      <contour>
        <pt x="216" y="6" on="1"/>
        <pt x="207" y="-3" on="0"/>
        <pt x="190" y="-30" on="0"/>
        <pt x="190" y="-41" on="1"/>
        <pt x="190" y="-50" on="0"/>
        <pt x="220" y="-61" on="0"/>
        <pt x="255" y="-77" on="0"/>
        <pt x="285" y="-103" on="0"/>
        <pt x="285" y="-127" on="1"/>
        <pt x="285" y="-157" on="0"/>
        <pt x="249" y="-197" on="0"/>
        <pt x="195" y="-222" on="0"/>
        <pt x="130" y="-234" on="0"/>
        <pt x="101" y="-235" on="1"/>
        <pt x="97" y="-179" on="1"/>
        <pt x="157" y="-167" on="1"/>
        <pt x="180" y="-162" on="0"/>
        <pt x="198" y="-148" on="0"/>
        <pt x="198" y="-140" on="1"/>
        <pt x="198" y="-131" on="0"/>
        <pt x="170" y="-120" on="0"/>
        <pt x="137" y="-106" on="0"/>
        <pt x="109" y="-87" on="0"/>
        <pt x="109" y="-70" on="1"/>
        <pt x="109" y="-49" on="0"/>
        <pt x="146" y="-2" on="0"/>
        <pt x="165" y="12" on="1"/>
      </contour>
    </TTGlyph>
    <TTGlyph name="cent" xMin="96" yMin="-116" xMax="533" yMax="609">
      <contour>
        <pt x="462" y="313" on="1"/>
        <pt x="428" y="348" on="1"/>
        <pt x="397" y="379" on="0"/>
        <pt x="377" y="392" on="1"/>
        <pt x="341" y="83" on="1"/>
        <pt x="361" y="85" on="0"/>
        <pt x="405" y="96" on="0"/>
        <pt x="434" y="107" on="1"/>
        <pt x="491" y="127" on="1"/>
        <pt x="521" y="74" on="1"/>
        <pt x="485" y="43" on="0"/>
        <pt x="380" y="-2" on="0"/>
        <pt x="329" y="-7" on="1"/>
        <pt x="307" y="-116" on="1"/>
        <pt x="256" y="-116" on="1"/>
        <pt x="269" y="-5" on="1"/>
        <pt x="227" y="1" on="0"/>
        <pt x="162" y="40" on="0"/>
        <pt x="119" y="98" on="0"/>
        <pt x="96" y="171" on="0"/>
        <pt x="96" y="213" on="1"/>
        <pt x="96" y="267" on="0"/>
        <pt x="130" y="366" on="0"/>
        <pt x="192" y="442" on="0"/>
        <pt x="278" y="491" on="0"/>
        <pt x="329" y="495" on="1"/>
        <pt x="352" y="609" on="1"/>
        <pt x="403" y="609" on="1"/>
        <pt x="389" y="491" on="1"/>
        <pt x="441" y="480" on="0"/>
        <pt x="516" y="403" on="0"/>
        <pt x="533" y="345" on="1"/>
      </contour>
      <contour>
        <pt x="195" y="219" on="1"/>
        <pt x="195" y="165" on="0"/>
        <pt x="238" y="97" on="0"/>
        <pt x="280" y="86" on="1"/>
        <pt x="318" y="404" on="1"/>
        <pt x="291" y="400" on="0"/>
        <pt x="246" y="368" on="0"/>
        <pt x="213" y="319" on="0"/>
        <pt x="195" y="255" on="0"/>
      </contour>
    </TTGlyph>
    <TTGlyph name="cent.lprop" xMin="52" yMin="-116" xMax="489" yMax="609">
      <component glyphName="cent" x="-44" y="0" flags="0x4"/>
    </TTGlyph>
    <TTGlyph name="cent.oprop" xMin="54" yMin="-116" xMax="454" yMax="542">
      <component glyphName="cent.otab" x="-56" y="0" flags="0x4"/>
    </TTGlyph>
    <TTGlyph name="cent.otab" xMin="110" yMin="-116" xMax="510" yMax="542">
      <contour>
        <pt x="444" y="274" on="1"/>
        <pt x="415" y="304" on="1"/>
        <pt x="385" y="335" on="0"/>
        <pt x="360" y="345" on="1"/>
        <pt x="329" y="80" on="1"/>
        <pt x="367" y="85" on="0"/>
        <pt x="407" y="99" on="1"/>
        <pt x="456" y="116" on="1"/>
        <pt x="487" y="65" on="1"/>
        <pt x="455" y="38" on="0"/>
        <pt x="364" y="-2" on="0"/>
        <pt x="319" y="-7" on="1"/>
        <pt x="298" y="-116" on="1"/>
        <pt x="257" y="-116" on="1"/>
        <pt x="270" y="-6" on="1"/>
        <pt x="231" y="-2" on="0"/>
        <pt x="172" y="31" on="0"/>
        <pt x="131" y="83" on="0"/>
        <pt x="110" y="150" on="0"/>
        <pt x="110" y="188" on="1"/>
        <pt x="110" y="237" on="0"/>
        <pt x="142" y="325" on="0"/>
        <pt x="198" y="394" on="0"/>
        <pt x="276" y="436" on="0"/>
        <pt x="323" y="439" on="1"/>
        <pt x="343" y="542" on="1"/>
        <pt x="384" y="542" on="1"/>
        <pt x="371" y="435" on="1"/>
        <pt x="419" y="424" on="0"/>
        <pt x="495" y="356" on="0"/>
        <pt x="510" y="305" on="1"/>
      </contour>
      <contour>
        <pt x="204" y="195" on="1"/>
        <pt x="204" y="147" on="0"/>
        <pt x="243" y="89" on="0"/>
        <pt x="281" y="81" on="1"/>
        <pt x="313" y="351" on="1"/>
        <pt x="262" y="346" on="0"/>
        <pt x="204" y="258" on="0"/>
      </contour>
    </TTGlyph>
    <TTGlyph name="circumflex" xMin="65" yMin="541" xMax="393" yMax="719">
      <contour>
        <pt x="237" y="639" on="1"/>
        <pt x="234" y="639" on="1"/>
        <pt x="100" y="541" on="1"/>
        <pt x="65" y="581" on="1"/>
        <pt x="201" y="707" on="1"/>
        <pt x="209" y="714" on="0"/>
        <pt x="220" y="719" on="0"/>
        <pt x="231" y="719" on="1"/>
        <pt x="259" y="719" on="1"/>
        <pt x="270" y="719" on="0"/>
        <pt x="278" y="716" on="0"/>
        <pt x="285" y="708" on="1"/>
        <pt x="393" y="581" on="1"/>
        <pt x="347" y="541" on="1"/>
      </contour>
    </TTGlyph>
    <TTGlyph name="circumflex.cap" xMin="91" yMin="719" xMax="419" yMax="897">
      <contour>
        <pt x="263" y="817" on="1"/>
        <pt x="260" y="817" on="1"/>
        <pt x="126" y="719" on="1"/>
        <pt x="91" y="759" on="1"/>
        <pt x="227" y="885" on="1"/>
        <pt x="235" y="892" on="0"/>
        <pt x="246" y="897" on="0"/>
        <pt x="257" y="897" on="1"/>
        <pt x="285" y="897" on="1"/>
        <pt x="296" y="897" on="0"/>
        <pt x="304" y="894" on="0"/>
        <pt x="311" y="886" on="1"/>
        <pt x="419" y="759" on="1"/>
        <pt x="373" y="719" on="1"/>
      </contour>
    </TTGlyph>
    <TTGlyph name="colon" xMin="24" yMin="0" xMax="184" yMax="431">
      <contour>
        <pt x="37" y="112" on="1"/>
        <pt x="127" y="112" on="1"/>
        <pt x="138" y="112" on="0"/>
        <pt x="146" y="106" on="0"/>
        <pt x="144" y="95" on="1"/>
        <pt x="133" y="0" on="1"/>
        <pt x="24" y="0" on="1"/>
      </contour>
      <contour>
        <pt x="75" y="431" on="1"/>
        <pt x="165" y="431" on="1"/>
        <pt x="176" y="431" on="0"/>
        <pt x="184" y="425" on="0"/>
        <pt x="182" y="414" on="1"/>
        <pt x="171" y="319" on="1"/>
        <pt x="62" y="319" on="1"/>
      </contour>
    </TTGlyph>
    <TTGlyph name="comma" xMin="-22" yMin="-153" xMax="145" yMax="112">
      <contour>
        <pt x="50" y="-16" on="1"/>
        <pt x="54" y="-10" on="0"/>
        <pt x="53" y="-5" on="0"/>
        <pt x="49" y="0" on="1"/>
        <pt x="38" y="12" on="1"/>
        <pt x="30" y="20" on="0"/>
        <pt x="27" y="30" on="0"/>
        <pt x="29" y="43" on="1"/>
        <pt x="37" y="112" on="1"/>
        <pt x="128" y="112" on="1"/>
        <pt x="145" y="112" on="0"/>
        <pt x="144" y="95" on="1"/>
        <pt x="137" y="34" on="1"/>
        <pt x="134" y="9" on="0"/>
        <pt x="120" y="-31" on="0"/>
        <pt x="91" y="-73" on="0"/>
        <pt x="44" y="-121" on="0"/>
        <pt x="8" y="-153" on="1"/>
        <pt x="-22" y="-125" on="1"/>
      </contour>
    </TTGlyph>
    <TTGlyph name="commaaccent" xMin="86" yMin="-276" xMax="219" yMax="-58">
      <contour>
        <pt x="86" y="-265" on="1"/>
        <pt x="133" y="-58" on="1"/>
        <pt x="198" y="-58" on="1"/>
        <pt x="207" y="-58" on="0"/>
        <pt x="215" y="-62" on="0"/>
        <pt x="217" y="-72" on="1"/>
        <pt x="218" y="-77" on="0"/>
        <pt x="219" y="-92" on="0"/>
        <pt x="219" y="-98" on="1"/>
        <pt x="219" y="-112" on="0"/>
        <pt x="209" y="-142" on="0"/>
        <pt x="197" y="-163" on="1"/>
        <pt x="133" y="-276" on="1"/>
      </contour>
    </TTGlyph>
    <TTGlyph name="copyright" xMin="52" yMin="-10" xMax="708" yMax="673">
      <contour>
        <pt x="490" y="235" on="1"/>
        <pt x="464" y="215" on="0"/>
        <pt x="398" y="185" on="0"/>
        <pt x="363" y="185" on="1"/>
        <pt x="304" y="185" on="0"/>
        <pt x="239" y="262" on="0"/>
        <pt x="239" y="319" on="1"/>
        <pt x="239" y="350" on="0"/>
        <pt x="262" y="409" on="0"/>
        <pt x="302" y="455" on="0"/>
        <pt x="356" y="483" on="0"/>
        <pt x="388" y="483" on="1"/>
        <pt x="430" y="483" on="0"/>
        <pt x="491" y="434" on="0"/>
        <pt x="504" y="392" on="1"/>
        <pt x="460" y="367" on="1"/>
        <pt x="435" y="396" on="1"/>
        <pt x="424" y="409" on="0"/>
        <pt x="401" y="421" on="0"/>
        <pt x="384" y="421" on="1"/>
        <pt x="367" y="421" on="0"/>
        <pt x="338" y="405" on="0"/>
        <pt x="317" y="377" on="0"/>
        <pt x="305" y="341" on="0"/>
        <pt x="305" y="321" on="1"/>
        <pt x="305" y="289" on="0"/>
        <pt x="337" y="248" on="0"/>
        <pt x="372" y="248" on="1"/>
        <pt x="386" y="248" on="0"/>
        <pt x="413" y="254" on="0"/>
        <pt x="431" y="260" on="1"/>
        <pt x="471" y="273" on="1"/>
      </contour>
      <contour>
        <pt x="133" y="302" on="1"/>
        <pt x="133" y="252" on="0"/>
        <pt x="163" y="166" on="0"/>
        <pt x="220" y="103" on="0"/>
        <pt x="302" y="67" on="0"/>
        <pt x="353" y="67" on="1"/>
        <pt x="414" y="67" on="0"/>
        <pt x="515" y="112" on="0"/>
        <pt x="587" y="192" on="0"/>
        <pt x="627" y="298" on="0"/>
        <pt x="627" y="360" on="1"/>
        <pt x="627" y="410" on="0"/>
        <pt x="597" y="496" on="0"/>
        <pt x="540" y="559" on="0"/>
        <pt x="458" y="595" on="0"/>
        <pt x="407" y="595" on="1"/>
        <pt x="346" y="595" on="0"/>
        <pt x="245" y="550" on="0"/>
        <pt x="173" y="470" on="0"/>
        <pt x="133" y="363" on="0"/>
      </contour>
      <contour>
        <pt x="708" y="365" on="1"/>
        <pt x="708" y="293" on="0"/>
        <pt x="653" y="158" on="0"/>
        <pt x="557" y="53" on="0"/>
        <pt x="425" y="-10" on="0"/>
        <pt x="348" y="-10" on="1"/>
        <pt x="283" y="-10" on="0"/>
        <pt x="174" y="39" on="0"/>
        <pt x="96" y="123" on="0"/>
        <pt x="52" y="235" on="0"/>
        <pt x="52" y="297" on="1"/>
        <pt x="52" y="369" on="0"/>
        <pt x="107" y="504" on="0"/>
        <pt x="203" y="609" on="0"/>
        <pt x="335" y="673" on="0"/>
        <pt x="412" y="673" on="1"/>
        <pt x="477" y="673" on="0"/>
        <pt x="586" y="624" on="0"/>
        <pt x="664" y="540" on="0"/>
        <pt x="708" y="428" on="0"/>
      </contour>
    </TTGlyph>
    <TTGlyph name="currency" xMin="53" yMin="87" xMax="581" yMax="575">
      <contour>
        <pt x="305" y="207" on="1"/>
        <pt x="331" y="207" on="0"/>
        <pt x="375" y="227" on="0"/>
        <pt x="408" y="265" on="0"/>
        <pt x="426" y="316" on="0"/>
        <pt x="426" y="348" on="1"/>
        <pt x="426" y="369" on="0"/>
        <pt x="414" y="408" on="0"/>
        <pt x="390" y="437" on="0"/>
        <pt x="354" y="455" on="0"/>
        <pt x="329" y="455" on="1"/>
        <pt x="303" y="455" on="0"/>
        <pt x="259" y="435" on="0"/>
        <pt x="226" y="397" on="0"/>
        <pt x="208" y="345" on="0"/>
        <pt x="208" y="314" on="1"/>
        <pt x="208" y="293" on="0"/>
        <pt x="220" y="254" on="0"/>
        <pt x="244" y="225" on="0"/>
        <pt x="280" y="207" on="0"/>
      </contour>
      <contour>
        <pt x="301" y="125" on="1"/>
        <pt x="269" y="125" on="0"/>
        <pt x="213" y="145" on="0"/>
        <pt x="191" y="162" on="1"/>
        <pt x="110" y="87" on="1"/>
        <pt x="53" y="153" on="1"/>
        <pt x="137" y="230" on="1"/>
        <pt x="130" y="247" on="0"/>
        <pt x="122" y="286" on="0"/>
        <pt x="122" y="306" on="1"/>
        <pt x="122" y="379" on="0"/>
        <pt x="158" y="435" on="1"/>
        <pt x="94" y="509" on="1"/>
        <pt x="166" y="575" on="1"/>
        <pt x="226" y="504" on="1"/>
        <pt x="249" y="519" on="0"/>
        <pt x="304" y="537" on="0"/>
        <pt x="333" y="537" on="1"/>
        <pt x="365" y="537" on="0"/>
        <pt x="421" y="517" on="0"/>
        <pt x="443" y="500" on="1"/>
        <pt x="524" y="575" on="1"/>
        <pt x="581" y="509" on="1"/>
        <pt x="497" y="432" on="1"/>
        <pt x="504" y="415" on="0"/>
        <pt x="512" y="376" on="0"/>
        <pt x="512" y="356" on="1"/>
        <pt x="512" y="283" on="0"/>
        <pt x="476" y="227" on="1"/>
        <pt x="540" y="153" on="1"/>
        <pt x="468" y="87" on="1"/>
        <pt x="408" y="158" on="1"/>
        <pt x="385" y="143" on="0"/>
        <pt x="330" y="125" on="0"/>
      </contour>
    </TTGlyph>
    <TTGlyph name="d" xMin="31" yMin="-8" xMax="523" yMax="709">
      <contour>
        <pt x="424" y="709" on="1"/>
        <pt x="523" y="709" on="1"/>
        <pt x="449" y="83" on="1"/>
        <pt x="521" y="67" on="1"/>
        <pt x="515" y="18" on="1"/>
        <pt x="498" y="10" on="0"/>
        <pt x="454" y="-2" on="0"/>
        <pt x="435" y="-2" on="1"/>
        <pt x="404" y="-2" on="0"/>
        <pt x="368" y="28" on="0"/>
        <pt x="360" y="48" on="1"/>
        <pt x="338" y="35" on="1"/>
        <pt x="299" y="12" on="0"/>
        <pt x="237" y="-8" on="0"/>
        <pt x="209" y="-8" on="1"/>
        <pt x="170" y="-8" on="0"/>
        <pt x="105" y="26" on="0"/>
        <pt x="58" y="84" on="0"/>
        <pt x="31" y="164" on="0"/>
        <pt x="31" y="210" on="1"/>
        <pt x="31" y="272" on="0"/>
        <pt x="73" y="377" on="0"/>
        <pt x="141" y="453" on="0"/>
        <pt x="226" y="496" on="0"/>
        <pt x="270" y="496" on="1"/>
        <pt x="326" y="496" on="0"/>
        <pt x="378" y="461" on="1"/>
        <pt x="394" y="450" on="1"/>
      </contour>
      <contour>
        <pt x="383" y="359" on="1"/>
        <pt x="384" y="368" on="0"/>
        <pt x="381" y="377" on="0"/>
        <pt x="372" y="382" on="1"/>
        <pt x="354" y="392" on="0"/>
        <pt x="303" y="405" on="0"/>
        <pt x="279" y="405" on="1"/>
        <pt x="248" y="405" on="0"/>
        <pt x="194" y="379" on="0"/>
        <pt x="153" y="330" on="0"/>
        <pt x="130" y="257" on="0"/>
        <pt x="130" y="210" on="1"/>
        <pt x="130" y="147" on="0"/>
        <pt x="184" y="81" on="0"/>
        <pt x="232" y="81" on="1"/>
        <pt x="259" y="81" on="0"/>
        <pt x="321" y="100" on="0"/>
        <pt x="341" y="113" on="1"/>
        <pt x="351" y="119" on="0"/>
        <pt x="356" y="131" on="0"/>
        <pt x="358" y="143" on="1"/>
      </contour>
    </TTGlyph>
    <TTGlyph name="dagger" xMin="58" yMin="-229" xMax="526" yMax="663">
      <contour>
        <pt x="296" y="19" on="1"/>
        <pt x="290" y="-35" on="0"/>
        <pt x="265" y="-161" on="0"/>
        <pt x="248" y="-229" on="1"/>
        <pt x="193" y="-229" on="1"/>
        <pt x="193" y="-197" on="0"/>
        <pt x="195" y="-127" on="0"/>
        <pt x="198" y="-58" on="0"/>
        <pt x="203" y="5" on="0"/>
        <pt x="206" y="31" on="1"/>
        <pt x="225" y="193" on="1"/>
        <pt x="230" y="230" on="0"/>
        <pt x="243" y="304" on="0"/>
        <pt x="251" y="341" on="1"/>
        <pt x="231" y="339" on="0"/>
        <pt x="187" y="335" on="0"/>
        <pt x="145" y="332" on="0"/>
        <pt x="107" y="330" on="0"/>
        <pt x="92" y="330" on="1"/>
        <pt x="58" y="330" on="1"/>
        <pt x="68" y="419" on="1"/>
        <pt x="102" y="419" on="1"/>
        <pt x="137" y="419" on="0"/>
        <pt x="220" y="412" on="0"/>
        <pt x="261" y="407" on="1"/>
        <pt x="261" y="445" on="0"/>
        <pt x="263" y="520" on="0"/>
        <pt x="267" y="552" on="1"/>
        <pt x="280" y="663" on="1"/>
        <pt x="371" y="663" on="1"/>
        <pt x="357" y="548" on="1"/>
        <pt x="353" y="518" on="0"/>
        <pt x="340" y="439" on="0"/>
        <pt x="332" y="407" on="1"/>
        <pt x="374" y="412" on="0"/>
        <pt x="459" y="419" on="0"/>
        <pt x="492" y="419" on="1"/>
        <pt x="526" y="419" on="1"/>
        <pt x="515" y="330" on="1"/>
        <pt x="474" y="330" on="1"/>
        <pt x="455" y="330" on="0"/>
        <pt x="412" y="332" on="0"/>
        <pt x="372" y="335" on="0"/>
        <pt x="336" y="339" on="0"/>
        <pt x="323" y="341" on="1"/>
        <pt x="323" y="307" on="0"/>
        <pt x="320" y="217" on="0"/>
        <pt x="315" y="181" on="1"/>
      </contour>
    </TTGlyph>
    <TTGlyph name="daggerdbl" xMin="20" yMin="-229" xMax="526" yMax="663">
      <contour>
        <pt x="295" y="93" on="1"/>
        <pt x="315" y="95" on="0"/>
        <pt x="359" y="99" on="0"/>
        <pt x="401" y="102" on="0"/>
        <pt x="439" y="104" on="0"/>
        <pt x="454" y="104" on="1"/>
        <pt x="488" y="104" on="1"/>
        <pt x="478" y="15" on="1"/>
        <pt x="444" y="15" on="1"/>
        <pt x="409" y="15" on="0"/>
        <pt x="326" y="22" on="0"/>
        <pt x="285" y="27" on="1"/>
        <pt x="285" y="-11" on="0"/>
        <pt x="283" y="-86" on="0"/>
        <pt x="279" y="-118" on="1"/>
        <pt x="266" y="-229" on="1"/>
        <pt x="175" y="-229" on="1"/>
        <pt x="189" y="-114" on="1"/>
        <pt x="193" y="-84" on="0"/>
        <pt x="206" y="-5" on="0"/>
        <pt x="214" y="27" on="1"/>
        <pt x="172" y="22" on="0"/>
        <pt x="87" y="15" on="0"/>
        <pt x="54" y="15" on="1"/>
        <pt x="20" y="15" on="1"/>
        <pt x="31" y="104" on="1"/>
        <pt x="72" y="104" on="1"/>
        <pt x="91" y="104" on="0"/>
        <pt x="134" y="102" on="0"/>
        <pt x="174" y="99" on="0"/>
        <pt x="210" y="95" on="0"/>
        <pt x="223" y="93" on="1"/>
        <pt x="224" y="127" on="0"/>
        <pt x="227" y="189" on="0"/>
        <pt x="233" y="249" on="0"/>
        <pt x="243" y="309" on="0"/>
        <pt x="251" y="341" on="1"/>
        <pt x="231" y="339" on="0"/>
        <pt x="187" y="335" on="0"/>
        <pt x="145" y="332" on="0"/>
        <pt x="107" y="330" on="0"/>
        <pt x="92" y="330" on="1"/>
        <pt x="58" y="330" on="1"/>
        <pt x="68" y="419" on="1"/>
        <pt x="102" y="419" on="1"/>
        <pt x="137" y="419" on="0"/>
        <pt x="220" y="412" on="0"/>
        <pt x="261" y="407" on="1"/>
        <pt x="261" y="445" on="0"/>
        <pt x="263" y="520" on="0"/>
        <pt x="267" y="552" on="1"/>
        <pt x="280" y="663" on="1"/>
        <pt x="371" y="663" on="1"/>
        <pt x="357" y="548" on="1"/>
        <pt x="353" y="518" on="0"/>
        <pt x="340" y="439" on="0"/>
        <pt x="332" y="407" on="1"/>
        <pt x="374" y="412" on="0"/>
        <pt x="459" y="419" on="0"/>
        <pt x="492" y="419" on="1"/>
        <pt x="526" y="419" on="1"/>
        <pt x="515" y="330" on="1"/>
        <pt x="474" y="330" on="1"/>
        <pt x="455" y="330" on="0"/>
        <pt x="412" y="332" on="0"/>
        <pt x="372" y="335" on="0"/>
        <pt x="336" y="339" on="0"/>
        <pt x="323" y="341" on="1"/>
        <pt x="322" y="282" on="0"/>
        <pt x="309" y="156" on="0"/>
      </contour>
    </TTGlyph>
    <TTGlyph name="dcaron" xMin="32" yMin="-8" xMax="691" yMax="709">
      <component glyphName="d" x="1" y="0" flags="0x4"/>
      <component glyphName="commaaccent" x="472" y="767" flags="0x4"/>
    </TTGlyph>
    <TTGlyph name="dcroat" xMin="31" yMin="-8" xMax="590" yMax="709">
      <contour>
        <pt x="407" y="566" on="1"/>
        <pt x="241" y="566" on="1"/>
        <pt x="250" y="634" on="1"/>
        <pt x="415" y="634" on="1"/>
        <pt x="424" y="709" on="1"/>
        <pt x="523" y="709" on="1"/>
        <pt x="514" y="633" on="1"/>
        <pt x="590" y="619" on="1"/>
        <pt x="583" y="566" on="1"/>
        <pt x="506" y="566" on="1"/>
        <pt x="449" y="83" on="1"/>
        <pt x="521" y="67" on="1"/>
        <pt x="515" y="18" on="1"/>
        <pt x="498" y="10" on="0"/>
        <pt x="454" y="-2" on="0"/>
        <pt x="435" y="-2" on="1"/>
        <pt x="404" y="-2" on="0"/>
        <pt x="368" y="28" on="0"/>
        <pt x="360" y="48" on="1"/>
        <pt x="338" y="35" on="1"/>
        <pt x="299" y="12" on="0"/>
        <pt x="237" y="-8" on="0"/>
        <pt x="209" y="-8" on="1"/>
        <pt x="170" y="-8" on="0"/>
        <pt x="105" y="26" on="0"/>
        <pt x="58" y="84" on="0"/>
        <pt x="31" y="164" on="0"/>
        <pt x="31" y="210" on="1"/>
        <pt x="31" y="272" on="0"/>
        <pt x="73" y="377" on="0"/>
        <pt x="141" y="453" on="0"/>
        <pt x="226" y="496" on="0"/>
        <pt x="270" y="496" on="1"/>
        <pt x="326" y="496" on="0"/>
        <pt x="378" y="461" on="1"/>
        <pt x="394" y="450" on="1"/>
      </contour>
      <contour>
        <pt x="383" y="359" on="1"/>
        <pt x="384" y="368" on="0"/>
        <pt x="381" y="377" on="0"/>
        <pt x="372" y="382" on="1"/>
        <pt x="354" y="392" on="0"/>
        <pt x="303" y="405" on="0"/>
        <pt x="279" y="405" on="1"/>
        <pt x="248" y="405" on="0"/>
        <pt x="194" y="379" on="0"/>
        <pt x="153" y="330" on="0"/>
        <pt x="130" y="257" on="0"/>
        <pt x="130" y="210" on="1"/>
        <pt x="130" y="147" on="0"/>
        <pt x="184" y="81" on="0"/>
        <pt x="232" y="81" on="1"/>
        <pt x="259" y="81" on="0"/>
        <pt x="321" y="100" on="0"/>
        <pt x="341" y="113" on="1"/>
        <pt x="351" y="119" on="0"/>
        <pt x="356" y="131" on="0"/>
        <pt x="358" y="143" on="1"/>
      </contour>
    </TTGlyph>
    <TTGlyph name="degree" xMin="78" yMin="335" xMax="406" yMax="673">
      <contour>
        <pt x="406" y="517" on="1"/>
        <pt x="406" y="478" on="0"/>
        <pt x="377" y="411" on="0"/>
        <pt x="329" y="362" on="0"/>
        <pt x="266" y="335" on="0"/>
        <pt x="232" y="335" on="1"/>
        <pt x="200" y="335" on="0"/>
        <pt x="144" y="358" on="0"/>
        <pt x="102" y="399" on="0"/>
        <pt x="78" y="456" on="0"/>
        <pt x="78" y="491" on="1"/>
        <pt x="78" y="530" on="0"/>
        <pt x="106" y="597" on="0"/>
        <pt x="154" y="646" on="0"/>
        <pt x="217" y="673" on="0"/>
        <pt x="252" y="673" on="1"/>
        <pt x="284" y="673" on="0"/>
        <pt x="340" y="650" on="0"/>
        <pt x="382" y="609" on="0"/>
        <pt x="406" y="552" on="0"/>
      </contour>
      <contour>
        <pt x="324" y="514" on="1"/>
        <pt x="324" y="551" on="0"/>
        <pt x="282" y="594" on="0"/>
        <pt x="250" y="594" on="1"/>
        <pt x="206" y="594" on="0"/>
        <pt x="160" y="533" on="0"/>
        <pt x="160" y="494" on="1"/>
        <pt x="160" y="457" on="0"/>
        <pt x="201" y="413" on="0"/>
        <pt x="234" y="413" on="1"/>
        <pt x="256" y="413" on="0"/>
        <pt x="290" y="430" on="0"/>
        <pt x="312" y="458" on="0"/>
        <pt x="324" y="494" on="0"/>
      </contour>
    </TTGlyph>
    <TTGlyph name="dieresis" xMin="90" yMin="571" xMax="389" yMax="676">
      <contour>
        <pt x="194" y="571" on="1"/>
        <pt x="90" y="571" on="1"/>
        <pt x="101" y="676" on="1"/>
        <pt x="188" y="676" on="1"/>
        <pt x="205" y="676" on="0"/>
        <pt x="204" y="659" on="1"/>
      </contour>
      <contour>
        <pt x="378" y="571" on="1"/>
        <pt x="274" y="571" on="1"/>
        <pt x="285" y="676" on="1"/>
        <pt x="372" y="676" on="1"/>
        <pt x="389" y="676" on="0"/>
        <pt x="388" y="659" on="1"/>
      </contour>
    </TTGlyph>
    <TTGlyph name="dieresis.cap" xMin="108" yMin="751" xMax="407" yMax="856">
      <contour>
        <pt x="212" y="751" on="1"/>
        <pt x="108" y="751" on="1"/>
        <pt x="119" y="856" on="1"/>
        <pt x="206" y="856" on="1"/>
        <pt x="223" y="856" on="0"/>
        <pt x="222" y="839" on="1"/>
      </contour>
      <contour>
        <pt x="396" y="751" on="1"/>
        <pt x="292" y="751" on="1"/>
        <pt x="303" y="856" on="1"/>
        <pt x="390" y="856" on="1"/>
        <pt x="407" y="856" on="0"/>
        <pt x="406" y="839" on="1"/>
      </contour>
    </TTGlyph>
    <TTGlyph name="divide" xMin="70" yMin="35" xMax="453" yMax="456">
      <contour>
        <pt x="453" y="287" on="1"/>
        <pt x="444" y="203" on="1"/>
        <pt x="70" y="203" on="1"/>
        <pt x="80" y="287" on="1"/>
      </contour>
      <contour>
        <pt x="325" y="354" on="1"/>
        <pt x="224" y="354" on="1"/>
        <pt x="235" y="456" on="1"/>
        <pt x="319" y="456" on="1"/>
        <pt x="330" y="456" on="0"/>
        <pt x="336" y="448" on="0"/>
        <pt x="335" y="439" on="1"/>
      </contour>
      <contour>
        <pt x="286" y="35" on="1"/>
        <pt x="185" y="35" on="1"/>
        <pt x="196" y="137" on="1"/>
        <pt x="280" y="137" on="1"/>
        <pt x="291" y="137" on="0"/>
        <pt x="297" y="129" on="0"/>
        <pt x="296" y="120" on="1"/>
      </contour>
    </TTGlyph>
    <TTGlyph name="dollar" xMin="57" yMin="-116" xMax="544" yMax="783">
      <contour>
        <pt x="530" y="573" on="1"/>
        <pt x="468" y="577" on="1"/>
        <pt x="448" y="579" on="0"/>
        <pt x="407" y="580" on="0"/>
        <pt x="389" y="581" on="1"/>
        <pt x="366" y="392" on="1"/>
        <pt x="408" y="373" on="0"/>
        <pt x="472" y="336" on="0"/>
        <pt x="492" y="316" on="1"/>
        <pt x="516" y="292" on="0"/>
        <pt x="538" y="236" on="0"/>
        <pt x="538" y="201" on="1"/>
        <pt x="538" y="156" on="0"/>
        <pt x="508" y="81" on="0"/>
        <pt x="451" y="26" on="0"/>
        <pt x="369" y="-6" on="0"/>
        <pt x="318" y="-9" on="1"/>
        <pt x="297" y="-116" on="1"/>
        <pt x="243" y="-116" on="1"/>
        <pt x="255" y="-8" on="1"/>
        <pt x="204" y="-3" on="0"/>
        <pt x="98" y="28" on="0"/>
        <pt x="57" y="48" on="1"/>
        <pt x="82" y="112" on="1"/>
        <pt x="145" y="100" on="1"/>
        <pt x="220" y="85" on="0"/>
        <pt x="266" y="82" on="1"/>
        <pt x="294" y="320" on="1"/>
        <pt x="248" y="339" on="0"/>
        <pt x="179" y="377" on="0"/>
        <pt x="132" y="419" on="0"/>
        <pt x="109" y="471" on="0"/>
        <pt x="109" y="506" on="1"/>
        <pt x="109" y="579" on="0"/>
        <pt x="230" y="670" on="0"/>
        <pt x="336" y="673" on="1"/>
        <pt x="359" y="783" on="1"/>
        <pt x="413" y="783" on="1"/>
        <pt x="399" y="670" on="1"/>
        <pt x="434" y="667" on="0"/>
        <pt x="509" y="651" on="0"/>
        <pt x="544" y="639" on="1"/>
      </contour>
      <contour>
        <pt x="440" y="194" on="1"/>
        <pt x="440" y="230" on="0"/>
        <pt x="400" y="273" on="0"/>
        <pt x="354" y="294" on="1"/>
        <pt x="329" y="82" on="1"/>
        <pt x="384" y="89" on="0"/>
        <pt x="440" y="149" on="0"/>
      </contour>
      <contour>
        <pt x="206" y="507" on="1"/>
        <pt x="206" y="479" on="0"/>
        <pt x="251" y="440" on="0"/>
        <pt x="305" y="417" on="1"/>
        <pt x="325" y="581" on="1"/>
        <pt x="268" y="579" on="0"/>
        <pt x="206" y="545" on="0"/>
      </contour>
    </TTGlyph>
    <TTGlyph name="dollar.lprop" xMin="35" yMin="-116" xMax="522" yMax="783">
      <component glyphName="dollar" x="-22" y="0" flags="0x4"/>
    </TTGlyph>
    <TTGlyph name="dollar.oprop" xMin="32" yMin="-116" xMax="425" yMax="604">
      <component glyphName="dollar.otab" x="-65" y="0" flags="0x4"/>
    </TTGlyph>
    <TTGlyph name="dollar.otab" xMin="97" yMin="-116" xMax="490" yMax="604">
      <contour>
        <pt x="122" y="98" on="1"/>
        <pt x="183" y="87" on="1"/>
        <pt x="209" y="82" on="0"/>
        <pt x="250" y="77" on="0"/>
        <pt x="269" y="75" on="1"/>
        <pt x="286" y="223" on="1"/>
        <pt x="256" y="235" on="1"/>
        <pt x="203" y="254" on="0"/>
        <pt x="138" y="309" on="0"/>
        <pt x="138" y="359" on="1"/>
        <pt x="138" y="393" on="0"/>
        <pt x="167" y="445" on="0"/>
        <pt x="217" y="479" on="0"/>
        <pt x="283" y="496" on="0"/>
        <pt x="319" y="496" on="1"/>
        <pt x="340" y="604" on="1"/>
        <pt x="381" y="604" on="1"/>
        <pt x="367" y="493" on="1"/>
        <pt x="399" y="489" on="0"/>
        <pt x="462" y="474" on="0"/>
        <pt x="490" y="463" on="1"/>
        <pt x="473" y="401" on="1"/>
        <pt x="426" y="406" on="1"/>
        <pt x="402" y="408" on="0"/>
        <pt x="372" y="411" on="0"/>
        <pt x="358" y="412" on="1"/>
        <pt x="344" y="294" on="1"/>
        <pt x="355" y="290" on="1"/>
        <pt x="418" y="267" on="0"/>
        <pt x="482" y="207" on="0"/>
        <pt x="482" y="157" on="1"/>
        <pt x="482" y="120" on="0"/>
        <pt x="456" y="61" on="0"/>
        <pt x="410" y="19" on="0"/>
        <pt x="346" y="-5" on="0"/>
        <pt x="308" y="-7" on="1"/>
        <pt x="308" y="-8" on="1"/>
        <pt x="287" y="-116" on="1"/>
        <pt x="246" y="-116" on="1"/>
        <pt x="259" y="-6" on="1"/>
        <pt x="216" y="-2" on="0"/>
        <pt x="132" y="22" on="0"/>
        <pt x="97" y="40" on="1"/>
      </contour>
      <contour>
        <pt x="392" y="146" on="1"/>
        <pt x="392" y="166" on="0"/>
        <pt x="367" y="192" on="0"/>
        <pt x="333" y="206" on="1"/>
        <pt x="318" y="76" on="1"/>
        <pt x="353" y="81" on="0"/>
        <pt x="392" y="117" on="0"/>
      </contour>
      <contour>
        <pt x="227" y="366" on="1"/>
        <pt x="227" y="349" on="0"/>
        <pt x="259" y="326" on="0"/>
        <pt x="295" y="312" on="1"/>
        <pt x="297" y="311" on="1"/>
        <pt x="309" y="413" on="1"/>
        <pt x="271" y="411" on="0"/>
        <pt x="227" y="389" on="0"/>
      </contour>
    </TTGlyph>
    <TTGlyph name="dotaccent" xMin="162" yMin="555" xMax="284" yMax="663">
      <contour>
        <pt x="175" y="663" on="1"/>
        <pt x="265" y="663" on="1"/>
        <pt x="276" y="663" on="0"/>
        <pt x="284" y="657" on="0"/>
        <pt x="282" y="646" on="1"/>
        <pt x="271" y="555" on="1"/>
        <pt x="162" y="555" on="1"/>
      </contour>
    </TTGlyph>
    <TTGlyph name="dotaccent.cap" xMin="211" yMin="733" xMax="333" yMax="841">
      <contour>
        <pt x="224" y="841" on="1"/>
        <pt x="314" y="841" on="1"/>
        <pt x="325" y="841" on="0"/>
        <pt x="333" y="835" on="0"/>
        <pt x="331" y="824" on="1"/>
        <pt x="320" y="733" on="1"/>
        <pt x="211" y="733" on="1"/>
      </contour>
    </TTGlyph>
    <TTGlyph name="dotlessi" xMin="38" yMin="0" xMax="194" yMax="488">
      <contour>
        <pt x="95" y="488" on="1"/>
        <pt x="194" y="488" on="1"/>
        <pt x="137" y="0" on="1"/>
        <pt x="38" y="0" on="1"/>
      </contour>
    </TTGlyph>
    <TTGlyph name="e" xMin="31" yMin="-8" xMax="483" yMax="496">
      <contour>
        <pt x="129" y="214" on="1"/>
        <pt x="129" y="156" on="0"/>
        <pt x="196" y="82" on="0"/>
        <pt x="262" y="82" on="1"/>
        <pt x="285" y="82" on="0"/>
        <pt x="339" y="92" on="0"/>
        <pt x="363" y="99" on="1"/>
        <pt x="430" y="118" on="1"/>
        <pt x="456" y="64" on="1"/>
        <pt x="436" y="49" on="0"/>
        <pt x="387" y="23" on="0"/>
        <pt x="333" y="4" on="0"/>
        <pt x="277" y="-8" on="0"/>
        <pt x="251" y="-8" on="1"/>
        <pt x="203" y="-8" on="0"/>
        <pt x="122" y="24" on="0"/>
        <pt x="64" y="83" on="0"/>
        <pt x="31" y="166" on="0"/>
        <pt x="31" y="217" on="1"/>
        <pt x="31" y="278" on="0"/>
        <pt x="72" y="381" on="0"/>
        <pt x="142" y="455" on="0"/>
        <pt x="232" y="496" on="0"/>
        <pt x="282" y="496" on="1"/>
        <pt x="326" y="496" on="0"/>
        <pt x="400" y="464" on="0"/>
        <pt x="453" y="406" on="0"/>
        <pt x="483" y="327" on="0"/>
        <pt x="483" y="280" on="1"/>
        <pt x="483" y="240" on="0"/>
        <pt x="465" y="214" on="0"/>
        <pt x="449" y="214" on="1"/>
      </contour>
      <contour>
        <pt x="389" y="289" on="1"/>
        <pt x="387" y="338" on="0"/>
        <pt x="332" y="406" on="0"/>
        <pt x="277" y="406" on="1"/>
        <pt x="226" y="406" on="0"/>
        <pt x="153" y="343" on="0"/>
        <pt x="139" y="289" on="1"/>
      </contour>
    </TTGlyph>
    <TTGlyph name="eacute" xMin="31" yMin="-8" xMax="483" yMax="731">
      <component glyphName="e" x="0" y="0" flags="0x204"/>
      <component glyphName="acute" x="68" y="0" flags="0x4"/>
    </TTGlyph>
    <TTGlyph name="ebreve" xMin="31" yMin="-8" xMax="483" yMax="704">
      <component glyphName="e" x="0" y="0" flags="0x204"/>
      <component glyphName="breve" x="60" y="0" flags="0x4"/>
    </TTGlyph>
    <TTGlyph name="ecaron" xMin="31" yMin="-8" xMax="483" yMax="727">
      <component glyphName="e" x="0" y="0" flags="0x204"/>
      <component glyphName="caron" x="66" y="0" flags="0x4"/>
    </TTGlyph>
    <TTGlyph name="ecircumflex" xMin="31" yMin="-8" xMax="483" yMax="719">
      <component glyphName="e" x="0" y="0" flags="0x204"/>
      <component glyphName="circumflex" x="67" y="0" flags="0x4"/>
    </TTGlyph>
    <TTGlyph name="edieresis" xMin="31" yMin="-8" xMax="483" yMax="676">
      <component glyphName="e" x="0" y="0" flags="0x204"/>
      <component glyphName="dieresis" x="61" y="0" flags="0x4"/>
    </TTGlyph>
    <TTGlyph name="edotaccent" xMin="31" yMin="-8" xMax="483" yMax="663">
      <component glyphName="e" x="0" y="0" flags="0x204"/>
      <component glyphName="dotaccent" x="79" y="0" flags="0x4"/>
    </TTGlyph>
    <TTGlyph name="egrave" xMin="31" yMin="-8" xMax="483" yMax="737">
      <component glyphName="e" x="0" y="0" flags="0x204"/>
      <component glyphName="grave" x="74" y="0" flags="0x4"/>
    </TTGlyph>
    <TTGlyph name="eight" xMin="54" yMin="-10" xMax="560" yMax="673">
      <contour>
        <pt x="298" y="-10" on="1"/>
        <pt x="245" y="-10" on="0"/>
        <pt x="156" y="22" on="0"/>
        <pt x="91" y="77" on="0"/>
        <pt x="54" y="149" on="0"/>
        <pt x="54" y="189" on="1"/>
        <pt x="54" y="249" on="0"/>
        <pt x="127" y="335" on="0"/>
        <pt x="179" y="363" on="1"/>
        <pt x="156" y="383" on="0"/>
        <pt x="118" y="441" on="0"/>
        <pt x="118" y="482" on="1"/>
        <pt x="118" y="522" on="0"/>
        <pt x="154" y="592" on="0"/>
        <pt x="217" y="643" on="0"/>
        <pt x="301" y="673" on="0"/>
        <pt x="348" y="673" on="1"/>
        <pt x="395" y="673" on="0"/>
        <pt x="472" y="645" on="0"/>
        <pt x="527" y="598" on="0"/>
        <pt x="557" y="535" on="0"/>
        <pt x="557" y="500" on="1"/>
        <pt x="557" y="450" on="0"/>
        <pt x="499" y="367" on="0"/>
        <pt x="458" y="338" on="1"/>
        <pt x="501" y="315" on="0"/>
        <pt x="560" y="253" on="0"/>
        <pt x="560" y="203" on="1"/>
        <pt x="560" y="157" on="0"/>
        <pt x="518" y="79" on="0"/>
        <pt x="446" y="22" on="0"/>
        <pt x="351" y="-10" on="0"/>
      </contour>
      <contour>
        <pt x="256" y="321" on="1"/>
        <pt x="244" y="326" on="0"/>
        <pt x="232" y="321" on="0"/>
        <pt x="224" y="316" on="1"/>
        <pt x="193" y="296" on="0"/>
        <pt x="152" y="237" on="0"/>
        <pt x="152" y="202" on="1"/>
        <pt x="152" y="149" on="0"/>
        <pt x="235" y="80" on="0"/>
        <pt x="305" y="80" on="1"/>
        <pt x="338" y="80" on="0"/>
        <pt x="395" y="97" on="0"/>
        <pt x="437" y="127" on="0"/>
        <pt x="460" y="169" on="0"/>
        <pt x="460" y="194" on="1"/>
        <pt x="460" y="208" on="0"/>
        <pt x="449" y="230" on="0"/>
        <pt x="423" y="250" on="0"/>
        <pt x="382" y="271" on="0"/>
        <pt x="351" y="283" on="1"/>
      </contour>
      <contour>
        <pt x="466" y="486" on="1"/>
        <pt x="466" y="534" on="0"/>
        <pt x="396" y="584" on="0"/>
        <pt x="343" y="584" on="1"/>
        <pt x="318" y="584" on="0"/>
        <pt x="271" y="571" on="0"/>
        <pt x="235" y="547" on="0"/>
        <pt x="214" y="512" on="0"/>
        <pt x="214" y="490" on="1"/>
        <pt x="214" y="455" on="0"/>
        <pt x="267" y="415" on="0"/>
        <pt x="315" y="396" on="1"/>
        <pt x="373" y="373" on="1"/>
        <pt x="384" y="369" on="0"/>
        <pt x="395" y="371" on="0"/>
        <pt x="405" y="379" on="1"/>
        <pt x="431" y="399" on="0"/>
        <pt x="466" y="457" on="0"/>
      </contour>
    </TTGlyph>
    <TTGlyph name="eight.lprop" xMin="52" yMin="-10" xMax="558" yMax="673">
      <component glyphName="eight" x="-2" y="0" flags="0x4"/>
    </TTGlyph>
    <TTGlyph name="eight.oprop" xMin="46" yMin="-8" xMax="540" yMax="673">
      <contour>
        <pt x="285" y="-8" on="1"/>
        <pt x="236" y="-8" on="0"/>
        <pt x="149" y="22" on="0"/>
        <pt x="84" y="76" on="0"/>
        <pt x="46" y="148" on="0"/>
        <pt x="46" y="190" on="1"/>
        <pt x="46" y="220" on="0"/>
        <pt x="67" y="272" on="0"/>
        <pt x="102" y="317" on="0"/>
        <pt x="148" y="352" on="0"/>
        <pt x="174" y="366" on="1"/>
        <pt x="148" y="384" on="0"/>
        <pt x="112" y="448" on="0"/>
        <pt x="112" y="485" on="1"/>
        <pt x="112" y="526" on="0"/>
        <pt x="150" y="595" on="0"/>
        <pt x="213" y="645" on="0"/>
        <pt x="294" y="673" on="0"/>
        <pt x="336" y="673" on="1"/>
        <pt x="379" y="673" on="0"/>
        <pt x="453" y="645" on="0"/>
        <pt x="507" y="598" on="0"/>
        <pt x="538" y="535" on="0"/>
        <pt x="538" y="500" on="1"/>
        <pt x="538" y="451" on="0"/>
        <pt x="480" y="365" on="0"/>
        <pt x="438" y="336" on="1"/>
        <pt x="483" y="313" on="0"/>
        <pt x="540" y="253" on="0"/>
        <pt x="540" y="203" on="1"/>
        <pt x="540" y="157" on="0"/>
        <pt x="500" y="80" on="0"/>
        <pt x="431" y="24" on="0"/>
        <pt x="338" y="-8" on="0"/>
      </contour>
      <contour>
        <pt x="246" y="323" on="1"/>
        <pt x="237" y="327" on="0"/>
        <pt x="225" y="325" on="0"/>
        <pt x="217" y="320" on="1"/>
        <pt x="186" y="300" on="0"/>
        <pt x="142" y="240" on="0"/>
        <pt x="142" y="202" on="1"/>
        <pt x="142" y="148" on="0"/>
        <pt x="221" y="79" on="0"/>
        <pt x="290" y="79" on="1"/>
        <pt x="324" y="79" on="0"/>
        <pt x="382" y="97" on="0"/>
        <pt x="422" y="129" on="0"/>
        <pt x="445" y="170" on="0"/>
        <pt x="445" y="193" on="1"/>
        <pt x="445" y="221" on="0"/>
        <pt x="394" y="261" on="0"/>
        <pt x="336" y="285" on="1"/>
      </contour>
      <contour>
        <pt x="359" y="372" on="1"/>
        <pt x="367" y="369" on="0"/>
        <pt x="377" y="370" on="0"/>
        <pt x="385" y="376" on="1"/>
        <pt x="411" y="396" on="0"/>
        <pt x="450" y="459" on="0"/>
        <pt x="450" y="489" on="1"/>
        <pt x="450" y="533" on="0"/>
        <pt x="385" y="587" on="0"/>
        <pt x="331" y="587" on="1"/>
        <pt x="306" y="587" on="0"/>
        <pt x="260" y="574" on="0"/>
        <pt x="226" y="549" on="0"/>
        <pt x="205" y="513" on="0"/>
        <pt x="205" y="491" on="1"/>
        <pt x="205" y="457" on="0"/>
        <pt x="261" y="412" on="0"/>
        <pt x="303" y="395" on="1"/>
      </contour>
    </TTGlyph>
    <TTGlyph name="eight.otab" xMin="53" yMin="-8" xMax="547" yMax="673">
      <contour>
        <pt x="292" y="-8" on="1"/>
        <pt x="243" y="-8" on="0"/>
        <pt x="156" y="22" on="0"/>
        <pt x="91" y="76" on="0"/>
        <pt x="53" y="148" on="0"/>
        <pt x="53" y="190" on="1"/>
        <pt x="53" y="220" on="0"/>
        <pt x="74" y="272" on="0"/>
        <pt x="109" y="317" on="0"/>
        <pt x="155" y="352" on="0"/>
        <pt x="181" y="366" on="1"/>
        <pt x="155" y="384" on="0"/>
        <pt x="119" y="448" on="0"/>
        <pt x="119" y="485" on="1"/>
        <pt x="119" y="526" on="0"/>
        <pt x="157" y="595" on="0"/>
        <pt x="220" y="645" on="0"/>
        <pt x="301" y="673" on="0"/>
        <pt x="343" y="673" on="1"/>
        <pt x="386" y="673" on="0"/>
        <pt x="460" y="645" on="0"/>
        <pt x="514" y="598" on="0"/>
        <pt x="545" y="535" on="0"/>
        <pt x="545" y="500" on="1"/>
        <pt x="545" y="451" on="0"/>
        <pt x="487" y="365" on="0"/>
        <pt x="445" y="336" on="1"/>
        <pt x="490" y="313" on="0"/>
        <pt x="547" y="253" on="0"/>
        <pt x="547" y="203" on="1"/>
        <pt x="547" y="157" on="0"/>
        <pt x="507" y="80" on="0"/>
        <pt x="438" y="24" on="0"/>
        <pt x="345" y="-8" on="0"/>
      </contour>
      <contour>
        <pt x="253" y="323" on="1"/>
        <pt x="244" y="327" on="0"/>
        <pt x="232" y="325" on="0"/>
        <pt x="224" y="320" on="1"/>
        <pt x="193" y="300" on="0"/>
        <pt x="149" y="240" on="0"/>
        <pt x="149" y="202" on="1"/>
        <pt x="149" y="148" on="0"/>
        <pt x="228" y="79" on="0"/>
        <pt x="297" y="79" on="1"/>
        <pt x="331" y="79" on="0"/>
        <pt x="389" y="97" on="0"/>
        <pt x="429" y="129" on="0"/>
        <pt x="452" y="170" on="0"/>
        <pt x="452" y="193" on="1"/>
        <pt x="452" y="221" on="0"/>
        <pt x="401" y="261" on="0"/>
        <pt x="343" y="285" on="1"/>
      </contour>
      <contour>
        <pt x="366" y="372" on="1"/>
        <pt x="374" y="369" on="0"/>
        <pt x="384" y="370" on="0"/>
        <pt x="392" y="376" on="1"/>
        <pt x="418" y="396" on="0"/>
        <pt x="457" y="459" on="0"/>
        <pt x="457" y="489" on="1"/>
        <pt x="457" y="533" on="0"/>
        <pt x="392" y="587" on="0"/>
        <pt x="338" y="587" on="1"/>
        <pt x="313" y="587" on="0"/>
        <pt x="267" y="574" on="0"/>
        <pt x="233" y="549" on="0"/>
        <pt x="212" y="513" on="0"/>
        <pt x="212" y="491" on="1"/>
        <pt x="212" y="457" on="0"/>
        <pt x="268" y="412" on="0"/>
        <pt x="310" y="395" on="1"/>
      </contour>
    </TTGlyph>
    <TTGlyph name="ellipsis" xMin="24" yMin="0" xMax="568" yMax="112">
      <contour>
        <pt x="37" y="112" on="1"/>
        <pt x="127" y="112" on="1"/>
        <pt x="138" y="112" on="0"/>
        <pt x="146" y="106" on="0"/>
        <pt x="144" y="95" on="1"/>
        <pt x="133" y="0" on="1"/>
        <pt x="24" y="0" on="1"/>
      </contour>
      <contour>
        <pt x="248" y="112" on="1"/>
        <pt x="338" y="112" on="1"/>
        <pt x="349" y="112" on="0"/>
        <pt x="357" y="106" on="0"/>
        <pt x="355" y="95" on="1"/>
        <pt x="344" y="0" on="1"/>
        <pt x="235" y="0" on="1"/>
      </contour>
      <contour>
        <pt x="459" y="112" on="1"/>
        <pt x="549" y="112" on="1"/>
        <pt x="560" y="112" on="0"/>
        <pt x="568" y="106" on="0"/>
        <pt x="566" y="95" on="1"/>
        <pt x="555" y="0" on="1"/>
        <pt x="446" y="0" on="1"/>
      </contour>
    </TTGlyph>
    <TTGlyph name="emacron" xMin="31" yMin="-8" xMax="483" yMax="664">
      <component glyphName="e" x="0" y="0" flags="0x204"/>
      <component glyphName="macron" x="65" y="0" flags="0x4"/>
    </TTGlyph>
    <TTGlyph name="emdash" xMin="48" yMin="201" xMax="1019" yMax="287">
      <contour>
        <pt x="48" y="201" on="1"/>
        <pt x="59" y="287" on="1"/>
        <pt x="1019" y="287" on="1"/>
        <pt x="1008" y="201" on="1"/>
      </contour>
    </TTGlyph>
    <TTGlyph name="emdash.cap" xMin="59" yMin="288" xMax="1030" yMax="374">
      <component glyphName="emdash" x="11" y="87" flags="0x204"/>
    </TTGlyph>
    <TTGlyph name="endash" xMin="48" yMin="201" xMax="539" yMax="287">
      <contour>
        <pt x="48" y="201" on="1"/>
        <pt x="59" y="287" on="1"/>
        <pt x="539" y="287" on="1"/>
        <pt x="528" y="201" on="1"/>
      </contour>
    </TTGlyph>
    <TTGlyph name="endash.cap" xMin="59" yMin="288" xMax="550" yMax="374">
      <component glyphName="endash" x="11" y="87" flags="0x204"/>
    </TTGlyph>
    <TTGlyph name="eng" xMin="37" yMin="-206" xMax="494" yMax="496">
      <contour>
        <pt x="390" y="286" on="1"/>
        <pt x="392" y="298" on="0"/>
        <pt x="394" y="324" on="0"/>
        <pt x="394" y="332" on="1"/>
        <pt x="394" y="370" on="0"/>
        <pt x="346" y="400" on="0"/>
        <pt x="303" y="400" on="1"/>
        <pt x="276" y="400" on="0"/>
        <pt x="218" y="389" on="0"/>
        <pt x="194" y="378" on="1"/>
        <pt x="183" y="373" on="0"/>
        <pt x="179" y="366" on="0"/>
        <pt x="178" y="359" on="1"/>
        <pt x="136" y="0" on="1"/>
        <pt x="37" y="0" on="1"/>
        <pt x="94" y="488" on="1"/>
        <pt x="169" y="488" on="1"/>
        <pt x="178" y="443" on="1"/>
        <pt x="201" y="456" on="1"/>
        <pt x="234" y="475" on="0"/>
        <pt x="299" y="496" on="0"/>
        <pt x="332" y="496" on="1"/>
        <pt x="368" y="496" on="0"/>
        <pt x="428" y="473" on="0"/>
        <pt x="470" y="433" on="0"/>
        <pt x="494" y="377" on="0"/>
        <pt x="494" y="343" on="1"/>
        <pt x="494" y="332" on="0"/>
        <pt x="491" y="299" on="0"/>
        <pt x="488" y="273" on="1"/>
        <pt x="451" y="-42" on="1"/>
        <pt x="446" y="-86" on="0"/>
        <pt x="424" y="-146" on="0"/>
        <pt x="404" y="-167" on="1"/>
        <pt x="366" y="-206" on="0"/>
        <pt x="293" y="-206" on="1"/>
        <pt x="273" y="-206" on="0"/>
        <pt x="229" y="-199" on="0"/>
        <pt x="214" y="-194" on="1"/>
        <pt x="220" y="-140" on="1"/>
        <pt x="259" y="-134" on="1"/>
        <pt x="287" y="-130" on="0"/>
        <pt x="320" y="-119" on="0"/>
        <pt x="340" y="-101" on="0"/>
        <pt x="348" y="-73" on="0"/>
        <pt x="351" y="-50" on="1"/>
      </contour>
    </TTGlyph>
    <TTGlyph name="eogonek" xMin="31" yMin="-211" xMax="483" yMax="496">
      <contour>
        <pt x="129" y="214" on="1"/>
        <pt x="129" y="156" on="0"/>
        <pt x="196" y="82" on="0"/>
        <pt x="262" y="82" on="1"/>
        <pt x="285" y="82" on="0"/>
        <pt x="339" y="92" on="0"/>
        <pt x="363" y="99" on="1"/>
        <pt x="430" y="118" on="1"/>
        <pt x="456" y="64" on="1"/>
        <pt x="435" y="49" on="0"/>
        <pt x="385" y="11" on="0"/>
        <pt x="341" y="-32" on="0"/>
        <pt x="312" y="-78" on="0"/>
        <pt x="312" y="-101" on="1"/>
        <pt x="312" y="-119" on="0"/>
        <pt x="336" y="-140" on="0"/>
        <pt x="359" y="-140" on="1"/>
        <pt x="378" y="-140" on="0"/>
        <pt x="424" y="-132" on="1"/>
        <pt x="434" y="-185" on="1"/>
        <pt x="412" y="-197" on="0"/>
        <pt x="360" y="-211" on="0"/>
        <pt x="337" y="-211" on="1"/>
        <pt x="287" y="-211" on="0"/>
        <pt x="227" y="-158" on="0"/>
        <pt x="227" y="-120" on="1"/>
        <pt x="227" y="-88" on="0"/>
        <pt x="265" y="-28" on="0"/>
        <pt x="297" y="-5" on="1"/>
        <pt x="295" y="-6" on="0"/>
        <pt x="283" y="-7" on="0"/>
        <pt x="269" y="-8" on="0"/>
        <pt x="255" y="-8" on="0"/>
        <pt x="251" y="-8" on="1"/>
        <pt x="203" y="-8" on="0"/>
        <pt x="122" y="24" on="0"/>
        <pt x="64" y="83" on="0"/>
        <pt x="31" y="166" on="0"/>
        <pt x="31" y="217" on="1"/>
        <pt x="31" y="278" on="0"/>
        <pt x="72" y="381" on="0"/>
        <pt x="142" y="455" on="0"/>
        <pt x="232" y="496" on="0"/>
        <pt x="282" y="496" on="1"/>
        <pt x="326" y="496" on="0"/>
        <pt x="400" y="464" on="0"/>
        <pt x="453" y="406" on="0"/>
        <pt x="483" y="327" on="0"/>
        <pt x="483" y="280" on="1"/>
        <pt x="483" y="240" on="0"/>
        <pt x="465" y="214" on="0"/>
        <pt x="449" y="214" on="1"/>
      </contour>
      <contour>
        <pt x="389" y="289" on="1"/>
        <pt x="387" y="338" on="0"/>
        <pt x="332" y="406" on="0"/>
        <pt x="277" y="406" on="1"/>
        <pt x="226" y="406" on="0"/>
        <pt x="153" y="343" on="0"/>
        <pt x="139" y="289" on="1"/>
      </contour>
    </TTGlyph>
    <TTGlyph name="equal" xMin="58" yMin="106" xMax="464" yMax="384">
      <contour>
        <pt x="464" y="384" on="1"/>
        <pt x="455" y="300" on="1"/>
        <pt x="81" y="300" on="1"/>
        <pt x="91" y="384" on="1"/>
      </contour>
      <contour>
        <pt x="441" y="190" on="1"/>
        <pt x="431" y="106" on="1"/>
        <pt x="58" y="106" on="1"/>
        <pt x="67" y="190" on="1"/>
      </contour>
    </TTGlyph>
    <TTGlyph name="estimated" xMin="60" yMin="-10" xMax="823" yMax="673">
      <contour>
        <pt x="206" y="323" on="1"/>
        <pt x="198" y="323" on="0"/>
        <pt x="198" y="317" on="1"/>
        <pt x="198" y="130" on="1"/>
        <pt x="198" y="123" on="0"/>
        <pt x="204" y="115" on="0"/>
        <pt x="210" y="109" on="1"/>
        <pt x="254" y="64" on="0"/>
        <pt x="375" y="11" on="0"/>
        <pt x="444" y="11" on="1"/>
        <pt x="518" y="11" on="0"/>
        <pt x="643" y="71" on="0"/>
        <pt x="688" y="121" on="1"/>
        <pt x="744" y="121" on="1"/>
        <pt x="690" y="61" on="0"/>
        <pt x="534" y="-10" on="0"/>
        <pt x="443" y="-10" on="1"/>
        <pt x="364" y="-10" on="0"/>
        <pt x="224" y="43" on="0"/>
        <pt x="120" y="135" on="0"/>
        <pt x="60" y="260" on="0"/>
        <pt x="60" y="331" on="1"/>
        <pt x="60" y="402" on="0"/>
        <pt x="120" y="527" on="0"/>
        <pt x="224" y="620" on="0"/>
        <pt x="364" y="673" on="0"/>
        <pt x="443" y="673" on="1"/>
        <pt x="521" y="673" on="0"/>
        <pt x="659" y="620" on="0"/>
        <pt x="762" y="527" on="0"/>
        <pt x="823" y="402" on="0"/>
        <pt x="823" y="331" on="1"/>
        <pt x="823" y="323" on="1"/>
      </contour>
      <contour>
        <pt x="684" y="537" on="1"/>
        <pt x="684" y="543" on="0"/>
        <pt x="677" y="553" on="0"/>
        <pt x="671" y="559" on="1"/>
        <pt x="629" y="603" on="0"/>
        <pt x="510" y="653" on="0"/>
        <pt x="444" y="653" on="1"/>
        <pt x="375" y="653" on="0"/>
        <pt x="255" y="601" on="0"/>
        <pt x="210" y="556" on="1"/>
        <pt x="204" y="550" on="0"/>
        <pt x="198" y="540" on="0"/>
        <pt x="198" y="532" on="1"/>
        <pt x="198" y="347" on="1"/>
        <pt x="198" y="342" on="0"/>
        <pt x="206" y="342" on="1"/>
        <pt x="676" y="342" on="1"/>
        <pt x="684" y="342" on="0"/>
        <pt x="684" y="347" on="1"/>
      </contour>
    </TTGlyph>
    <TTGlyph name="eth" xMin="35" yMin="-8" xMax="508" yMax="727">
      <contour>
        <pt x="405" y="608" on="1"/>
        <pt x="508" y="493" on="0"/>
        <pt x="508" y="333" on="1"/>
        <pt x="508" y="258" on="0"/>
        <pt x="470" y="133" on="0"/>
        <pt x="402" y="42" on="0"/>
        <pt x="307" y="-8" on="0"/>
        <pt x="249" y="-8" on="1"/>
        <pt x="201" y="-8" on="0"/>
        <pt x="122" y="27" on="0"/>
        <pt x="66" y="87" on="0"/>
        <pt x="35" y="169" on="0"/>
        <pt x="35" y="216" on="1"/>
        <pt x="35" y="271" on="0"/>
        <pt x="73" y="363" on="0"/>
        <pt x="138" y="429" on="0"/>
        <pt x="225" y="466" on="0"/>
        <pt x="275" y="466" on="1"/>
        <pt x="306" y="466" on="0"/>
        <pt x="369" y="446" on="0"/>
        <pt x="398" y="429" on="1"/>
        <pt x="392" y="465" on="0"/>
        <pt x="352" y="543" on="0"/>
        <pt x="325" y="570" on="1"/>
        <pt x="193" y="508" on="1"/>
        <pt x="159" y="568" on="1"/>
        <pt x="267" y="619" on="1"/>
        <pt x="247" y="633" on="0"/>
        <pt x="205" y="660" on="0"/>
        <pt x="184" y="674" on="1"/>
        <pt x="219" y="727" on="1"/>
        <pt x="252" y="714" on="0"/>
        <pt x="318" y="680" on="0"/>
        <pt x="348" y="658" on="1"/>
        <pt x="466" y="713" on="1"/>
        <pt x="500" y="653" on="1"/>
      </contour>
      <contour>
        <pt x="410" y="332" on="1"/>
        <pt x="410" y="343" on="0"/>
        <pt x="404" y="354" on="0"/>
        <pt x="390" y="360" on="1"/>
        <pt x="368" y="370" on="0"/>
        <pt x="315" y="382" on="0"/>
        <pt x="287" y="382" on="1"/>
        <pt x="252" y="382" on="0"/>
        <pt x="192" y="361" on="0"/>
        <pt x="172" y="339" on="1"/>
        <pt x="154" y="319" on="0"/>
        <pt x="134" y="260" on="0"/>
        <pt x="134" y="222" on="1"/>
        <pt x="134" y="161" on="0"/>
        <pt x="193" y="81" on="0"/>
        <pt x="252" y="81" on="1"/>
        <pt x="294" y="81" on="0"/>
        <pt x="353" y="121" on="0"/>
        <pt x="392" y="190" on="0"/>
        <pt x="410" y="281" on="0"/>
      </contour>
    </TTGlyph>
    <TTGlyph name="exclam" xMin="40" yMin="0" xMax="222" yMax="663">
      <contour>
        <pt x="194" y="433" on="1"/>
        <pt x="189" y="396" on="0"/>
        <pt x="177" y="322" on="0"/>
        <pt x="169" y="284" on="1"/>
        <pt x="146" y="179" on="1"/>
        <pt x="82" y="179" on="1"/>
        <pt x="84" y="286" on="1"/>
        <pt x="85" y="323" on="0"/>
        <pt x="89" y="389" on="0"/>
        <pt x="94" y="429" on="1"/>
        <pt x="122" y="663" on="1"/>
        <pt x="222" y="663" on="1"/>
      </contour>
      <contour>
        <pt x="52" y="106" on="1"/>
        <pt x="141" y="106" on="1"/>
        <pt x="152" y="106" on="0"/>
        <pt x="160" y="100" on="0"/>
        <pt x="158" y="89" on="1"/>
        <pt x="148" y="0" on="1"/>
        <pt x="40" y="0" on="1"/>
      </contour>
    </TTGlyph>
    <TTGlyph name="exclamdown" xMin="14" yMin="-175" xMax="196" yMax="488">
      <component glyphName="exclam" x="236" y="488" scale="-0.99994" flags="0x4"/>
    </TTGlyph>
    <TTGlyph name="exclamdown.cap" xMin="38" yMin="0" xMax="220" yMax="663">
      <component glyphName="exclam" x="260" y="663" scale="-0.99994" flags="0x4"/>
    </TTGlyph>
</ttFont>
